<svg width="462" height="140" viewBox="0 0 462 140" fill="none" xmlns="http://www.w3.org/2000/svg">
<g clip-path="url(#clip0_89_426465)">
<path d="M88.37 23.4299L60.7 73.5999C59.7738 75.2576 58.6707 76.81 57.41 78.2299C55.9222 79.8298 54.1262 81.1121 52.13 81.9999C49.5676 83.1112 46.7917 83.6438 44 83.5599C41.2411 83.6065 38.5071 83.0324 36 81.8799C33.8903 80.9358 31.9796 79.5987 30.37 77.9399C29.1908 76.7744 28.2111 75.4231 27.47 73.9399L0 23.4299H19.06L41 62.8999C41.4103 63.6984 41.8817 64.4641 42.41 65.1899C42.6053 65.3945 42.8445 65.552 43.1095 65.6507C43.3745 65.7495 43.6585 65.7868 43.94 65.7599C44.2433 65.7908 44.5497 65.7518 44.8357 65.6461C45.1216 65.5404 45.3797 65.3707 45.59 65.1499C46.1215 64.4403 46.5932 63.6877 47 62.8999L69.07 23.4299H88.37Z" fill="white"/>
<path d="M209.44 23.4299L181.77 73.5999C180.844 75.2576 179.741 76.81 178.48 78.2299C176.992 79.8298 175.196 81.1121 173.2 81.9999C170.64 83.1215 167.864 83.6644 165.07 83.5899C162.311 83.6365 159.577 83.0624 157.07 81.9099C154.96 80.9658 153.05 79.6287 151.44 77.9699C150.261 76.8044 149.281 75.4531 148.54 73.9699L121.07 23.4299H140.13L162.05 62.8999C162.46 63.6984 162.932 64.4641 163.46 65.1899C163.655 65.3945 163.895 65.552 164.16 65.6507C164.425 65.7495 164.709 65.7868 164.99 65.7599C165.293 65.7908 165.6 65.7518 165.886 65.6461C166.172 65.5404 166.43 65.3707 166.64 65.1499C167.172 64.4403 167.643 63.6877 168.05 62.8999L190.14 23.4299H209.44Z" fill="white"/>
<path d="M293.49 81.9999H275.94V77.8899C275.305 79.0706 274.338 80.0402 273.16 80.6799C272.056 81.4574 270.758 81.9143 269.41 81.9999H221.85C220.467 81.9624 219.111 81.5986 217.895 80.9383C216.679 80.278 215.635 79.3397 214.85 78.1999C214.04 77.0222 213.601 75.6291 213.59 74.1999C213.59 71.3099 213.52 67.6699 213.48 63.2599C213.44 58.8499 213.42 56.5199 213.42 56.2599C213.233 53.4142 214.158 50.6068 216 48.4299C216.76 47.5448 217.702 46.8339 218.762 46.3455C219.821 45.8572 220.973 45.6029 222.14 45.5999H267.14C269.071 45.5584 270.967 46.1137 272.57 47.1899C273.884 48.0201 275.023 49.1006 275.92 50.3699V44.9999C275.89 43.7986 275.545 42.6261 274.92 41.5999C274.224 40.4267 273.248 39.4441 272.08 38.7399C270.786 37.9629 269.299 37.5677 267.79 37.5999H214V23.4299H274.7C277.244 23.4301 279.745 24.077 281.97 25.3099C284.243 26.5695 286.274 28.2217 287.97 30.1899C289.61 32.0552 290.968 34.1509 292 36.4099C292.883 38.2068 293.377 40.1694 293.45 42.1699L293.49 81.9999ZM272.59 63.7899C272.575 63.0445 272.282 62.3315 271.77 61.7899C271.213 61.1659 270.532 60.6652 269.77 60.3199C269.168 60.0052 268.508 59.8179 267.83 59.7699H234.63C234.007 59.7086 233.379 59.8209 232.816 60.0945C232.253 60.3681 231.777 60.7922 231.44 61.3199C230.958 62.0419 230.653 62.8677 230.55 63.7299C230.527 64.2679 230.618 64.8047 230.818 65.3046C231.018 65.8046 231.322 66.2563 231.71 66.6299C232.32 67.2884 233.163 67.683 234.06 67.7299H268.75C269.699 67.6473 270.584 67.2205 271.24 66.5299C271.657 66.1974 271.994 65.7763 272.227 65.2971C272.461 64.818 272.585 64.2929 272.59 63.7599V63.7899Z" fill="white"/>
<path d="M99.37 18.38C97.8651 17.5181 96.616 16.2724 95.7499 14.77C94.8485 13.2593 94.3813 11.5291 94.3999 9.76998C94.3846 8.03648 94.8521 6.33292 95.7499 4.84998C96.6303 3.37165 97.8771 2.14546 99.37 1.28998C100.889 0.412975 102.616 -0.0426971 104.37 -0.0300158C106.086 -0.0408514 107.773 0.415442 109.25 1.28998C110.727 2.16176 111.958 3.39341 112.83 4.86998C113.714 6.351 114.177 8.04516 114.17 9.76998C114.187 11.5276 113.724 13.2565 112.83 14.77C111.968 16.2616 110.734 17.5052 109.25 18.38C107.773 19.2545 106.086 19.7108 104.37 19.7C102.616 19.7127 100.889 19.257 99.37 18.38V18.38Z" fill="#FF7600"/>
<path d="M112.58 23.64H95.97V84.07H112.58V23.64Z" fill="white"/>
<path d="M378.91 56.9999C378.281 55.4911 377.461 54.0694 376.47 52.7699L374.33 50.9199C374.65 50.4299 374.98 49.9199 375.33 49.4299C376.027 48.4344 376.56 47.3338 376.91 46.1699C377.2 45.1699 377.48 44.2299 377.74 43.2699L377.8 43.0799V42.8699C377.8 41.3499 377.8 39.8699 377.68 38.2999C377.593 36.6556 377.182 35.0446 376.47 33.5599C375.827 32.2149 375.071 30.9269 374.21 29.7099L374.1 29.5699C373.051 28.3979 371.834 27.387 370.49 26.5699C369.221 25.8094 367.881 25.1731 366.49 24.6699C365.13 24.1799 363.78 23.7699 362.49 23.4399H324.18L320.54 24.4399C319.309 24.7836 318.121 25.2668 317 25.8799C315.875 26.5304 314.811 27.2801 313.82 28.1199L313.69 28.2399C312.844 29.1495 312.078 30.1297 311.4 31.1699C310.709 32.2396 310.132 33.3792 309.68 34.5699C309.217 35.7405 308.882 36.9575 308.68 38.1999V38.3099C308.566 39.9114 308.623 41.5206 308.85 43.1099C309.078 44.7367 309.582 46.3127 310.34 47.7699C310.86 48.7693 311.469 49.7198 312.16 50.6099C311.086 51.5845 310.126 52.6782 309.3 53.8699C308.453 55.0931 307.761 56.4165 307.24 57.8099C306.702 59.1878 306.365 60.636 306.24 62.1099C306.13 63.8382 306.13 65.5717 306.24 67.2999C306.353 69.1389 306.811 70.9401 307.59 72.6099C308.362 74.2476 309.354 75.7718 310.54 77.1399L310.61 77.2099C311.786 78.3744 313.107 79.3827 314.54 80.2099C315.92 81.0163 317.39 81.6574 318.92 82.1199C320.437 82.5773 321.994 82.8888 323.57 83.0499H362.82H362.91C364.2 82.8899 365.5 82.6699 366.78 82.3999C368.144 82.1125 369.47 81.6661 370.73 81.0699C372.04 80.4558 373.264 79.6725 374.37 78.7399C375.561 77.6633 376.618 76.4479 377.52 75.1199C378.432 73.7847 379.133 72.3177 379.6 70.7699C380.049 69.2959 380.334 67.7766 380.45 66.2399V66.1199C380.449 64.5605 380.335 63.0031 380.11 61.4599C379.892 59.9302 379.489 58.4326 378.91 56.9999V56.9999ZM360.71 34.5999C361.21 34.6999 361.71 34.8099 362.25 34.9499C362.736 35.0828 363.203 35.2777 363.64 35.5299C364.131 35.8321 364.602 36.1661 365.05 36.5299C365.357 36.8368 365.635 37.1716 365.88 37.5299C366.074 37.8017 366.216 38.1068 366.3 38.4299L366.67 39.7699C366.48 43.1499 364.94 44.8999 361.67 45.4299L324.8 45.5899C324.34 45.4599 323.88 45.2999 323.44 45.1299C322.979 44.9608 322.531 44.7569 322.1 44.5199C321.76 44.3299 321.39 44.0899 321 43.8199L320 41.7199V39.7199C319.981 39.1989 320.076 38.68 320.28 38.1999C320.51 37.7209 320.781 37.2625 321.09 36.8299C321.54 36.4799 322.03 36.1199 322.56 35.7699C323.035 35.4484 323.549 35.1896 324.09 34.9999C324.619 34.8258 325.161 34.6921 325.71 34.5999H360.71ZM322.24 57.7699C322.87 57.5299 323.48 57.2699 324.07 57.0099H362.52L364.01 57.4799C364.512 57.6444 365 57.8484 365.47 58.0899C365.906 58.3279 366.32 58.6022 366.71 58.9099C367.173 59.3768 367.607 59.871 368.01 60.3899C368.325 60.7959 368.568 61.2524 368.73 61.7399C368.922 62.3533 369.059 62.9824 369.14 63.6199C369.175 65.0223 369.054 66.4242 368.78 67.7999C368.19 68.8567 367.367 69.7658 366.375 70.4587C365.382 71.1515 364.245 71.6101 363.05 71.7999L323.49 71.7199C322.98 71.6299 322.49 71.5099 321.96 71.3799C321.472 71.2472 321.004 71.0487 320.57 70.7899C320.077 70.4904 319.606 70.1563 319.16 69.7899C318.79 69.4376 318.482 69.0251 318.25 68.5699C318.025 68.0975 317.845 67.6054 317.71 67.0999C317.565 66.5299 317.452 65.9524 317.37 65.3699C317.372 64.6998 317.429 64.0309 317.54 63.3699C317.647 62.7407 317.828 62.1264 318.08 61.5399C318.32 60.9599 318.59 60.3899 318.9 59.8099C319.35 59.3851 319.846 59.0127 320.38 58.6999C320.973 58.3381 321.595 58.027 322.24 57.7699Z" fill="#FF7600"/>
<path d="M461.17 61.4799C460.942 59.9415 460.525 58.4369 459.93 57C459.301 55.4933 458.485 54.0721 457.5 52.77L455.35 50.9199C455.67 50.4399 456 49.92 456.35 49.43C457.047 48.4344 457.58 47.3338 457.93 46.1699C458.22 45.1699 458.5 44.23 458.77 43.27L458.82 43.08V42.8699C458.82 41.3699 458.82 39.8699 458.7 38.2999C458.613 36.6556 458.202 35.0447 457.49 33.56C456.851 32.2129 456.095 30.9246 455.23 29.7099L455.12 29.58C454.077 28.401 452.86 27.3892 451.51 26.58C450.242 25.8171 448.902 25.1807 447.51 24.68C446.15 24.19 444.81 23.78 443.51 23.45H405.2L401.57 24.45C400.328 24.7853 399.13 25.2653 398 25.8799C396.873 26.527 395.809 27.2769 394.82 28.12L394.69 28.25C393.842 29.154 393.076 30.1311 392.4 31.17C391.71 32.2407 391.134 33.3801 390.68 34.57C390.234 35.7424 389.916 36.9594 389.73 38.2V38.31C389.62 39.9115 389.677 41.5201 389.9 43.11C390.127 44.7383 390.634 46.315 391.4 47.77C391.918 48.7685 392.523 49.719 393.21 50.61C392.137 51.5852 391.177 52.6788 390.35 53.8699C389.507 55.0953 388.815 56.4183 388.29 57.81C387.756 59.1892 387.42 60.6368 387.29 62.11C387.18 63.8382 387.18 65.5717 387.29 67.3C387.407 69.1395 387.868 70.9407 388.65 72.61C389.414 74.2517 390.408 75.7769 391.6 77.1399L391.67 77.2099C392.844 78.3769 394.165 79.3854 395.6 80.2099C396.984 81.0306 398.461 81.682 400 82.15C401.52 82.6083 403.081 82.9197 404.66 83.08H443.9H444C445.28 82.92 446.58 82.7 447.86 82.43C449.224 82.1425 450.55 81.6961 451.81 81.0999C453.12 80.4858 454.344 79.7025 455.45 78.7699C456.641 77.6933 457.698 76.478 458.6 75.15C459.511 73.8128 460.215 72.3464 460.69 70.8C461.131 69.3238 461.416 67.8055 461.54 66.2699V66.15C461.529 64.5864 461.405 63.0258 461.17 61.4799ZM441.74 34.5499C442.24 34.6499 442.74 34.76 443.27 34.9C443.757 35.0311 444.224 35.2261 444.66 35.4799C445.153 35.7844 445.627 36.1183 446.08 36.4799C446.379 36.7916 446.653 37.1259 446.9 37.4799C447.091 37.7547 447.236 38.0586 447.33 38.38L447.7 39.72C447.51 43.1 445.96 44.85 442.7 45.38L405.84 45.54C405.378 45.4122 404.924 45.2586 404.48 45.08C404.019 44.9086 403.572 44.7047 403.14 44.47C402.8 44.28 402.42 44.04 402.03 43.77L401.03 41.6699V39.6699C401.014 39.1481 401.113 38.6291 401.32 38.15C401.551 37.6731 401.818 37.215 402.12 36.7799C402.57 36.4299 403.06 36.07 403.59 35.72C404.066 35.4004 404.58 35.1417 405.12 34.95C405.649 34.7768 406.191 34.6431 406.74 34.5499H441.74ZM403.26 57.77C403.89 57.53 404.5 57.2699 405.1 57.0099H443.55L445.03 57.4799C445.535 57.6446 446.027 57.8486 446.5 58.09C446.931 58.3305 447.342 58.6047 447.73 58.91C448.179 59.3804 448.603 59.8745 449 60.3899C449.306 60.7964 449.546 61.2486 449.71 61.7299C449.909 62.3447 450.047 62.9779 450.12 63.6199C450.162 65.022 450.044 66.4243 449.77 67.8C449.176 68.8535 448.352 69.76 447.36 70.4523C446.369 71.1447 445.234 71.6053 444.04 71.8L404.47 71.72C403.97 71.63 403.47 71.5099 402.95 71.3799C402.459 71.2472 401.988 71.0487 401.55 70.79C401.057 70.4905 400.586 70.1563 400.14 69.79C399.773 69.435 399.466 69.023 399.23 68.57C399.004 68.099 398.827 67.6065 398.7 67.0999C398.551 66.5304 398.434 65.9528 398.35 65.37C398.36 64.6997 398.42 64.0312 398.53 63.3699C398.638 62.7421 398.816 62.1284 399.06 61.54C399.3 60.96 399.58 60.39 399.88 59.81C400.33 59.3851 400.826 59.0127 401.36 58.7C401.967 58.3381 402.602 58.027 403.26 57.77V57.77Z" fill="#FF7600"/>
<g opacity="0.7">
<path opacity="0.7" d="M80.62 123.22L84.92 117.29C87.92 113.18 88.16 112.35 88.08 110.99C88.08 110.52 87.86 109.99 87.3 110.04C86.4 110.04 84.74 112.59 84.3 113.3L77.11 123.42L70.57 124.55L75.11 119.16C76.72 117.23 79.11 114.53 78.99 111.88C78.88 109.78 77.69 107.75 74.15 107.95C69.879 108.335 65.6804 109.301 61.67 110.82C59.28 111.73 52.28 114.47 50.84 116.31C50.0611 117.783 49.6526 119.424 49.65 121.09C49.65 121.85 50.05 123.03 51.04 122.98C51.6406 122.876 52.2108 122.64 52.71 122.29C54.5012 121.09 56.4154 120.084 58.42 119.29C58.92 119.09 59.42 118.81 59.42 118.21C59.42 117.83 59.09 117.71 58.78 117.6C65.63 114.31 70.92 112.43 73.18 112.31C73.7 112.31 74.69 112.4 74.73 113.16C74.77 113.92 73.62 115.58 73.1 116.16C69.58 120.64 66.69 124.16 65.1 125.81C58.68 127.41 58.65 127.71 58.18 127.73C57.71 127.75 57.48 127.47 57.18 127.49C56.03 127.56 54.92 129.89 54.97 130.87C55.05 132.32 56.45 132.8 59.43 132.38C58.89 133.56 56.02 136.68 56.09 137.88C56.1919 138.379 56.4683 138.825 56.8698 139.139C57.2712 139.452 57.7712 139.612 58.28 139.59C59.28 139.59 60.15 137.78 60.63 137.02L64.78 131.57L72.58 130.11C71.5546 132.115 70.8366 134.262 70.45 136.48C70.31 137.77 70.59 138.36 71.34 138.57C72.47 138.89 74.53 136.68 75.91 136.91C75.6313 136.083 75.4271 135.233 75.3 134.37C75.23 133.09 76.7 130.99 77.3 129.85C78.7503 129.638 80.225 129.655 81.67 129.9C82.9074 127.632 84.5358 125.601 86.48 123.9C84.68 123 82.59 123.16 80.62 123.22Z" fill="white"/>
<path opacity="0.7" d="M89.71 117.88C90.9187 117.73 92.1413 117.73 93.35 117.88C94.735 117.971 96.1081 118.195 97.45 118.55C97.9068 118.723 98.3914 118.811 98.88 118.81C99.18 118.81 99.48 118.74 99.46 118.4C99.3711 118.045 99.2108 117.713 98.989 117.422C98.7672 117.132 98.4885 116.889 98.17 116.71C96.4653 116.031 94.701 115.512 92.9 115.16L90.33 114.53C89.8981 114.404 89.4498 114.343 89 114.35C87.93 114.41 88.15 115.35 88.12 116.24C88.08 118 88 118.11 89.71 117.88Z" fill="white"/>
<path opacity="0.7" d="M123.62 127.61C121.85 128.95 119.54 131.26 117.74 131.36C117.06 131.36 116.4 131.14 116.36 130.36C116.25 128.36 119.8 125.16 119.72 123.79C119.723 123.4 119.593 123.021 119.351 122.716C119.109 122.41 118.77 122.197 118.39 122.11C118.77 121.96 119.85 121.47 119.82 120.96C119.651 120.346 119.265 119.815 118.733 119.465C118.201 119.116 117.56 118.972 116.93 119.06C112.78 119.4 104.5 123.74 102.23 128.28C101.23 129.28 100.23 130.38 98.62 130.19C99.34 128.48 100.11 126.93 100 125.05C99.93 123.77 99.63 122.89 98.33 122.62C98.78 122.34 99.33 122.05 99.24 121.41C99.18 120.26 97.75 119.91 96.81 120.01C93.9011 120.388 91.1766 121.644 89 123.61C86.71 125.61 85.25 127.8 85.51 131C85.9 134.87 88.07 137 90.29 136.86C91.5456 136.74 92.7627 136.361 93.8643 135.746C94.9659 135.132 95.9281 134.295 96.69 133.29C98.533 133.271 100.308 132.589 101.69 131.37C102.19 133.47 104.53 135.77 105.69 135.71C106.85 135.65 109.28 133.28 110.06 132.59L113.81 129.22L113.9 129.3C113.177 130.833 112.734 132.482 112.59 134.17C112.567 134.46 112.608 134.751 112.709 135.024C112.81 135.297 112.97 135.544 113.176 135.749C113.383 135.953 113.631 136.11 113.905 136.209C114.179 136.308 114.47 136.346 114.76 136.32C116.86 136.2 122.33 131.32 124.05 129.12L123.62 127.61ZM93.29 129.93C93.3491 130.615 93.561 131.278 93.91 131.87C93.5294 132.38 93.0515 132.81 92.504 133.134C91.9565 133.458 91.3501 133.671 90.72 133.76C89.65 133.82 88.82 133.48 88.72 132.24C88.7438 130.768 89.2856 129.352 90.25 128.24C91.6449 126.949 93.1774 125.816 94.82 124.86C95 124.91 93.17 127.71 93.29 129.93ZM105.73 132.63C105.1 132.79 104.89 132.03 104.83 131.82C104.71 129.73 105.83 127.05 115.83 123.37L115.92 123.45C107.91 132.46 106.58 132.41 105.73 132.63Z" fill="white"/>
<path opacity="0.7" d="M169.75 106C168.4 105.6 164.75 111 165.34 113.61C157.19 128.24 155.25 129.42 154.11 129.87C153.19 130.22 152.84 128.48 152.87 127.46C152.87 126.21 154.12 122.33 161.09 109.74C161.52 108.99 162.58 107.26 162.54 106.4C162.54 105.8 161.03 103.1 159.54 103.23C156.47 103.48 144.02 110.73 141.83 112.99C141.155 113.746 140.641 114.631 140.319 115.592C139.998 116.554 139.876 117.57 139.96 118.58C139.96 119.09 140.21 120.83 141.02 120.79C141.83 120.75 144.22 118.9 148.02 117.91C148.36 117.81 149.89 117.6 149.85 116.91C149.81 116.22 148.46 116.56 148.12 116.57L145.74 116.83L145.65 116.75C148.78 113.75 152.65 111.61 156.34 109.57L156.43 109.65C149.06 123.5 148.58 127.21 148.63 128.93C148.73 132.13 152.08 134.65 153.79 134.55C156.09 134.42 159.79 128.55 161.02 126.7C171.11 111.87 171.67 106.53 169.75 106Z" fill="white"/>
<path opacity="0.7" d="M172.47 113.29C173.679 113.145 174.901 113.145 176.11 113.29C177.499 113.383 178.875 113.611 180.22 113.97C180.68 114.133 181.163 114.221 181.65 114.23C181.95 114.23 182.24 114.15 182.22 113.81C182.134 113.455 181.975 113.123 181.753 112.833C181.531 112.544 181.251 112.304 180.93 112.13C179.229 111.439 177.464 110.92 175.66 110.58L173.1 109.95C172.666 109.819 172.213 109.758 171.76 109.77C170.7 109.82 170.92 110.77 170.88 111.66C170.85 113.38 170.73 113.52 172.47 113.29Z" fill="white"/>
<path opacity="0.7" d="M204.49 122.1C203.22 123.16 202.11 124.85 200.22 124.61C200.94 122.9 201.71 121.36 201.6 119.48C201.53 118.2 201.23 117.31 199.93 117.04C200.38 116.76 200.88 116.48 200.85 115.83C200.78 114.68 199.35 114.33 198.41 114.43C195.501 114.808 192.777 116.064 190.6 118.03C188.6 119.78 187.19 121.74 187.09 124.4C185.39 125.75 183.29 127.73 181.63 127.82C180.95 127.82 180.29 127.6 180.25 126.87C180.14 124.87 183.69 121.67 183.61 120.3C183.613 119.91 183.483 119.531 183.241 119.226C182.999 118.92 182.66 118.707 182.28 118.62C182.66 118.47 183.74 117.98 183.71 117.47C183.541 116.856 183.155 116.325 182.623 115.975C182.091 115.626 181.45 115.482 180.82 115.57C175.88 115.98 165.08 122.06 165.54 127.39C165.75 129.6 168.39 132.28 169.54 132.22C170.54 132.16 173.13 129.79 173.91 129.1L177.66 125.73L177.75 125.81C177.027 127.343 176.584 128.992 176.44 130.68C176.417 130.97 176.458 131.261 176.559 131.534C176.66 131.807 176.82 132.054 177.026 132.259C177.233 132.463 177.482 132.62 177.755 132.719C178.029 132.818 178.32 132.856 178.61 132.83C180.49 132.72 185.06 128.83 187.23 126.4C187.86 129.64 189.83 131.4 191.85 131.28C193.106 131.16 194.323 130.781 195.424 130.166C196.526 129.552 197.488 128.715 198.25 127.71C199.608 127.705 200.941 127.349 202.12 126.676C203.3 126.003 204.285 125.036 204.98 123.87L204.49 122.1ZM169.62 129.1C168.99 129.26 168.78 128.5 168.72 128.29C168.6 126.2 169.72 123.52 179.72 119.84L179.81 119.92C171.8 128.92 170.47 128.87 169.62 129.09V129.1ZM194.89 124.31C194.949 124.995 195.161 125.658 195.51 126.25C194.58 127.25 193.73 128.06 192.32 128.14C191.25 128.2 190.42 127.86 190.32 126.62C190.344 125.148 190.886 123.732 191.85 122.62C193.245 121.332 194.778 120.202 196.42 119.25C196.62 119.28 194.77 122.08 194.89 124.3V124.31Z" fill="white"/>
<path opacity="0.7" d="M334.21 106.78C334.5 106.46 335.83 105.02 336.3 104.99C336.77 104.96 336.96 105.25 336.78 105.99L336.87 106.07C340.81 102.25 343.29 98.26 343.21 96.85C343.21 96.12 342.69 95.85 342.01 96.06C341.33 96.27 336.4 96.76 327.45 108.48C324.66 112.14 322.74 117 322.92 120.25C323.09 123.25 324.64 125 327.71 124.82C333.1 124.53 342.1 117 345.96 113.19C346.21 115.36 345.56 116 344.02 117.62C336.14 126.11 329.19 129.07 325.18 129.29C320.44 129.55 316.86 126.8 316.59 121.89C316.24 115.61 321.12 108.57 325.29 104.18C328.72 100.52 337.29 93.18 342.4 92.91C344.96 92.77 346.7 94.05 346.98 96.73C347.6 102.48 337.18 114.02 331.85 115.13C331.556 115.198 331.25 115.2 330.955 115.136C330.66 115.072 330.383 114.944 330.143 114.761C329.903 114.577 329.707 114.343 329.568 114.075C329.429 113.807 329.351 113.512 329.34 113.21C329.27 111.93 330.34 110.59 331.21 109.77L334.21 106.78Z" fill="white"/>
<path opacity="0.7" d="M398.24 118C398.15 116.5 398.89 112.74 400.43 112.65C401.142 112.628 401.834 112.888 402.356 113.373C402.879 113.857 403.189 114.528 403.22 115.24C403.31 116.73 402.62 119.81 400.66 119.92C400.091 119.953 399.53 119.775 399.084 119.421C398.638 119.067 398.337 118.561 398.24 118ZM406.59 91.79C406.93 90.92 407.24 89.57 408.35 89.51C408.963 89.5562 409.571 89.6498 410.17 89.79C410.6 89.9 411.85 90 411.89 90.68C411.692 91.7775 411.332 92.8392 410.82 93.83L404 109.16C404.142 109.376 404.227 109.623 404.25 109.88C404.3 110.65 403.8 111.79 402.95 111.88C402.1 111.97 400.32 110.74 400.26 109.71C400.431 108.401 400.791 107.125 401.33 105.92L406.59 91.79Z" fill="white"/>
<path opacity="0.7" d="M392.21 104.29C394.04 104.19 395.51 102.01 395.41 100.29C395.398 100.11 395.349 99.9347 395.267 99.7741C395.185 99.6135 395.072 99.471 394.934 99.3552C394.796 99.2394 394.636 99.1527 394.463 99.1003C394.291 99.0479 394.109 99.0308 393.93 99.05C392.27 99.14 390.3 100.79 390.4 102.54C390.394 102.777 390.437 103.012 390.527 103.231C390.617 103.45 390.751 103.648 390.921 103.812C391.091 103.977 391.294 104.104 391.515 104.186C391.737 104.269 391.974 104.304 392.21 104.29V104.29Z" fill="white"/>
<path opacity="0.7" d="M394.68 112.59C393.04 113.93 390.95 116.31 388.68 116.44C386.68 116.55 386.03 115.64 386.27 113.87C387.99 112.54 392.01 108.5 391.89 106.37C391.84 105.43 390.67 105.23 389.95 105.27C387.95 105.38 384.48 108.65 383.15 112.55L383.05 112.21C381.78 113.26 380.67 114.95 378.78 114.72C379.5 113.01 380.27 111.46 380.16 109.59C380.182 109.227 380.132 108.863 380.012 108.519C379.892 108.176 379.704 107.86 379.46 107.59C379.927 107.475 380.364 107.26 380.74 106.96C381.956 105.583 383.038 104.093 383.97 102.51L385.42 100.31C385.689 99.9454 385.898 99.5404 386.04 99.11C386.35 98.11 385.4 97.98 384.56 97.65C382.91 97.03 382.83 96.87 382.45 98.59C382.196 99.7781 381.797 100.93 381.26 102.02C380.728 103.257 380.082 104.443 379.33 105.56C379.01 104.7 377.8 104.43 376.97 104.56C374.061 104.938 371.337 106.194 369.16 108.16C367.07 109.96 365.69 111.97 365.66 114.75C364.27 115.81 361.81 117.75 360.57 117.75C360.448 117.765 360.325 117.755 360.207 117.721C360.09 117.686 359.98 117.627 359.886 117.548C359.793 117.47 359.716 117.372 359.662 117.262C359.607 117.152 359.576 117.032 359.57 116.91C359.57 116.48 359.41 116.36 361.88 113.01C362.36 112.38 363.97 110.41 363.88 109.6C363.807 109.074 363.55 108.59 363.155 108.235C362.759 107.88 362.251 107.676 361.72 107.66C359.37 107.79 351.97 115.06 349.97 116.84L349.88 115.17C352.47 112.33 365.27 97.48 365.1 94.58C365.1 93.73 363.89 93.49 363.2 93.58C361.75 93.66 353.67 101.58 349.09 110.21C347.73 112.73 346.73 114.84 346.9 117.79C346.95 118.79 347.35 122.09 348.84 122C350.33 121.91 352.09 117.28 359.12 111.88L359.21 111.96C357.78 114.05 355.02 117.46 355.21 120.15C355.196 120.431 355.24 120.713 355.34 120.976C355.439 121.24 355.591 121.48 355.787 121.683C355.983 121.885 356.218 122.045 356.479 122.153C356.739 122.261 357.018 122.314 357.3 122.31C359.42 122.19 363.66 118.52 365.84 116.64C366.49 119.81 368.44 121.52 370.44 121.41C371.696 121.29 372.913 120.911 374.014 120.296C375.116 119.682 376.078 118.845 376.84 117.84C377.936 117.843 379.02 117.608 380.017 117.15C381.013 116.693 381.898 116.024 382.61 115.19C382.595 115.466 382.595 115.744 382.61 116.02C382.73 118.2 384.04 121.02 386.56 120.9C389.81 120.72 393.35 116.67 395.14 114.21L394.68 112.59ZM373.45 114.41C373.509 115.095 373.721 115.758 374.07 116.35C373.14 117.35 372.29 118.16 370.88 118.24C369.81 118.3 368.98 117.96 368.88 116.72C368.904 115.248 369.446 113.832 370.41 112.72C371.805 111.429 373.337 110.296 374.98 109.34C375.18 109.39 373.32 112.19 373.45 114.41Z" fill="white"/>
<path opacity="0.7" d="M238.58 110.4C238.11 110.4 236.78 111.87 236.5 112.19L233.5 115.19C232.65 116.01 231.57 117.35 231.64 118.64C231.644 118.943 231.717 119.241 231.853 119.512C231.989 119.783 232.185 120.019 232.426 120.203C232.666 120.387 232.946 120.514 233.243 120.574C233.54 120.634 233.847 120.626 234.14 120.55C239.48 119.44 249.89 107.9 249.27 102.15C248.99 99.47 247.27 98.15 244.69 98.34C239.61 98.62 231.02 105.95 227.58 109.61C223.41 113.99 218.58 121.03 218.88 127.31C219.15 132.22 222.73 134.98 227.47 134.71C231.47 134.49 238.47 131.54 246.32 123.05C247.85 121.42 248.5 120.78 248.26 118.61C244.4 122.42 235.39 129.95 230.01 130.25C226.93 130.42 225.38 128.7 225.22 125.67C225.04 122.43 226.95 117.57 229.75 113.9C238.69 102.18 243.55 101.74 244.31 101.48C245.07 101.22 245.47 101.55 245.51 102.27C245.59 103.68 243.11 107.67 239.17 111.49L239.08 111.41C239.24 110.67 239 110.38 238.58 110.4Z" fill="white"/>
<path opacity="0.7" d="M302.47 116.76C300.1 118.82 296.55 122.01 293.3 122.19C291.08 122.32 289.98 121.05 289.93 120.07C289.86 118.87 290.59 118.19 291.5 117.45L294.93 114.56C295.02 115.37 295.51 116.42 296.49 116.36C297.64 116.3 300.83 112.82 300.7 110.47C300.728 110.207 300.694 109.941 300.601 109.693C300.508 109.446 300.358 109.223 300.164 109.044C299.97 108.864 299.736 108.732 299.482 108.659C299.228 108.585 298.96 108.572 298.7 108.62C296.31 108.75 292.34 111.28 290.5 112.84C288.66 114.4 287.34 115.72 286.95 117.71L286.9 117.54C285.63 118.54 284.53 120.28 282.63 120.04C283.35 118.33 284.12 116.79 284.02 114.91C283.95 113.63 283.64 112.75 282.34 112.48C282.79 112.2 283.29 111.91 283.26 111.27C283.19 110.12 281.76 109.77 280.82 109.86C277.912 110.248 275.19 111.506 273.01 113.47C272.05 114.178 271.246 115.077 270.647 116.109C270.048 117.141 269.668 118.285 269.53 119.47C267.98 120.84 265.28 123.12 263.91 123.19C263.23 123.19 262.83 123 262.79 122.31C262.69 120.39 265.53 116.85 266.79 115.54C267.44 114.9 268.54 113.85 268.4 112.83C268.1 110.62 267.63 110.52 267.29 110.54C266.22 110.6 262.29 114.89 261.41 115.75L257.41 119.75C255.5 121.66 253.22 123.03 252.41 123.07C252.11 123.07 252.05 122.66 252.03 122.45C251.94 120.65 252.91 119.66 254.18 118.65C255.363 117.723 256.402 116.624 257.26 115.39C257.978 114.75 258.521 113.938 258.84 113.03C258.94 111.74 256.78 112.25 256.18 112.28C255.52 112.277 254.874 112.476 254.33 112.85C251.7 114.85 248.73 119.25 248.96 123.39C249.06 125.22 250.35 127.55 252.44 127.39C254.79 127.26 257.44 123.25 259.02 121.71L259.11 121.79C258.657 122.951 258.42 124.184 258.41 125.43C258.402 125.784 258.466 126.136 258.597 126.465C258.729 126.794 258.926 127.093 259.177 127.343C259.427 127.594 259.726 127.791 260.055 127.923C260.384 128.055 260.736 128.118 261.09 128.11C263.82 127.96 267.36 124.11 269.61 121.61C270.21 124.92 272.2 126.72 274.24 126.61C275.496 126.49 276.713 126.111 277.814 125.496C278.916 124.882 279.878 124.045 280.64 123.04C281.83 123.043 283.004 122.768 284.068 122.237C285.132 121.705 286.058 120.933 286.77 119.98C286.95 123.13 288.7 126.11 291.98 125.92C296.04 125.7 300.59 121.21 303.04 118.29L302.47 116.76ZM277.27 119.76C277.334 120.444 277.546 121.106 277.89 121.7C276.96 122.65 276.11 123.51 274.7 123.59C273.63 123.65 272.8 123.31 272.7 122.07C272.73 120.599 273.271 119.185 274.23 118.07C275.629 116.784 277.161 115.651 278.8 114.69C279 114.72 277.15 117.52 277.27 119.74V119.76Z" fill="white"/>
<path opacity="0.7" d="M277.63 131.91C277.649 131.639 277.599 131.368 277.485 131.122C277.372 130.876 277.198 130.662 276.98 130.5C276.755 130.329 276.494 130.211 276.217 130.154C275.941 130.097 275.655 130.103 275.38 130.17C274.753 130.279 274.183 130.605 273.77 131.09C273.338 131.532 273.091 132.122 273.08 132.74C273.069 133.008 273.122 133.276 273.235 133.519C273.348 133.763 273.518 133.976 273.73 134.14C273.955 134.311 274.216 134.43 274.492 134.489C274.769 134.548 275.055 134.545 275.33 134.48C275.957 134.362 276.525 134.034 276.94 133.55C277.365 133.108 277.611 132.523 277.63 131.91Z" fill="white"/>
<path opacity="0.7" d="M274.62 106.46C276.279 105.624 277.874 104.664 279.39 103.59L281.05 102.51L281.77 103.72C282.348 104.917 283.099 106.022 284 107C284.252 107.147 284.538 107.224 284.83 107.224C285.122 107.224 285.408 107.147 285.66 107C285.771 106.923 285.855 106.813 285.902 106.686C285.948 106.559 285.955 106.421 285.92 106.29C285.845 105.924 285.684 105.581 285.45 105.29C284.899 104.401 284.468 103.443 284.17 102.44C283.841 101.501 283.643 100.522 283.58 99.53C283.5 98.33 282.15 98.26 281.09 99.4C280.187 100.383 279.207 101.292 278.16 102.12C277.038 103.065 275.852 103.93 274.61 104.71C274.164 104.955 273.748 105.25 273.37 105.59C273.14 105.83 272.92 106.09 273.04 106.3C273.27 106.7 274.09 106.65 274.62 106.46Z" fill="white"/>
</g>
</g>
<defs>
<clipPath id="clip0_89_426465">
<rect width="461.5" height="139.67" fill="white"/>
</clipPath>
</defs>
</svg>
