<?xml version="1.0" encoding="utf-8"?>
<!-- Generator: Adobe Illustrator 15.1.0, SVG Export Plug-In . SVG Version: 6.00 Build 0)  -->
<!DOCTYPE svg PUBLIC "-//W3C//DTD SVG 1.1//EN" "http://www.w3.org/Graphics/SVG/1.1/DTD/svg11.dtd">
<svg version="1.1" id="圖層_1" xmlns="http://www.w3.org/2000/svg" xmlns:xlink="http://www.w3.org/1999/xlink" x="0px" y="0px"
	 width="214px" height="64.765px" viewBox="0 0 214 64.765" enable-background="new 0 0 214 64.765" xml:space="preserve">
<g>
	<defs>
		<rect id="SVGID_1_" width="214" height="64.765"/>
	</defs>
	<clipPath id="SVGID_2_">
		<use xlink:href="#SVGID_1_"  overflow="visible"/>
	</clipPath>
	<path clip-path="url(#SVGID_2_)" fill="#233D67" d="M40.979,10.865L28.146,34.127c-0.429,0.771-0.937,1.486-1.524,2.149
		c-0.586,0.662-1.403,1.239-2.451,1.73c-1.048,0.493-2.303,0.739-3.767,0.739c-1.4,0-2.644-0.259-3.729-0.776
		c-1.085-0.517-1.956-1.125-2.612-1.826c-0.657-0.7-1.104-1.321-1.343-1.865L0,10.865h8.838l10.166,18.303
		c0.289,0.53,0.507,0.885,0.653,1.061c0.145,0.178,0.381,0.266,0.709,0.266c0.353,0,0.609-0.096,0.767-0.284
		c0.157-0.189,0.375-0.537,0.652-1.042l10.24-18.303H40.979z"/>
	<path clip-path="url(#SVGID_2_)" fill="#233D67" d="M97.12,10.865L84.287,34.127c-0.429,0.771-0.937,1.486-1.524,2.149
		c-0.586,0.662-1.403,1.239-2.45,1.73c-1.048,0.493-2.304,0.739-3.768,0.739c-1.4,0-2.643-0.259-3.729-0.776
		c-1.086-0.517-1.956-1.125-2.613-1.826c-0.656-0.7-1.104-1.321-1.342-1.865l-12.72-23.413h8.838l10.165,18.303
		c0.29,0.53,0.507,0.885,0.653,1.061c0.145,0.178,0.382,0.266,0.709,0.266c0.353,0,0.608-0.096,0.767-0.284
		c0.158-0.189,0.375-0.537,0.653-1.042l10.24-18.303H97.12z"/>
	<path clip-path="url(#SVGID_2_)" fill="#233D67" d="M136.093,38.007h-8.139v-1.892c-0.215,0.468-0.644,0.899-1.287,1.296
		c-0.644,0.397-1.225,0.596-1.742,0.596h-22.05c-0.595,0-1.19-0.153-1.79-0.462c-0.599-0.31-1.088-0.743-1.467-1.297
		c-0.379-0.556-0.574-1.181-0.586-1.874c-0.014-1.338-0.029-3.029-0.048-5.072c-0.019-2.044-0.028-3.124-0.028-3.237
		c0-1.526,0.407-2.729,1.221-3.605c0.813-0.877,1.764-1.316,2.85-1.316h20.857c0.959,0,1.798,0.247,2.519,0.739
		c0.719,0.491,1.236,0.983,1.552,1.476v-2.472c0-0.516-0.155-1.041-0.464-1.575c-0.31-0.534-0.748-0.979-1.315-1.329
		c-0.567-0.353-1.231-0.529-1.988-0.529H99.221v-6.587h28.146c1.187,0,2.309,0.291,3.369,0.871s1.993,1.335,2.802,2.262
		c0.807,0.927,1.435,1.89,1.882,2.887c0.448,0.996,0.673,1.886,0.673,2.669V38.007z M126.402,29.566
		c0-0.341-0.127-0.653-0.379-0.937c-0.253-0.284-0.565-0.512-0.938-0.683c-0.373-0.17-0.672-0.255-0.899-0.255h-15.388
		c-0.707,0-1.199,0.24-1.477,0.72c-0.278,0.479-0.416,0.851-0.416,1.115c0,0.556,0.18,1.004,0.539,1.345s0.722,0.511,1.089,0.511
		h16.088c0.354,0,0.739-0.185,1.155-0.558C126.193,30.453,126.402,30.033,126.402,29.566"/>
	<path clip-path="url(#SVGID_2_)" fill="#FF7144" d="M46.079,8.522c-0.706-0.41-1.266-0.966-1.681-1.672s-0.623-1.474-0.623-2.304
		c0-0.831,0.208-1.592,0.623-2.284c0.415-0.691,0.976-1.242,1.681-1.651C46.785,0.205,47.56,0,48.405,0
		c0.816,0,1.57,0.205,2.263,0.611c0.692,0.41,1.245,0.964,1.661,1.661c0.415,0.7,0.622,1.457,0.622,2.274
		c0,0.83-0.207,1.598-0.622,2.304c-0.416,0.706-0.969,1.262-1.661,1.672c-0.693,0.407-1.447,0.612-2.263,0.612
		C47.56,9.134,46.785,8.93,46.079,8.522"/>
	<rect x="44.501" y="10.961" clip-path="url(#SVGID_2_)" fill="#233D67" width="7.702" height="28.021"/>
	<path clip-path="url(#SVGID_2_)" fill="#FF5E00" d="M175.701,26.406c-0.278-0.674-0.657-1.333-1.128-1.962l-0.993-0.854
		c0.147-0.228,0.302-0.457,0.462-0.69c0.332-0.484,0.579-0.992,0.732-1.511c0.135-0.455,0.265-0.904,0.387-1.346l0.025-0.092v-0.094
		c0-0.705-0.019-1.418-0.056-2.12c-0.041-0.772-0.23-1.513-0.562-2.199c-0.307-0.641-0.658-1.24-1.046-1.784l-0.052-0.063
		c-0.511-0.563-1.073-1.03-1.672-1.389c-0.582-0.35-1.207-0.646-1.86-0.882c-0.631-0.226-1.255-0.417-1.854-0.567l-17.768-0.021
		l-1.684,0.484c-0.593,0.171-1.147,0.4-1.649,0.684c-0.487,0.277-0.983,0.627-1.474,1.041l-0.06,0.057
		c-0.39,0.416-0.747,0.872-1.063,1.358c-0.319,0.494-0.587,1.023-0.796,1.574c-0.211,0.554-0.359,1.119-0.44,1.682l-0.006,0.053
		c-0.052,0.751-0.025,1.501,0.079,2.226c0.106,0.757,0.339,1.483,0.692,2.16c0.24,0.463,0.522,0.903,0.842,1.315
		c-0.521,0.479-0.966,0.989-1.327,1.513c-0.381,0.551-0.703,1.167-0.954,1.829c-0.254,0.668-0.41,1.333-0.464,1.993
		c-0.051,0.806-0.051,1.615,0,2.407c0.054,0.851,0.266,1.678,0.629,2.459c0.353,0.76,0.813,1.467,1.367,2.102l0.032,0.034
		c0.553,0.554,1.167,1.026,1.822,1.405c0.651,0.379,1.334,0.678,2.029,0.888c0.684,0.207,1.409,0.351,2.158,0.429l18.2,0.003
		l0.042-0.005c0.597-0.074,1.199-0.177,1.794-0.304c0.623-0.132,1.239-0.339,1.83-0.615c0.603-0.283,1.164-0.641,1.688-1.083
		c0.551-0.498,1.042-1.063,1.46-1.677c0.428-0.628,0.753-1.306,0.968-2.017c0.208-0.69,0.34-1.398,0.393-2.104l0.002-0.052
		c0-0.733-0.052-1.461-0.154-2.164C176.171,27.788,175.978,27.08,175.701,26.406 M167.266,16.022
		c0.231,0.045,0.469,0.097,0.711,0.159c0.215,0.057,0.433,0.149,0.644,0.272c0.226,0.134,0.446,0.286,0.657,0.451
		c0.155,0.159,0.281,0.31,0.384,0.457c0.091,0.134,0.155,0.27,0.195,0.414l0.172,0.625c-0.088,1.563-0.806,2.376-2.315,2.624
		l-17.095,0.072c-0.215-0.062-0.427-0.132-0.632-0.21c-0.222-0.084-0.431-0.181-0.62-0.286c-0.159-0.088-0.331-0.197-0.513-0.325
		l-0.445-0.973v-0.908c0-0.282,0.044-0.521,0.133-0.705c0.101-0.212,0.227-0.426,0.374-0.637c0.207-0.162,0.436-0.326,0.681-0.491
		c0.239-0.158,0.478-0.278,0.71-0.356c0.233-0.077,0.486-0.139,0.751-0.184H167.266z M149.425,26.79
		c0.29-0.112,0.575-0.232,0.851-0.356h17.829c0.211,0.065,0.44,0.14,0.688,0.222c0.252,0.084,0.48,0.179,0.678,0.282
		c0.184,0.098,0.377,0.226,0.574,0.382c0.233,0.233,0.437,0.465,0.604,0.685c0.15,0.197,0.258,0.4,0.332,0.624
		c0.082,0.243,0.146,0.536,0.189,0.872c0.021,0.171,0.029,0.647-0.164,1.94c-0.513,0.957-1.383,1.566-2.656,1.86l-18.346-0.037
		c-0.236-0.045-0.474-0.099-0.708-0.16c-0.221-0.058-0.438-0.149-0.648-0.275c-0.226-0.132-0.445-0.282-0.654-0.448
		c-0.196-0.199-0.338-0.389-0.422-0.566c-0.101-0.21-0.185-0.438-0.247-0.679c-0.062-0.238-0.115-0.509-0.16-0.806
		c0.003-0.329,0.029-0.647,0.082-0.946c0.051-0.298,0.135-0.584,0.246-0.851c0.113-0.267,0.241-0.535,0.381-0.801
		c0.206-0.195,0.437-0.369,0.687-0.518C148.853,27.04,149.143,26.897,149.425,26.79"/>
	<path clip-path="url(#SVGID_2_)" fill="#FF5E00" d="M213.845,28.508c-0.104-0.724-0.296-1.432-0.573-2.102
		c-0.277-0.673-0.656-1.332-1.128-1.962l-0.993-0.854c0.146-0.226,0.301-0.456,0.462-0.69c0.332-0.483,0.579-0.991,0.734-1.513
		c0.134-0.454,0.263-0.902,0.386-1.344l0.025-0.091v-0.095c0-0.698-0.019-1.411-0.056-2.12c-0.041-0.772-0.23-1.512-0.562-2.199
		c-0.307-0.641-0.658-1.24-1.047-1.784l-0.051-0.063c-0.508-0.563-1.071-1.03-1.673-1.39c-0.582-0.35-1.208-0.646-1.858-0.882
		c-0.628-0.225-1.253-0.416-1.856-0.567l-17.767-0.021l-1.684,0.484c-0.596,0.172-1.15,0.401-1.649,0.684
		c-0.486,0.276-0.981,0.626-1.474,1.04l-0.061,0.058c-0.39,0.416-0.747,0.872-1.063,1.358c-0.32,0.495-0.588,1.025-0.797,1.574
		c-0.21,0.552-0.359,1.118-0.44,1.682l-0.005,0.053c-0.053,0.754-0.025,1.504,0.079,2.226c0.105,0.755,0.338,1.482,0.692,2.16
		c0.239,0.462,0.521,0.902,0.841,1.315c-0.518,0.478-0.963,0.986-1.327,1.514c-0.383,0.555-0.703,1.17-0.954,1.828
		c-0.253,0.667-0.409,1.332-0.464,1.993c-0.051,0.806-0.051,1.615,0,2.407c0.054,0.851,0.266,1.679,0.63,2.459
		c0.353,0.76,0.813,1.467,1.367,2.102l0.032,0.034c0.553,0.554,1.166,1.026,1.822,1.405c0.65,0.379,1.333,0.678,2.029,0.888
		c0.683,0.206,1.408,0.351,2.158,0.429l18.199,0.003l0.043-0.005c0.596-0.074,1.198-0.177,1.793-0.304
		c0.622-0.132,1.238-0.339,1.831-0.615c0.603-0.283,1.164-0.641,1.688-1.083c0.551-0.498,1.041-1.063,1.459-1.677
		c0.428-0.628,0.754-1.306,0.969-2.017c0.207-0.688,0.339-1.396,0.393-2.104L214,30.671C214,29.94,213.948,29.212,213.845,28.508
		 M204.836,16.022c0.232,0.045,0.47,0.097,0.711,0.159c0.216,0.057,0.433,0.149,0.644,0.272c0.225,0.134,0.445,0.285,0.657,0.452
		c0.156,0.159,0.283,0.31,0.385,0.456c0.092,0.136,0.155,0.271,0.194,0.414l0.173,0.625c-0.088,1.563-0.807,2.377-2.316,2.624
		l-17.094,0.072c-0.216-0.062-0.423-0.131-0.632-0.21c-0.223-0.085-0.433-0.181-0.62-0.285c-0.159-0.089-0.331-0.198-0.514-0.326
		l-0.445-0.973v-0.908c0-0.282,0.045-0.521,0.133-0.705c0.102-0.213,0.228-0.427,0.374-0.637c0.205-0.161,0.434-0.325,0.681-0.491
		c0.239-0.158,0.478-0.278,0.709-0.355c0.235-0.078,0.487-0.14,0.753-0.185H204.836z M186.995,26.79
		c0.291-0.112,0.575-0.231,0.851-0.356h17.829c0.211,0.065,0.44,0.14,0.688,0.222c0.253,0.084,0.481,0.179,0.679,0.283
		c0.182,0.096,0.375,0.224,0.574,0.381c0.232,0.233,0.436,0.465,0.604,0.685c0.151,0.197,0.259,0.4,0.332,0.622
		c0.083,0.247,0.146,0.54,0.189,0.874c0.022,0.17,0.03,0.646-0.163,1.94c-0.513,0.957-1.383,1.565-2.657,1.86l-18.346-0.037
		c-0.235-0.045-0.474-0.099-0.708-0.16c-0.224-0.059-0.435-0.147-0.647-0.275c-0.227-0.132-0.447-0.283-0.654-0.447
		c-0.196-0.2-0.338-0.389-0.423-0.568c-0.101-0.21-0.184-0.438-0.246-0.679c-0.062-0.234-0.115-0.505-0.16-0.805
		c0.003-0.329,0.029-0.647,0.082-0.947c0.051-0.297,0.134-0.583,0.246-0.85c0.113-0.267,0.24-0.535,0.381-0.801
		c0.206-0.196,0.437-0.37,0.687-0.518C186.424,27.04,186.714,26.897,186.995,26.79"/>
	<path clip-path="url(#SVGID_2_)" fill="#FF5E00" d="M37.384,57.139l1.992-2.752c1.385-1.904,1.502-2.288,1.467-2.922
		c-0.012-0.217-0.104-0.451-0.362-0.437c-0.416,0.023-1.187,1.178-1.407,1.508L35.74,57.23l-3.03,0.525l2.106-2.501
		c0.745-0.895,1.868-2.148,1.799-3.377c-0.054-0.971-0.602-1.914-2.246-1.822c-1.703,0.095-4.171,0.707-5.786,1.334
		c-1.109,0.419-4.355,1.69-5.024,2.543c-0.33,0.494-0.584,1.641-0.553,2.215c0.02,0.356,0.189,0.903,0.645,0.879
		c0.276-0.016,0.545-0.189,0.777-0.322c1.328-0.769,1.188-0.78,2.645-1.377c0.233-0.093,0.484-0.227,0.468-0.503
		c-0.01-0.179-0.151-0.23-0.293-0.282c3.172-1.526,5.627-2.397,6.677-2.456c0.238-0.012,0.698,0.042,0.717,0.397
		c0.022,0.396-0.514,1.121-0.756,1.413c-1.633,2.076-2.973,3.7-3.685,4.475c-2.979,0.741-2.991,0.881-3.208,0.893
		c-0.159,0.009-0.324-0.121-0.463-0.112c-0.535,0.028-1.051,1.109-1.025,1.565c0.037,0.673,0.685,0.896,2.065,0.7
		c-0.248,0.551-1.578,1.994-1.547,2.549c0.025,0.455,0.582,0.821,1.017,0.797c0.476-0.025,0.867-0.842,1.086-1.191l1.925-2.53
		l3.618-0.677c-0.656,1.427-0.922,2.355-0.989,2.955c-0.065,0.6,0.068,0.87,0.412,0.971c0.525,0.148,1.481-0.878,2.123-0.773
		c-0.101-0.372-0.264-0.82-0.284-1.177c-0.032-0.594,0.648-1.564,0.917-2.097c0.809-0.104,1.426-0.079,2.028,0.026
		c0.576-1.064,1.338-2,2.229-2.785C39.266,57.034,38.296,57.108,37.384,57.139"/>
	<path clip-path="url(#SVGID_2_)" fill="#FF5E00" d="M41.598,54.661c0.711-0.079,0.95-0.072,1.688-0.015
		c0.559,0.049,1.378,0.143,1.904,0.313c0.203,0.067,0.464,0.133,0.662,0.122c0.139-0.008,0.276-0.035,0.268-0.194
		c-0.017-0.297-0.354-0.636-0.6-0.78c-0.513-0.29-1.839-0.574-2.444-0.719l-1.188-0.293c-0.201-0.048-0.402-0.096-0.62-0.084
		c-0.495,0.027-0.392,0.459-0.408,0.877C40.845,54.702,40.789,54.767,41.598,54.661"/>
	<path clip-path="url(#SVGID_2_)" fill="#FF5E00" d="M57.322,59.173c-0.82,0.621-1.892,1.694-2.724,1.74
		c-0.317,0.017-0.621-0.104-0.64-0.44c-0.052-0.932,1.593-2.413,1.559-3.047c-0.024-0.436-0.234-0.643-0.62-0.779
		c0.175-0.07,0.679-0.297,0.666-0.534c-0.014-0.238-0.43-0.95-1.34-0.879c-1.926,0.156-5.766,2.171-6.818,4.275
		c-0.474,0.458-0.95,0.974-1.675,0.882c0.333-0.793,0.69-1.508,0.643-2.379c-0.033-0.594-0.175-1.004-0.778-1.129
		c0.211-0.131,0.442-0.263,0.426-0.56c-0.03-0.535-0.695-0.696-1.129-0.653c-1.205,0.127-2.6,0.74-3.622,1.671
		c-1.062,0.913-1.74,1.944-1.618,3.427c0.179,1.798,1.187,2.774,2.217,2.718c1.247-0.068,2.183-0.757,2.967-1.654
		c1.007-0.056,1.721-0.333,2.342-0.892c0.234,0.975,1.318,2.039,1.832,2.011c0.455-0.025,1.666-1.125,2.025-1.442l1.741-1.566
		l0.042,0.037c-0.228,0.549-0.646,1.625-0.61,2.259c0.033,0.574,0.355,1.033,1.008,0.996c0.971-0.053,3.507-2.319,4.305-3.336
		L57.322,59.173z M43.259,60.25c0.019,0.337,0.131,0.588,0.288,0.897c-0.433,0.44-0.828,0.841-1.481,0.877
		c-0.495,0.027-0.88-0.13-0.913-0.705c-0.034-0.612,0.299-1.405,0.711-1.865c0.563-0.608,1.467-1.135,2.118-1.568
		C44.063,57.92,43.202,59.221,43.259,60.25 M49.028,61.5c-0.294,0.075-0.393-0.276-0.417-0.375c-0.055-0.97,0.453-2.21,5.086-3.917
		l0.042,0.038C50.038,61.424,49.42,61.398,49.028,61.5"/>
	<path clip-path="url(#SVGID_2_)" fill="#FF5E00" d="M78.716,49.148c-0.626-0.184-2.336,2.295-2.049,3.53
		c-3.776,6.783-4.679,7.33-5.204,7.538c-0.428,0.163-0.591-0.643-0.579-1.12c0.008-0.577,0.583-2.376,3.816-8.216
		c0.199-0.348,0.691-1.15,0.668-1.546c-0.015-0.278-0.7-1.531-1.412-1.473c-1.423,0.119-7.196,3.479-8.211,4.527
		c-0.658,0.672-0.92,1.66-0.87,2.591c0.014,0.237,0.118,1.046,0.495,1.025c0.316-0.018,1.481-0.877,3.263-1.333
		c0.156-0.048,0.866-0.147,0.85-0.444c-0.017-0.297-0.646-0.162-0.803-0.153l-1.105,0.12l-0.042-0.037
		c1.451-1.411,3.225-2.384,4.96-3.334l0.042,0.038c-3.418,6.426-3.642,8.146-3.617,8.94c0.043,1.486,1.597,2.651,2.389,2.608
		c1.069-0.06,2.766-2.776,3.354-3.644C79.344,51.875,79.604,49.397,78.716,49.148"/>
	<path clip-path="url(#SVGID_2_)" fill="#FF5E00" d="M79.978,52.535c0.71-0.079,0.949-0.072,1.687-0.015
		c0.56,0.049,1.378,0.144,1.904,0.313c0.203,0.067,0.464,0.133,0.663,0.121c0.139-0.007,0.276-0.034,0.268-0.193
		c-0.017-0.297-0.354-0.636-0.6-0.78c-0.513-0.29-1.84-0.574-2.443-0.72l-1.188-0.291c-0.202-0.049-0.402-0.098-0.621-0.085
		c-0.495,0.027-0.392,0.459-0.408,0.876C79.225,52.576,79.168,52.641,79.978,52.535"/>
	<path clip-path="url(#SVGID_2_)" fill="#FF5E00" d="M94.823,56.619c-0.588,0.489-1.102,1.272-1.981,1.162
		c0.333-0.793,0.69-1.508,0.643-2.379c-0.033-0.595-0.175-1.004-0.777-1.13c0.211-0.131,0.442-0.262,0.426-0.559
		c-0.029-0.536-0.693-0.697-1.129-0.653c-1.204,0.126-2.601,0.74-3.621,1.671c-0.944,0.812-1.581,1.718-1.626,2.951
		c-0.791,0.63-1.764,1.547-2.534,1.59c-0.316,0.017-0.621-0.105-0.64-0.442c-0.051-0.931,1.595-2.411,1.56-3.045
		c-0.024-0.437-0.235-0.643-0.62-0.781c0.175-0.068,0.679-0.295,0.665-0.533c-0.013-0.237-0.43-0.949-1.339-0.879
		c-2.294,0.187-7.302,3.007-7.086,5.477c0.096,1.029,1.318,2.271,1.872,2.241c0.456-0.026,1.666-1.125,2.026-1.443l1.74-1.565
		l0.042,0.036c-0.227,0.55-0.644,1.625-0.609,2.259c0.031,0.574,0.354,1.034,1.008,0.997c0.869-0.048,2.99-1.867,3.998-2.979
		c0.292,1.501,1.203,2.313,2.141,2.262c1.247-0.068,2.183-0.757,2.968-1.654c1.445-0.08,2.291-0.604,3.119-1.782L94.823,56.619z
		 M78.654,59.858c-0.293,0.075-0.392-0.276-0.417-0.374c-0.054-0.971,0.454-2.211,5.086-3.917l0.042,0.038
		C79.663,59.783,79.046,59.757,78.654,59.858 M90.371,57.641c0.019,0.337,0.132,0.589,0.288,0.897
		c-0.433,0.441-0.827,0.841-1.481,0.876c-0.495,0.028-0.881-0.13-0.912-0.704c-0.034-0.613,0.299-1.406,0.71-1.866
		c0.563-0.607,1.467-1.134,2.118-1.567C91.175,55.312,90.313,56.61,90.371,57.641"/>
	<path clip-path="url(#SVGID_2_)" fill="#FF5E00" d="M154.977,49.513c0.131-0.146,0.749-0.815,0.968-0.828
		c0.197-0.011,0.304,0.122,0.222,0.444l0.042,0.038c1.829-1.771,2.979-3.622,2.942-4.275c-0.019-0.336-0.244-0.463-0.557-0.366
		c-0.352,0.118-2.604,0.323-6.753,5.757c-1.296,1.7-2.185,3.954-2.101,5.46c0.077,1.405,0.797,2.2,2.223,2.121
		c2.495-0.138,6.672-3.627,8.461-5.396c0.115,1.008-0.186,1.303-0.898,2.057c-3.655,3.938-6.877,5.308-8.738,5.41
		c-2.198,0.121-3.858-1.157-3.984-3.434c-0.162-2.911,2.101-6.175,4.034-8.209c1.595-1.697,5.577-5.096,7.935-5.227
		c1.187-0.066,1.994,0.525,2.123,1.769c0.287,2.667-4.541,8.02-7.016,8.533c-0.57,0.111-1.126-0.255-1.161-0.889
		c-0.033-0.595,0.469-1.218,0.864-1.597L154.977,49.513z"/>
	<path clip-path="url(#SVGID_2_)" fill="#FF5E00" d="M184.664,54.722c-0.038-0.693,0.303-2.441,1.016-2.48
		c0.692-0.038,1.26,0.526,1.297,1.199c0.039,0.693-0.279,2.121-1.189,2.172C185.271,55.641,184.692,55.236,184.664,54.722
		 M188.541,42.569c0.155-0.407,0.299-1.031,0.814-1.059c0.218-0.012,0.642,0.103,0.841,0.132c0.202,0.049,0.781,0.096,0.798,0.412
		c0.02,0.337-0.354,1.132-0.495,1.458l-3.162,7.107c0.066,0.115,0.112,0.212,0.118,0.331c0.02,0.356-0.209,0.886-0.605,0.907
		c-0.455,0.026-1.221-0.527-1.246-1.003c-0.026-0.455,0.343-1.33,0.497-1.757L188.541,42.569z"/>
	<path clip-path="url(#SVGID_2_)" fill="#FF5E00" d="M181.869,48.361c0.852-0.049,1.53-1.059,1.486-1.852
		c-0.02-0.356-0.331-0.597-0.688-0.576c-0.771,0.042-1.684,0.808-1.639,1.62C181.056,48.028,181.394,48.387,181.869,48.361"/>
	<path clip-path="url(#SVGID_2_)" fill="#FF5E00" d="M183.016,52.21c-0.76,0.618-1.732,1.725-2.782,1.782
		c-0.91,0.052-1.231-0.368-1.118-1.188c0.8-0.621,2.663-2.491,2.607-3.481c-0.023-0.436-0.564-0.524-0.901-0.506
		c-0.922,0.051-2.537,1.566-3.153,3.372l-0.046-0.156c-0.589,0.489-1.102,1.272-1.981,1.162c0.334-0.793,0.691-1.508,0.643-2.379
		c-0.021-0.399-0.097-0.712-0.324-0.914c0.222-0.053,0.452-0.179,0.594-0.297c0.444-0.386,1.157-1.54,1.496-2.06l0.674-1.021
		c0.113-0.174,0.227-0.347,0.288-0.557c0.14-0.476-0.301-0.522-0.688-0.679c-0.763-0.287-0.805-0.361-0.977,0.436
		c-0.164,0.696-0.25,0.919-0.553,1.596c-0.226,0.492-0.571,1.196-0.896,1.64c-0.146-0.4-0.708-0.523-1.094-0.485
		c-1.204,0.126-2.601,0.741-3.622,1.671c-0.969,0.834-1.61,1.77-1.623,3.054c-0.644,0.492-1.785,1.386-2.359,1.417
		c-0.238,0.013-0.445-0.134-0.459-0.391c-0.012-0.198-0.073-0.255,1.072-1.808c0.222-0.291,0.966-1.206,0.944-1.582
		c-0.024-0.455-0.527-0.924-1.003-0.897c-1.089,0.06-4.518,3.429-5.445,4.254l-0.043-0.772c1.198-1.317,7.134-8.201,7.06-9.548
		c-0.022-0.396-0.565-0.505-0.881-0.487c-0.674,0.037-4.423,3.721-6.546,7.711c-0.63,1.168-1.092,2.146-1.017,3.514
		c0.025,0.455,0.209,1.995,0.902,1.956c0.635-0.035,1.508-2.188,4.767-4.693l0.041,0.037c-0.661,0.97-1.944,2.552-1.875,3.799
		c0.029,0.534,0.375,1.031,0.969,0.999c0.985-0.055,2.95-1.755,3.962-2.63c0.303,1.471,1.206,2.265,2.133,2.213
		c1.247-0.069,2.184-0.757,2.968-1.654c1.192-0.065,1.975-0.44,2.678-1.229c-0.007,0.129-0.01,0.258-0.002,0.387
		c0.056,1.01,0.664,2.326,1.833,2.262c1.505-0.084,3.148-1.963,3.979-3.101L183.016,52.21z M173.17,53.053
		c0.019,0.338,0.132,0.59,0.287,0.898c-0.432,0.441-0.826,0.841-1.479,0.877c-0.496,0.027-0.882-0.131-0.913-0.704
		c-0.034-0.614,0.299-1.407,0.71-1.868c0.563-0.606,1.467-1.133,2.119-1.566C173.975,50.725,173.113,52.023,173.17,53.053"/>
	<path clip-path="url(#SVGID_2_)" fill="#FF5E00" d="M110.633,51.194c-0.218,0.012-0.836,0.682-0.967,0.828l-1.395,1.368
		c-0.396,0.38-0.897,1.004-0.865,1.598c0.035,0.634,0.592,1.001,1.162,0.89c2.474-0.516,7.303-5.868,7.016-8.533
		c-0.129-1.244-0.937-1.835-2.124-1.769c-2.356,0.13-6.34,3.528-7.934,5.226c-1.934,2.034-4.196,5.298-4.035,8.209
		c0.127,2.276,1.786,3.556,3.984,3.434c1.861-0.103,5.083-1.473,8.738-5.41c0.713-0.755,1.015-1.049,0.898-2.057
		c-1.788,1.769-5.966,5.258-8.46,5.396c-1.426,0.079-2.146-0.716-2.223-2.121c-0.084-1.506,0.804-3.759,2.101-5.461
		c4.148-5.433,6.401-5.638,6.753-5.756c0.312-0.097,0.537,0.03,0.556,0.366c0.036,0.654-1.112,2.505-2.941,4.275l-0.042-0.038
		C110.938,51.316,110.831,51.184,110.633,51.194"/>
	<path clip-path="url(#SVGID_2_)" fill="#FF5E00" d="M140.255,54.142c-1.1,0.955-2.745,2.437-4.25,2.52
		c-1.029,0.058-1.539-0.53-1.564-0.986c-0.03-0.553,0.31-0.87,0.728-1.212l1.594-1.339c0.042,0.375,0.267,0.859,0.723,0.834
		c0.534-0.029,2.014-1.641,1.954-2.73c-0.033-0.595-0.328-0.896-0.941-0.861c-1.109,0.062-2.951,1.235-3.806,1.958
		c-0.919,0.777-1.464,1.335-1.644,2.258l-0.023-0.079c-0.589,0.489-1.102,1.272-1.981,1.162c0.334-0.793,0.69-1.508,0.643-2.38
		c-0.032-0.594-0.175-1.003-0.777-1.129c0.211-0.13,0.442-0.263,0.426-0.56c-0.029-0.534-0.694-0.696-1.129-0.652
		c-1.204,0.126-2.6,0.74-3.621,1.671c-0.905,0.777-1.525,1.643-1.616,2.8c-0.719,0.636-1.97,1.689-2.604,1.725
		c-0.316,0.017-0.502-0.093-0.52-0.408c-0.049-0.891,1.271-2.534,1.872-3.143c0.302-0.296,0.811-0.78,0.745-1.253
		c-0.136-1.025-0.357-1.073-0.516-1.064c-0.495,0.028-2.331,2.016-2.727,2.416l-1.862,1.87c-0.885,0.883-1.942,1.519-2.299,1.538
		c-0.139,0.008-0.169-0.188-0.175-0.288c-0.046-0.832,0.405-1.294,0.995-1.764c0.741-0.597,0.85-0.781,1.426-1.509
		c0.208-0.19,0.712-0.775,0.733-1.094c0.046-0.599-0.954-0.364-1.23-0.349c-0.336,0.019-0.592,0.072-0.859,0.266
		c-1.221,0.901-2.597,2.965-2.49,4.886c0.047,0.851,0.643,1.931,1.613,1.877c1.089-0.061,2.317-1.916,3.052-2.633l0.043,0.038
		c-0.17,0.525-0.357,1.093-0.324,1.687c0.039,0.692,0.508,1.282,1.241,1.241c1.265-0.069,2.907-1.863,3.948-3.013
		c0.28,1.536,1.202,2.371,2.151,2.318c1.246-0.069,2.183-0.757,2.967-1.654c1.286-0.071,2.096-0.496,2.842-1.418
		c0.085,1.462,0.896,2.84,2.417,2.755c1.882-0.104,3.991-2.188,5.128-3.542L140.255,54.142z M128.572,55.523
		c0.019,0.337,0.132,0.589,0.288,0.898c-0.433,0.441-0.827,0.84-1.48,0.876c-0.496,0.028-0.882-0.13-0.913-0.703
		c-0.034-0.614,0.299-1.408,0.71-1.867c0.563-0.607,1.467-1.134,2.119-1.567C129.376,53.195,128.516,54.494,128.572,55.523"/>
	<path clip-path="url(#SVGID_2_)" fill="#FF5E00" d="M128.74,61.165c0.005-0.275-0.096-0.493-0.302-0.651
		c-0.202-0.156-0.449-0.207-0.741-0.153c-0.293,0.054-0.542,0.196-0.749,0.428c-0.211,0.234-0.317,0.491-0.319,0.767
		c-0.001,0.274,0.1,0.489,0.302,0.646c0.206,0.16,0.453,0.212,0.741,0.159s0.538-0.198,0.749-0.434
		C128.628,61.694,128.734,61.441,128.74,61.165"/>
	<path clip-path="url(#SVGID_2_)" fill="#FF5E00" d="M127.343,49.367c0.51-0.187,1.675-0.979,2.211-1.33l0.772-0.501l0.33,0.561
		c0.228,0.391,0.696,1.271,1.031,1.502c0.166,0.107,0.513,0.17,0.769,0.003c0.138-0.09,0.138-0.216,0.12-0.33
		c-0.023-0.165-0.124-0.333-0.217-0.452c-0.234-0.314-0.453-0.908-0.591-1.322c-0.175-0.551-0.222-0.736-0.275-1.349
		c-0.038-0.559-0.663-0.592-1.153-0.062c-0.551,0.58-0.746,0.753-1.362,1.261c-0.468,0.382-1.161,0.927-1.643,1.203
		c-0.186,0.104-0.418,0.255-0.575,0.41c-0.109,0.106-0.213,0.228-0.154,0.327C126.715,49.475,127.098,49.453,127.343,49.367"/>
</g>
</svg>
