<svg xmlns="http://www.w3.org/2000/svg" viewBox="0 0 461.5 139.67"><defs><style>.cls-1{fill:#233d67;}.cls-2{fill:#ff7144;}.cls-3{fill:#ff5e00;}</style></defs><g id="圖層_2" data-name="圖層 2"><g id="圖層_1-2" data-name="圖層 1"><path class="cls-1" d="M88.37,23.43,60.7,73.6a26.28,26.28,0,0,1-3.29,4.63A16.2,16.2,0,0,1,52.13,82,19,19,0,0,1,44,83.56a18.41,18.41,0,0,1-8-1.68,18.21,18.21,0,0,1-5.63-3.94,15.14,15.14,0,0,1-2.9-4L0,23.43H19.06L41,62.9a17.43,17.43,0,0,0,1.41,2.29,1.87,1.87,0,0,0,1.53.57,2,2,0,0,0,1.65-.61A16,16,0,0,0,47,62.9L69.07,23.43Z"/><path class="cls-1" d="M209.44,23.43,181.77,73.6a26.28,26.28,0,0,1-3.29,4.63A16.2,16.2,0,0,1,173.2,82a19,19,0,0,1-8.13,1.59,18.41,18.41,0,0,1-8-1.68,18.21,18.21,0,0,1-5.63-3.94,15.14,15.14,0,0,1-2.9-4L121.07,23.43h19.06L162.05,62.9a17.43,17.43,0,0,0,1.41,2.29,1.87,1.87,0,0,0,1.53.57,2,2,0,0,0,1.65-.61,16,16,0,0,0,1.41-2.25l22.09-39.47Z"/><path class="cls-1" d="M293.49,82H275.94V77.89a6.89,6.89,0,0,1-2.78,2.79A7.32,7.32,0,0,1,269.41,82H221.85a8.79,8.79,0,0,1-7-3.8,7.16,7.16,0,0,1-1.26-4c0-2.89-.07-6.53-.11-10.94s-.06-6.74-.06-7A11,11,0,0,1,216,48.43a8.12,8.12,0,0,1,6.14-2.83h45a9.38,9.38,0,0,1,5.43,1.59,11.86,11.86,0,0,1,3.35,3.18V45a6.86,6.86,0,0,0-1-3.4,8.26,8.26,0,0,0-2.84-2.86,8,8,0,0,0-4.29-1.14H214V23.43h60.7a15,15,0,0,1,7.27,1.88,22,22,0,0,1,6,4.88A25.42,25.42,0,0,1,292,36.41a14.25,14.25,0,0,1,1.45,5.76Zm-20.9-18.21a3,3,0,0,0-.82-2,6,6,0,0,0-2-1.47,4.94,4.94,0,0,0-1.94-.55H234.63a3.39,3.39,0,0,0-3.19,1.55,5.51,5.51,0,0,0-.89,2.41,3.8,3.8,0,0,0,1.16,2.9,3.45,3.45,0,0,0,2.35,1.1h34.69a3.9,3.9,0,0,0,2.49-1.2A3.59,3.59,0,0,0,272.59,63.76Z"/><path class="cls-2" d="M99.37,18.38a9.8,9.8,0,0,1-3.62-3.61,9.56,9.56,0,0,1-1.35-5,9.34,9.34,0,0,1,1.35-4.92,10,10,0,0,1,3.62-3.56,9.86,9.86,0,0,1,5-1.32,9.46,9.46,0,0,1,4.88,1.32,10.15,10.15,0,0,1,3.58,3.58,9.48,9.48,0,0,1,1.34,4.9,9.65,9.65,0,0,1-1.34,5,10,10,0,0,1-3.58,3.61,9.46,9.46,0,0,1-4.88,1.32A9.86,9.86,0,0,1,99.37,18.38Z"/><rect class="cls-1" x="95.97" y="23.64" width="16.61" height="60.43"/><path class="cls-3" d="M378.91,57a19.05,19.05,0,0,0-2.44-4.23l-2.14-1.85c.32-.49.65-1,1-1.49a11.41,11.41,0,0,0,1.58-3.26c.29-1,.57-1.94.83-2.9l.06-.19v-.21c0-1.52,0-3-.12-4.57a12.48,12.48,0,0,0-1.21-4.74,26.31,26.31,0,0,0-2.26-3.85l-.11-.14a16,16,0,0,0-3.61-3,23,23,0,0,0-4-1.9c-1.36-.49-2.71-.9-4-1.23l-38.31,0-3.64,1A16.79,16.79,0,0,0,317,25.88a21.82,21.82,0,0,0-3.18,2.24l-.13.12a21.76,21.76,0,0,0-2.29,2.93,18.09,18.09,0,0,0-1.72,3.4,17.51,17.51,0,0,0-1,3.63v.11a22.55,22.55,0,0,0,.17,4.8,14.44,14.44,0,0,0,1.49,4.66,18.77,18.77,0,0,0,1.82,2.84,19.1,19.1,0,0,0-2.86,3.26,18,18,0,0,0-2.06,3.94,15.39,15.39,0,0,0-1,4.3,40.85,40.85,0,0,0,0,5.19,14.71,14.71,0,0,0,1.35,5.31,19.82,19.82,0,0,0,2.95,4.53l.07.07a19.29,19.29,0,0,0,3.93,3,20.36,20.36,0,0,0,4.38,1.91,24.87,24.87,0,0,0,4.65.93h39.25l.09,0c1.29-.16,2.59-.38,3.87-.65a17.84,17.84,0,0,0,3.95-1.33,16.54,16.54,0,0,0,3.64-2.33,20.12,20.12,0,0,0,3.15-3.62,15.82,15.82,0,0,0,2.08-4.35,20.91,20.91,0,0,0,.85-4.53v-.12a32.45,32.45,0,0,0-.34-4.66A19.1,19.1,0,0,0,378.91,57Zm-18.2-22.4c.5.1,1,.21,1.54.35a5.87,5.87,0,0,1,1.39.58,13.19,13.19,0,0,1,1.41,1,7,7,0,0,1,.83,1,2.73,2.73,0,0,1,.42.9l.37,1.34c-.19,3.38-1.73,5.13-5,5.66l-36.87.16c-.46-.13-.92-.29-1.36-.46a9.71,9.71,0,0,1-1.34-.61c-.34-.19-.71-.43-1.1-.7l-1-2.1v-2a3.56,3.56,0,0,1,.28-1.52,9.27,9.27,0,0,1,.81-1.37c.45-.35.94-.71,1.47-1.06a6.65,6.65,0,0,1,1.53-.77,11,11,0,0,1,1.62-.4ZM322.24,57.77c.63-.24,1.24-.5,1.83-.76h38.45l1.49.47a10,10,0,0,1,1.46.61,8.81,8.81,0,0,1,1.24.82,16.4,16.4,0,0,1,1.3,1.48,4.53,4.53,0,0,1,.72,1.35,10.87,10.87,0,0,1,.41,1.88,19,19,0,0,1-.36,4.18,8,8,0,0,1-5.73,4l-39.56-.08c-.51-.09-1-.21-1.53-.34a5.58,5.58,0,0,1-1.39-.59,12.17,12.17,0,0,1-1.41-1,4.52,4.52,0,0,1-.91-1.22,8.55,8.55,0,0,1-.54-1.47,16.08,16.08,0,0,1-.34-1.73,12.33,12.33,0,0,1,.17-2,8.05,8.05,0,0,1,.54-1.83c.24-.58.51-1.15.82-1.73a8.17,8.17,0,0,1,1.48-1.11A12.32,12.32,0,0,1,322.24,57.77Z"/><path class="cls-3" d="M461.17,61.48A19,19,0,0,0,459.93,57a19.4,19.4,0,0,0-2.43-4.23l-2.15-1.85c.32-.48.65-1,1-1.49a11.41,11.41,0,0,0,1.58-3.26c.29-1,.57-1.94.84-2.9l.05-.19v-.21c0-1.5,0-3-.12-4.57a12.48,12.48,0,0,0-1.21-4.74,25.44,25.44,0,0,0-2.26-3.85l-.11-.13a15.37,15.37,0,0,0-3.61-3,22.58,22.58,0,0,0-4-1.9c-1.36-.49-2.7-.9-4-1.23l-38.31,0-3.63,1A16.44,16.44,0,0,0,398,25.88a21.08,21.08,0,0,0-3.18,2.24l-.13.13a21.05,21.05,0,0,0-2.29,2.92,18.39,18.39,0,0,0-1.72,3.4,17.51,17.51,0,0,0-.95,3.63v.11a23.2,23.2,0,0,0,.17,4.8,14.22,14.22,0,0,0,1.5,4.66,18.92,18.92,0,0,0,1.81,2.84,19.21,19.21,0,0,0-2.86,3.26,18.42,18.42,0,0,0-2.06,3.94,15.75,15.75,0,0,0-1,4.3,40.85,40.85,0,0,0,0,5.19,14.72,14.72,0,0,0,1.36,5.31,19.17,19.17,0,0,0,2.95,4.53l.07.07a19,19,0,0,0,3.93,3A20.07,20.07,0,0,0,400,82.15a24.82,24.82,0,0,0,4.66.93h39.24l.1,0c1.28-.16,2.58-.38,3.86-.65a17.84,17.84,0,0,0,3.95-1.33,16.54,16.54,0,0,0,3.64-2.33,20.12,20.12,0,0,0,3.15-3.62,16.15,16.15,0,0,0,2.09-4.35,22.06,22.06,0,0,0,.85-4.53v-.12A32.67,32.67,0,0,0,461.17,61.48ZM441.74,34.55c.5.1,1,.21,1.53.35a5.71,5.71,0,0,1,1.39.58,14.4,14.4,0,0,1,1.42,1,8.35,8.35,0,0,1,.82,1,3.09,3.09,0,0,1,.43.9l.37,1.34c-.19,3.38-1.74,5.13-5,5.66l-36.86.16a12.79,12.79,0,0,1-1.36-.46,10.39,10.39,0,0,1-1.34-.61c-.34-.19-.72-.43-1.11-.7l-1-2.1v-2a3.55,3.55,0,0,1,.29-1.52,10.15,10.15,0,0,1,.8-1.37c.45-.35.94-.71,1.47-1.06a6.86,6.86,0,0,1,1.53-.77,11.28,11.28,0,0,1,1.62-.4ZM403.26,57.77c.63-.24,1.24-.5,1.84-.76h38.45l1.48.47a10.18,10.18,0,0,1,1.47.61,9.37,9.37,0,0,1,1.23.82A18.36,18.36,0,0,1,449,60.39a4.82,4.82,0,0,1,.71,1.34,9.71,9.71,0,0,1,.41,1.89,18.58,18.58,0,0,1-.35,4.18,8.07,8.07,0,0,1-5.73,4l-39.57-.08c-.5-.09-1-.21-1.52-.34a5.65,5.65,0,0,1-1.4-.59,12.17,12.17,0,0,1-1.41-1,4.74,4.74,0,0,1-.91-1.22,7.77,7.77,0,0,1-.53-1.47,15.47,15.47,0,0,1-.35-1.73,13.48,13.48,0,0,1,.18-2,8.57,8.57,0,0,1,.53-1.83c.24-.58.52-1.15.82-1.73a8.17,8.17,0,0,1,1.48-1.11A12.8,12.8,0,0,1,403.26,57.77Z"/><path class="cls-3" d="M80.62,123.22l4.3-5.93c3-4.11,3.24-4.94,3.16-6.3,0-.47-.22-1-.78-.95-.9,0-2.56,2.55-3,3.26l-7.19,10.12-6.54,1.13,4.54-5.39c1.61-1.93,4-4.63,3.88-7.28-.11-2.1-1.3-4.13-4.84-3.93a47.21,47.21,0,0,0-12.48,2.87c-2.39.91-9.39,3.65-10.83,5.49a10.26,10.26,0,0,0-1.19,4.78c0,.76.4,1.94,1.39,1.89a4.15,4.15,0,0,0,1.67-.69,30.3,30.3,0,0,1,5.71-3c.5-.2,1-.48,1-1.08,0-.38-.33-.5-.64-.61,6.85-3.29,12.14-5.17,14.4-5.29.52,0,1.51.09,1.55.85s-1.11,2.42-1.63,3c-3.52,4.48-6.41,8-8,9.65-6.42,1.6-6.45,1.9-6.92,1.92s-.7-.26-1-.24c-1.15.07-2.26,2.4-2.21,3.38.08,1.45,1.48,1.93,4.46,1.51-.54,1.18-3.41,4.3-3.34,5.5a2.14,2.14,0,0,0,2.19,1.71c1,0,1.87-1.81,2.35-2.57l4.15-5.45,7.8-1.46a22.45,22.45,0,0,0-2.13,6.37c-.14,1.29.14,1.88.89,2.09,1.13.32,3.19-1.89,4.57-1.66a14.61,14.61,0,0,1-.61-2.54c-.07-1.28,1.4-3.38,2-4.52a14,14,0,0,1,4.37.05,21.93,21.93,0,0,1,4.81-6C84.68,123,82.59,123.16,80.62,123.22Z"/><path class="cls-3" d="M89.71,117.88a14.75,14.75,0,0,1,3.64,0,21.53,21.53,0,0,1,4.1.67,4,4,0,0,0,1.43.26c.3,0,.6-.07.58-.41a2.69,2.69,0,0,0-1.29-1.69,29.52,29.52,0,0,0-5.27-1.55l-2.57-.63a4.5,4.5,0,0,0-1.33-.18c-1.07.06-.85,1-.88,1.89C88.08,118,88,118.11,89.71,117.88Z"/><path class="cls-3" d="M123.62,127.61c-1.77,1.34-4.08,3.65-5.88,3.75-.68,0-1.34-.22-1.38-1-.11-2,3.44-5.2,3.36-6.57a1.71,1.71,0,0,0-1.33-1.68c.38-.15,1.46-.64,1.43-1.15a2.62,2.62,0,0,0-2.89-1.9c-4.15.34-12.43,4.68-14.7,9.22-1,1-2,2.1-3.61,1.91.72-1.71,1.49-3.26,1.38-5.14-.07-1.28-.37-2.16-1.67-2.43.45-.28,1-.57.91-1.21-.06-1.15-1.49-1.5-2.43-1.4a14.42,14.42,0,0,0-7.81,3.6c-2.29,2-3.75,4.19-3.49,7.39.39,3.87,2.56,6,4.78,5.86a9.12,9.12,0,0,0,6.4-3.57,7.68,7.68,0,0,0,5-1.92c.5,2.1,2.84,4.4,4,4.34s3.59-2.43,4.37-3.12l3.75-3.37.09.08a14.25,14.25,0,0,0-1.31,4.87,2,2,0,0,0,2.17,2.15c2.1-.12,7.57-5,9.29-7.2Zm-30.33,2.32a4.6,4.6,0,0,0,.62,1.94,4.82,4.82,0,0,1-3.19,1.89c-1.07.06-1.9-.28-2-1.52a6.26,6.26,0,0,1,1.53-4,25.94,25.94,0,0,1,4.57-3.38C95,124.91,93.17,127.71,93.29,129.93Zm12.44,2.7c-.63.16-.84-.6-.9-.81-.12-2.09,1-4.77,11-8.45l.09.08C107.91,132.46,106.58,132.41,105.73,132.63Z"/><path class="cls-3" d="M169.75,106c-1.35-.4-5,5-4.41,7.61-8.15,14.63-10.09,15.81-11.23,16.26-.92.35-1.27-1.39-1.24-2.41,0-1.25,1.25-5.13,8.22-17.72.43-.75,1.49-2.48,1.45-3.34,0-.6-1.51-3.3-3-3.17-3.07.25-15.52,7.5-17.71,9.76a7.46,7.46,0,0,0-1.87,5.59c0,.51.25,2.25,1.06,2.21s3.2-1.89,7-2.88c.34-.1,1.87-.31,1.83-1s-1.39-.35-1.73-.34l-2.38.26-.09-.08c3.13-3,7-5.14,10.69-7.18l.09.08c-7.37,13.85-7.85,17.56-7.8,19.28.1,3.2,3.45,5.72,5.16,5.62,2.3-.13,6-6,7.23-7.85C171.11,111.87,171.67,106.53,169.75,106Z"/><path class="cls-3" d="M172.47,113.29a15.26,15.26,0,0,1,3.64,0,21.51,21.51,0,0,1,4.11.68,4.55,4.55,0,0,0,1.43.26c.3,0,.59-.08.57-.42a2.61,2.61,0,0,0-1.29-1.68,27.53,27.53,0,0,0-5.27-1.55l-2.56-.63a4.26,4.26,0,0,0-1.34-.18c-1.06.05-.84,1-.88,1.89C170.85,113.38,170.73,113.52,172.47,113.29Z"/><path class="cls-3" d="M204.49,122.1c-1.27,1.06-2.38,2.75-4.27,2.51.72-1.71,1.49-3.25,1.38-5.13-.07-1.28-.37-2.17-1.67-2.44.45-.28.95-.56.92-1.21-.07-1.15-1.5-1.5-2.44-1.4a14.42,14.42,0,0,0-7.81,3.6c-2,1.75-3.41,3.71-3.51,6.37-1.7,1.35-3.8,3.33-5.46,3.42-.68,0-1.34-.22-1.38-.95-.11-2,3.44-5.2,3.36-6.57a1.71,1.71,0,0,0-1.33-1.68c.38-.15,1.46-.64,1.43-1.15a2.62,2.62,0,0,0-2.89-1.9c-4.94.41-15.74,6.49-15.28,11.82.21,2.21,2.85,4.89,4,4.83,1-.06,3.59-2.43,4.37-3.12l3.75-3.37.09.08a14.25,14.25,0,0,0-1.31,4.87,2,2,0,0,0,2.17,2.15c1.88-.11,6.45-4,8.62-6.43.63,3.24,2.6,5,4.62,4.88a9.12,9.12,0,0,0,6.4-3.57,7.87,7.87,0,0,0,6.73-3.84Zm-34.87,7c-.63.16-.84-.6-.9-.81-.12-2.09,1-4.77,11-8.45l.09.08C171.8,128.92,170.47,128.87,169.62,129.09Zm25.27-4.79a4.6,4.6,0,0,0,.62,1.94c-.93,1-1.78,1.81-3.19,1.89-1.07.06-1.9-.28-2-1.52a6.26,6.26,0,0,1,1.53-4,25.88,25.88,0,0,1,4.57-3.37C196.62,119.28,194.77,122.08,194.89,124.3Z"/><path class="cls-3" d="M334.21,106.78c.29-.32,1.62-1.76,2.09-1.79s.66.26.48,1l.09.08c3.94-3.82,6.42-7.81,6.34-9.22,0-.73-.52-1-1.2-.79s-5.61.7-14.56,12.42c-2.79,3.66-4.71,8.52-4.53,11.77.17,3,1.72,4.75,4.79,4.57,5.39-.29,14.39-7.82,18.25-11.63.25,2.17-.4,2.81-1.94,4.43-7.88,8.49-14.83,11.45-18.84,11.67-4.74.26-8.32-2.49-8.59-7.4-.35-6.28,4.53-13.32,8.7-17.71,3.43-3.66,12-11,17.11-11.27,2.56-.14,4.3,1.14,4.58,3.82.62,5.75-9.8,17.29-15.13,18.4a2.05,2.05,0,0,1-2.51-1.92c-.07-1.28,1-2.62,1.87-3.44Z"/><path class="cls-3" d="M398.24,118c-.09-1.5.65-5.26,2.19-5.35a2.71,2.71,0,0,1,2.79,2.59c.09,1.49-.6,4.57-2.56,4.68A2.32,2.32,0,0,1,398.24,118Zm8.35-26.21c.34-.87.65-2.22,1.76-2.28a11.91,11.91,0,0,1,1.82.28c.43.11,1.68.21,1.72.89a11.18,11.18,0,0,1-1.07,3.15L404,109.16a1.56,1.56,0,0,1,.25.72c.05.77-.45,1.91-1.3,2s-2.63-1.14-2.69-2.17a13.6,13.6,0,0,1,1.07-3.79Z"/><path class="cls-3" d="M392.21,104.29c1.83-.1,3.3-2.28,3.2-4a1.34,1.34,0,0,0-1.48-1.24c-1.66.09-3.63,1.74-3.53,3.49A1.71,1.71,0,0,0,392.21,104.29Z"/><path class="cls-3" d="M394.68,112.59c-1.64,1.34-3.73,3.72-6,3.85-2,.11-2.65-.8-2.41-2.57,1.72-1.33,5.74-5.37,5.62-7.5-.05-.94-1.22-1.14-1.94-1.1-2,.11-5.47,3.38-6.8,7.28l-.1-.34c-1.27,1.05-2.38,2.74-4.27,2.51.72-1.71,1.49-3.26,1.38-5.13a2.73,2.73,0,0,0-.7-2,3.34,3.34,0,0,0,1.28-.63,28.81,28.81,0,0,0,3.23-4.45l1.45-2.2a4.27,4.27,0,0,0,.62-1.2c.31-1-.64-1.13-1.48-1.46-1.65-.62-1.73-.78-2.11.94a14.71,14.71,0,0,1-1.19,3.43,21.67,21.67,0,0,1-1.93,3.54c-.32-.86-1.53-1.13-2.36-1a14.42,14.42,0,0,0-7.81,3.6c-2.09,1.8-3.47,3.81-3.5,6.59-1.39,1.06-3.85,3-5.09,3a.89.89,0,0,1-1-.84c0-.43-.16-.55,2.31-3.9.48-.63,2.09-2.6,2-3.41a2.25,2.25,0,0,0-2.16-1.94c-2.35.13-9.75,7.4-11.75,9.18l-.09-1.67c2.59-2.84,15.39-17.69,15.22-20.59,0-.85-1.21-1.09-1.9-1-1.45.08-9.53,8-14.11,16.63-1.36,2.52-2.36,4.63-2.19,7.58.05,1,.45,4.3,1.94,4.21s3.25-4.72,10.28-10.12l.09.08c-1.43,2.09-4.19,5.5-4,8.19a2.06,2.06,0,0,0,2.09,2.16c2.12-.12,6.36-3.79,8.54-5.67.65,3.17,2.6,4.88,4.6,4.77a9.12,9.12,0,0,0,6.4-3.57,7.56,7.56,0,0,0,5.77-2.65,7.66,7.66,0,0,0,0,.83c.12,2.18,1.43,5,3.95,4.88,3.25-.18,6.79-4.23,8.58-6.69Zm-21.23,1.82a4.6,4.6,0,0,0,.62,1.94c-.93,1-1.78,1.81-3.19,1.89-1.07.06-1.9-.28-2-1.52a6.26,6.26,0,0,1,1.53-4,25.94,25.94,0,0,1,4.57-3.38C375.18,109.39,373.32,112.19,373.45,114.41Z"/><path class="cls-3" d="M238.58,110.4c-.47,0-1.8,1.47-2.08,1.79l-3,3c-.85.82-1.93,2.16-1.86,3.45a2,2,0,0,0,2.5,1.91c5.34-1.11,15.75-12.65,15.13-18.4-.28-2.68-2-4-4.58-3.81-5.08.28-13.67,7.61-17.11,11.27-4.17,4.38-9,11.42-8.7,17.7.27,4.91,3.85,7.67,8.59,7.4,4-.22,11-3.17,18.85-11.66,1.53-1.63,2.18-2.27,1.94-4.44-3.86,3.81-12.87,11.34-18.25,11.64-3.08.17-4.63-1.55-4.79-4.58-.18-3.24,1.73-8.1,4.53-11.77,8.94-11.72,13.8-12.16,14.56-12.42s1.16.07,1.2.79c.08,1.41-2.4,5.4-6.34,9.22l-.09-.08C239.24,110.67,239,110.38,238.58,110.4Z"/><path class="cls-3" d="M302.47,116.76c-2.37,2.06-5.92,5.25-9.17,5.43-2.22.13-3.32-1.14-3.37-2.12-.07-1.2.66-1.88,1.57-2.62l3.43-2.89c.09.81.58,1.86,1.56,1.8,1.15-.06,4.34-3.54,4.21-5.89a1.7,1.7,0,0,0-2-1.85c-2.39.13-6.36,2.66-8.2,4.22s-3.16,2.88-3.55,4.87l-.05-.17c-1.27,1-2.37,2.74-4.27,2.5.72-1.71,1.49-3.25,1.39-5.13-.07-1.28-.38-2.16-1.68-2.43.45-.28.95-.57.92-1.21-.07-1.15-1.5-1.5-2.44-1.41a14.54,14.54,0,0,0-7.81,3.61,8.71,8.71,0,0,0-3.48,6c-1.55,1.37-4.25,3.65-5.62,3.72-.68,0-1.08-.19-1.12-.88-.1-1.92,2.74-5.46,4-6.77.65-.64,1.75-1.69,1.61-2.71-.3-2.21-.77-2.31-1.11-2.29-1.07.06-5,4.35-5.88,5.21l-4,4c-1.91,1.91-4.19,3.28-5,3.32-.3,0-.36-.41-.38-.62-.09-1.8.88-2.79,2.15-3.8a15.09,15.09,0,0,0,3.08-3.26,5.69,5.69,0,0,0,1.58-2.36c.1-1.29-2.06-.78-2.66-.75a3.24,3.24,0,0,0-1.85.57c-2.63,2-5.6,6.4-5.37,10.54.1,1.83,1.39,4.16,3.48,4,2.35-.13,5-4.14,6.58-5.68l.09.08a10.25,10.25,0,0,0-.7,3.64,2.62,2.62,0,0,0,2.68,2.68c2.73-.15,6.27-4,8.52-6.5.6,3.31,2.59,5.11,4.63,5a9.12,9.12,0,0,0,6.4-3.57,7.63,7.63,0,0,0,6.13-3.06c.18,3.15,1.93,6.13,5.21,5.94,4.06-.22,8.61-4.71,11.06-7.63Zm-25.2,3a4.75,4.75,0,0,0,.62,1.94c-.93.95-1.78,1.81-3.19,1.89-1.07.06-1.9-.28-2-1.52a6.33,6.33,0,0,1,1.53-4,26.7,26.7,0,0,1,4.57-3.38C279,114.72,277.15,117.52,277.27,119.74Z"/><path class="cls-3" d="M277.63,131.91a1.62,1.62,0,0,0-.65-1.41,1.9,1.9,0,0,0-1.6-.33,2.73,2.73,0,0,0-1.61.92,2.42,2.42,0,0,0-.69,1.65,1.68,1.68,0,0,0,.65,1.4,1.92,1.92,0,0,0,1.6.34,2.8,2.8,0,0,0,1.61-.93A2.48,2.48,0,0,0,277.63,131.91Z"/><path class="cls-3" d="M274.62,106.46a37.23,37.23,0,0,0,4.77-2.87l1.66-1.08.72,1.21A13.52,13.52,0,0,0,284,107a1.65,1.65,0,0,0,1.66,0,.66.66,0,0,0,.26-.71,2.35,2.35,0,0,0-.47-1,11.77,11.77,0,0,1-1.28-2.85,10.9,10.9,0,0,1-.59-2.91c-.08-1.2-1.43-1.27-2.49-.13a25.17,25.17,0,0,1-2.93,2.72,31.66,31.66,0,0,1-3.55,2.59,6.65,6.65,0,0,0-1.24.88c-.23.24-.45.5-.33.71C273.27,106.7,274.09,106.65,274.62,106.46Z"/></g></g></svg>