<?xml version="1.0" encoding="utf-8"?>
<!-- Generator: Adobe Illustrator 24.2.3, SVG Export Plug-In . SVG Version: 6.00 Build 0)  -->
<svg xmlns="http://www.w3.org/2000/svg" width="36" height="36">
  <defs>
    <clipPath id="b">
      <circle cx="17" cy="17" r="17" transform="translate(-1 -1)"></circle>
    </clipPath>
    <clipPath id="a">
      <path d="M0 0h36v36H0z"></path>
    </clipPath>
  </defs>
  <g clip-path="url(#a)">
    <path fill="none" d="M.021 0h36v36h-36z"></path>
    <g>
      <g clip-path="url(#b)" transform="translate(2 1.979)">
        <path d="M22.35 25.453v-2.427H29v-2.693a6.808 6.808 0 00-6.806-6.793h-9.2l-.02-.044L6.83 0H0l8.933 19.542-.048.033A2.569 2.569 0 007.679 21.5v3.953c0 1.069.85 2.02 2.394 2.675a13.111 13.111 0 004.936.872 13.11 13.11 0 004.94-.871c1.549-.654 2.401-1.606 2.401-2.676zM6.798 11.107L2.43 1.562h3.387l.02.044 4.349 9.545H6.818zm13.988 14.346c0 .692-1.984 1.985-5.774 1.985s-5.765-1.293-5.765-1.985v-1.61l.11.065a6.351 6.351 0 00.721.357 13.05 13.05 0 004.934.873 13.07 13.07 0 004.94-.873 6.365 6.365 0 00.724-.357l.11-.064zm-5.774-1.876c-3.786 0-5.765-1.293-5.765-1.985s1.979-1.985 5.765-1.985 5.774 1.293 5.774 1.985-1.987 1.985-5.777 1.985zm4.94-4.662a13.1 13.1 0 00-4.94-.873 13.588 13.588 0 00-4.627.753l-.064.023-2.784-6.1h3.361l.02.042 1.068 2.34h10.208a5.241 5.241 0 015.24 5.232v1.13h-5.088l-.007-.065c-.097-.991-.946-1.873-2.39-2.482z"></path>
      </g>
    </g>
  </g>
</svg>