<?xml version="1.0" encoding="utf-8"?>
<!-- Generator: Adobe Illustrator 24.2.3, SVG Export Plug-In . SVG Version: 6.00 Build 0)  -->
<svg xmlns="http://www.w3.org/2000/svg" width="36" height="36">
  <defs>
    <clipPath id="a">
      <path d="M0 0h36v36H0z"></path>
    </clipPath>
  </defs>
  <g clip-path="url(#a)">
    <path fill="none" d="M0 0h36v36H0z"></path>
    <g>
      <g>
        <path d="M8.079 8.08a14 14 0 000 19.8 14 14 0 0019.8 0 14 14 0 000-19.8 14 14 0 00-19.8 0zm19.742 2.037l-17.7 17.7a12.611 12.611 0 01-1.049-.932L26.89 9.07a12.832 12.832 0 01.931 1.047zM9.069 9.07a12.6 12.6 0 0114.33-2.45l-1.955 1.954.99.99 2.245-2.246a12.522 12.522 0 011.161.819l-17.7 17.7a12.732 12.732 0 01-.819-1.162l2.246-2.246-.991-.99-1.954 1.954A12.607 12.607 0 019.069 9.07zM26.89 26.888a12.6 12.6 0 01-12.921 3.02l1.536-1.534-.99-.99-1.955 1.954a12.249 12.249 0 01-1.281-.7L28.64 11.277a12.638 12.638 0 01.7 1.281l-1.956 1.95.99.99 1.536-1.53a12.6 12.6 0 01-3.02 12.92z"></path>
        <path d="M9.564 20.454l1.98-1.98.99.99-1.98 1.98z"></path>
        <path d="M12.534 17.482l1.98-1.98.99.991-1.98 1.98z"></path>
        <path d="M15.505 14.513l1.98-1.98.99.99-1.98 1.98z"></path>
        <path d="M18.474 11.544l1.98-1.98.99.99-1.98 1.98z"></path>
        <path d="M15.505 26.393l1.98-1.98.99.99-1.98 1.98z"></path>
        <path d="M18.474 23.423l1.98-1.98.99.99-1.98 1.98z"></path>
        <path d="M21.444 20.453l1.98-1.98.99.99-1.98 1.98z"></path>
        <path d="M24.414 17.483l1.98-1.98.99.99-1.98 1.98z"></path>
      </g>
    </g>
  </g>
</svg>