<?xml version="1.0" encoding="utf-8"?>
<!-- Generator: Adobe Illustrator 24.2.3, SVG Export Plug-In . SVG Version: 6.00 Build 0)  -->
<svg xmlns="http://www.w3.org/2000/svg" width="36" height="36">
  <defs>
    <clipPath id="a">
      <path d="M0 0h36v36H0z"></path>
    </clipPath>
  </defs>
  <g clip-path="url(#a)">
    <path fill="none" d="M0 0h36v36H0z"></path>
    <g>
      <path d="M31.947 17.055a16.755 16.755 0 00-.1-1.005 13.924 13.924 0 00-1.3-4.267 13.276 13.276 0 00-.434-.808 11.63 11.63 0 00-.664-1.017 14 14 0 00-23.591 1.008c-.027.043-.049.088-.071.132l-.063.115c-.05.09-.1.182-.136.251l-.036.06-.062.125-.176.367c-.069.146-.134.288-.2.438-.052.122-.1.245-.148.365-.062.147-.116.3-.186.491-.038.115-.078.228-.116.344-.046.147-.091.293-.13.435s-.08.276-.115.416c-.029.111-.057.23-.083.349L4.301 15c-.024.122-.052.241-.074.361s-.041.232-.057.351l-.035.213c-.015.1-.034.2-.045.3s-.024.22-.032.332l-.028.286c-.008.083-.017.165-.021.249-.02.274-.029.552-.031.826v.073c0 .267.01.536.027.805l.011.171c.017.227.039.454.064.678l.024.178c.018.15.042.3.064.438.01.067.022.133.035.2l.021.116c.02.108.041.213.062.316.028.136.062.269.092.4.018.076.035.15.053.22.053.2.108.393.174.612a13.943 13.943 0 008.5 8.975l.06.021c.188.067.374.132.6.2l.07.022c.179.055.361.108.547.157l.108.029c.186.048.372.091.56.132l.1.021c.2.041.406.078.665.12a13.511 13.511 0 001.434.148l.757.025h.039c.165 0 .321-.006.465-.015a13.958 13.958 0 0013.469-13.982q0-.465-.032-.923zm-8.268-3.556a12.73 12.73 0 015.3-1.411h.064A12.573 12.573 0 0126.879 26.8a14.073 14.073 0 00-3.2-13.301zm-4.7 12.131a12.6 12.6 0 01-1.424 4.871A12.555 12.555 0 016.229 22.34a13.924 13.924 0 0012.75 3.29zm-1.455-8.394a12.581 12.581 0 01-5.062-1.275 12.466 12.466 0 0111.917-8.689h.116a12.521 12.521 0 013.665 3.4 14.054 14.054 0 00-10.636 6.564zm.014 1.462a12.574 12.574 0 011.469 5.417 12.5 12.5 0 01-13.484-4.758 30.981 30.981 0 01-.046-.5l-.013-.153a13.805 13.805 0 010-1.515l.042-.444c.01-.111.018-.224.034-.336l.066-.438c.018-.112.035-.224.056-.336s.052-.252.08-.372l.088-.395a19.322 19.322 0 01.22-.764l.115-.339c.049-.137.1-.273.157-.413a11.265 11.265 0 01.235-.557 14.038 14.038 0 004.561 4.11 13.972 13.972 0 006.42 1.792zm1.285-.7a12.706 12.706 0 013.565-3.72 12.517 12.517 0 012.229 14.332 12.45 12.45 0 01-5.4 1.838A14.044 14.044 0 0018.823 18zm3.023-11.951a14.02 14.02 0 00-10.681 9.177 12.653 12.653 0 01-3.822-3.877c.022-.038.046-.073.07-.111l.066-.093c.052-.081.1-.162.155-.239.08-.116.165-.231.249-.344l.064-.088a7.259 7.259 0 01.442-.557c.092-.11.165-.2.251-.293s.193-.207.293-.309l.269-.277c.1-.1.207-.195.312-.29l.1-.088c.062-.057.125-.115.186-.168.108-.094.22-.182.332-.272l.1-.078c.066-.052.13-.105.2-.157s.158-.118.238-.174l.409-.295c.1-.067.207-.129.367-.225l.076-.048c.08-.05.16-.1.241-.144.113-.066.232-.129.382-.206l.12-.064c.069-.035.137-.073.209-.106.091-.043.183-.087.277-.126l.227-.1c.077-.035.155-.071.234-.1s.188-.074.284-.109l.235-.088c.078-.029.158-.06.234-.087.1-.034.2-.063.3-.094l.262-.078c.07-.022.141-.046.213-.064.127-.035.259-.064.455-.109l.335-.077c.12-.024.242-.043.364-.062l.44-.073c.179-.024.363-.038.552-.055l.265-.027c.273-.015.546-.025.826-.025h.038a12.3 12.3 0 013.831.6z"></path>
    </g>
  </g>
</svg>