<?xml version="1.0" encoding="utf-8"?>
<!-- Generator: Adobe Illustrator 24.2.3, SVG Export Plug-In . SVG Version: 6.00 Build 0)  -->
<svg xmlns="http://www.w3.org/2000/svg" width="36" height="36">
  <defs>
    <clipPath id="a">
      <path d="M0 0h36v36H0z"></path>
    </clipPath>
  </defs>
  <g clip-path="url(#a)">
    <path fill="none" d="M0 0h36v36H0z"></path>
    <g>
      <g>
        <path d="M31.979 20.779a5.137 5.137 0 00-1.4-3.459v-.741a12.6 12.6 0 00-25.2 0v.741a5.137 5.137 0 00-1.4 3.459 5.8 5.8 0 004.459 5.358 2.795 2.795 0 005.341-1.158v-8.4a2.795 2.795 0 00-5.341-1.158 6.883 6.883 0 00-1.637.739 11.185 11.185 0 0122.355 0 6.868 6.868 0 00-1.638-.739 2.794 2.794 0 00-5.339 1.158v8.4a2.808 2.808 0 002.8 2.8 2.764 2.764 0 001.4-.391v1.791H19.25a2.1 2.1 0 100 1.4h7.129a1.371 1.371 0 001.4-1.4V26.04a5.745 5.745 0 004.2-5.261zm-21-5.6a1.4 1.4 0 011.4 1.4v8.4a1.4 1.4 0 01-2.8 0v-8.4a1.4 1.4 0 011.4-1.4zm-2.811 9.359a4.273 4.273 0 01-2.778-3.759 4.273 4.273 0 012.778-3.759zm16.811 1.841a1.4 1.4 0 01-1.4-1.4v-8.4a1.4 1.4 0 012.8 0v8.4a1.4 1.4 0 01-1.4 1.4zm2.811-1.841V17.02a4.273 4.273 0 012.778 3.759 4.273 4.273 0 01-2.778 3.759z"></path>
      </g>
    </g>
  </g>
</svg>