<?xml version="1.0" encoding="utf-8"?>
<!-- Generator: Adobe Illustrator 24.2.3, SVG Export Plug-In . SVG Version: 6.00 Build 0)  -->
<svg xmlns="http://www.w3.org/2000/svg" width="36" height="36">
  <defs>
    <clipPath id="a">
      <path d="M0 0h36v36H0z"></path>
    </clipPath>
  </defs>
  <g clip-path="url(#a)">
    <path fill="none" d="M0 0h36v36H0z"></path>
    <g>
      <path d="M29.519 10.046a13.991 13.991 0 10-11.505 21.953 14 14 0 0011.5-21.954zM5.632 15.737A12.563 12.563 0 018.8 9.427a13.3 13.3 0 01.907 1.1l-.58.567a.716.716 0 00-.014 1.005.708.708 0 001.008.013l.379-.372a12.033 12.033 0 01.675 1.351l-.82.356a.714.714 0 00.284 1.368.81.81 0 00.284-.057l.734-.321A12.412 12.412 0 0112 15.908l-.683.071a.712.712 0 00.07 1.421.362.362 0 00.069 0l.7-.066a12.444 12.444 0 01-.008 1.427l-.694-.066a.713.713 0 00-.139 1.42l.665.063a.608.608 0 00-.013.088 13.344 13.344 0 01-.333 1.378l-.708-.307a.714.714 0 00-.568 1.309l.788.34a12.146 12.146 0 01-.673 1.334l-.351-.342a.713.713 0 00-.995 1.021l.547.529a13.113 13.113 0 01-.874 1.036 12.563 12.563 0 01-3.168-10.827zm12.382 14.835a12.7 12.7 0 01-2.278-.2 12.525 12.525 0 01-5.9-2.814c.307-.33.6-.673.872-1.028l.5.49a.723.723 0 00.5.2.711.711 0 00.492-1.221l-.673-.655a13.861 13.861 0 00.931-1.793l.563.244a.712.712 0 00.938-.372.716.716 0 00-.372-.938l-.633-.273a14.429 14.429 0 00.416-1.684c.014-.071.025-.137.036-.209l.8.08h.069a.714.714 0 00.071-1.424l-.771-.074a13.618 13.618 0 00.008-1.707l.763-.078a.713.713 0 10-.14-1.418l-.78.077a13.473 13.473 0 00-.44-1.9l.6-.259a.715.715 0 10-.567-1.312l-.528.23a14.452 14.452 0 00-.932-1.81l.641-.624a.708.708 0 00.018-1.005.717.717 0 00-1.018-.024l-.465.452a14.266 14.266 0 00-.913-1.081 12.515 12.515 0 018.16-3.016 12.707 12.707 0 012.275.2 12.551 12.551 0 015.864 2.773 14.062 14.062 0 00-.959 1.127l-.462-.455a.715.715 0 00-1 1.022l.645.624a14.159 14.159 0 00-.93 1.81l-.536-.23a.713.713 0 00-.56 1.312l.606.259a13.893 13.893 0 00-.447 1.9l-.776-.077a.714.714 0 00-.778.64.706.706 0 00.641.778l.763.078a13.614 13.614 0 000 1.707l-.767.074a.714.714 0 00.067 1.424h.07l.794-.08c.014.071.025.137.035.209a13.667 13.667 0 00.42 1.686l-.633.272a.714.714 0 00.284 1.369.665.665 0 00.276-.059l.57-.244a13.7 13.7 0 00.932 1.793l-.676.661a.715.715 0 001 1.022l.505-.49c.286.374.594.729.918 1.077a12.517 12.517 0 01-8.109 2.964zm12.351-10.31a12.571 12.571 0 01-3.212 6.359 13.08 13.08 0 01-.921-1.093l.544-.529a.715.715 0 10-1-1.023l-.35.342a12.378 12.378 0 01-.671-1.334l.784-.34a.712.712 0 00-.563-1.309l-.71.307a13.345 13.345 0 01-.333-1.378 1.373 1.373 0 01-.018-.088l.666-.063a.713.713 0 10-.141-1.42l-.689.066a13.111 13.111 0 01-.006-1.427l.694.067a.67.67 0 00.074 0 .712.712 0 00.067-1.421l-.682-.071a13 13 0 01.342-1.471l.735.321a.774.774 0 00.279.057.716.716 0 00.657-.435.707.707 0 00-.372-.932l-.816-.356a13.142 13.142 0 01.669-1.35l.384.37a.72.72 0 00.5.2.713.713 0 00.5-1.225l-.582-.567a14.453 14.453 0 01.959-1.144 12.571 12.571 0 013.213 10.883z"></path>
    </g>
  </g>
</svg>