<?xml version="1.0" encoding="utf-8"?>
<!-- Generator: Adobe Illustrator 24.2.3, SVG Export Plug-In . SVG Version: 6.00 Build 0)  -->
<svg xmlns="http://www.w3.org/2000/svg" width="36" height="36">
  <defs>
    <clipPath id="a">
      <path d="M0 0h36v36H0z"></path>
    </clipPath>
  </defs>
  <g clip-path="url(#a)">
    <path fill="none" d="M0 0h36v36H0z"></path>
    <g>
      <g>
        <path d="M29.598 10.145a4.73 4.73 0 00-1-2.791 5.562 5.562 0 00-3.812-1.043 16.076 16.076 0 00-3.194.349.575.575 0 00-.126.026 19.443 19.443 0 00-9.638 5.139 19.5 19.5 0 00-5.163 9.732 14.727 14.727 0 00-.305 4.254 4.73 4.73 0 001 2.791 5.562 5.562 0 003.814 1.043 16.125 16.125 0 003.2-.349.6.6 0 00.119-.024 19.429 19.429 0 009.641-5.141 19.5 19.5 0 005.164-9.732 14.768 14.768 0 00.3-4.254zM11.171 28.511a4.667 4.667 0 01-3.02-.712c-.575-.58-.923-2.473-.563-5l5.565 5.565a14.531 14.531 0 01-1.982.147zm12.164-5.183a18.282 18.282 0 01-8.838 4.787l-6.662-6.657a18.354 18.354 0 014.787-8.839 18.28 18.28 0 018.84-4.787l6.661 6.662a18.354 18.354 0 01-4.788 8.838zM28.37 13.15l-5.566-5.565a14.531 14.531 0 011.982-.148 4.667 4.667 0 013.02.712c.575.579.923 2.472.564 5.001z"></path>
        <path d="M19.434 13.409a.566.566 0 000 .794l.763.758-2.14 2.139-.763-.758a.554.554 0 00-.794 0 .565.565 0 000 .793l.762.759-2.3 2.3-.759-.763a.568.568 0 00-.794 0 .557.557 0 000 .8l1.156 1.157 1.157 1.157a.556.556 0 00.794 0 .566.566 0 000-.794l-.763-.758 2.3-2.3.759.762a.558.558 0 00.793 0 .554.554 0 000-.794l-.758-.763 2.142-2.142.758.763a.566.566 0 00.4.166.563.563 0 00.4-.96l-2.317-2.316a.557.557 0 00-.796 0z"></path>
      </g>
    </g>
  </g>
</svg>