<?xml version="1.0" encoding="utf-8"?>
<!-- Generator: Adobe Illustrator 24.2.3, SVG Export Plug-In . SVG Version: 6.00 Build 0)  -->
<svg xmlns="http://www.w3.org/2000/svg" width="36" height="36">
  <defs>
    <clipPath id="a">
      <path d="M0 0h36v36H0z"></path>
    </clipPath>
  </defs>
  <g clip-path="url(#a)">
    <path fill="none" d="M0 0h36v36H0z"></path>
    <g>
      <g>
        <path d="M24.13 6.998a10.04 10.04 0 00-14.353 0 10.4 10.4 0 00-2.943 6.481 10.535 10.535 0 001.438 6.162l.105.179-4.211 4.282a.648.648 0 000 .911l2.244 2.276a.606.606 0 00.441.182.632.632 0 00.45-.183l4.212-4.28.182.113a10.045 10.045 0 005.275 1.486c.26 0 .524-.009.785-.029a10.059 10.059 0 006.375-2.987 10.428 10.428 0 000-14.594zm-11.676 15.05a2.291 2.291 0 00-3.13-3.176 9.06 9.06 0 01-1.249-5.217l.042-.589 10.048 10.2-.577.042a8.673 8.673 0 01-5.134-1.26zm-2.586-1.8a.809.809 0 01.066-.064l.051-.038a.85.85 0 01.513-.188.874.874 0 01.872.874 1.56 1.56 0 01-.359.7l-4.158 4.392-1.352-1.37zm13.377.43a8.978 8.978 0 01-3.479 2.188l-.159.052L8.456 11.596l.051-.153a9.051 9.051 0 012.157-3.534 8.816 8.816 0 0112.581 0 9.154 9.154 0 010 12.77z"></path>
        <path d="M26.079 23.479a2.6 2.6 0 11-2.6 2.6 2.6 2.6 0 012.6-2.6m0-1.3a3.9 3.9 0 103.9 3.9 3.9 3.9 0 00-3.9-3.9z"></path>
      </g>
    </g>
  </g>
</svg>