<?xml version="1.0" encoding="utf-8"?>
<!-- Generator: Adobe Illustrator 24.2.3, SVG Export Plug-In . SVG Version: 6.00 Build 0)  -->
<svg xmlns="http://www.w3.org/2000/svg" width="36" height="36">
  <defs>
    <clipPath id="a">
      <path d="M0 0h36v36H0z"></path>
    </clipPath>
  </defs>
  <g clip-path="url(#a)">
    <path fill="none" d="M0 0h36v36H0z"></path>
    <g>
      <g>
        <path d="M16.779 3.979a13.657 13.657 0 00-3.62.5 12.27 12.27 0 00-6.514 4.768 13.487 13.487 0 00-2.666 7.67v3.687a2.194 2.194 0 001.275 1.984l17.015 7.058a4.242 4.242 0 001.647.333 4.3 4.3 0 004.008-2.742c.088-.221.178-.468.266-.723l.049-.139.814.4a.654.654 0 00.62-.023.639.639 0 00.306-.543V15.438c0-.013 0-.061-.006-.074A13.323 13.323 0 0016.779 3.979zm11.923 21.2L20.746 21.2v-6.193l.148.018 7.808.979zm-.123-10.478l-9.738-1.222a2.179 2.179 0 00-2.449 2.162V19.1a2.174 2.174 0 001.2 1.95l9.493 4.746-.036.109c-.109.308-.214.6-.315.857a3.02 3.02 0 01-3.979 1.707L5.779 21.422a.912.912 0 01-.524-.819v-3.689c0-4.85 3.774-9.984 8.239-11.21a12.331 12.331 0 013.263-.443 12 12 0 0111.78 9.258zm-9.106.148v5.713l-1.306-.655a.9.9 0 01-.5-.8v-3.463a.91.91 0 011.013-.9z"></path>
        <path d="M10.072 14.821a2.917 2.917 0 102.919 2.917 2.921 2.921 0 00-2.919-2.917zm0 4.569a1.652 1.652 0 111.654-1.652 1.654 1.654 0 01-1.654 1.652z"></path>
      </g>
    </g>
  </g>
</svg>