<?xml version="1.0" encoding="utf-8"?>
<!-- Generator: Adobe Illustrator 24.2.3, SVG Export Plug-In . SVG Version: 6.00 Build 0)  -->
<svg xmlns="http://www.w3.org/2000/svg" width="36" height="36">
  <defs>
    <clipPath id="a">
      <path d="M0 0h36v36H0z"></path>
    </clipPath>
  </defs>
  <g clip-path="url(#a)">
    <path fill="none" d="M0 0h36v36H0z"></path>
    <g>
      <path d="M31.934 16.803a14.235 14.235 0 00-.207-1.445 13.993 13.993 0 00-8.981-10.546 14.144 14.144 0 00-7.186-.626 13.906 13.906 0 00-2.346.627 14.052 14.052 0 00-9.235 13.166c0 .161.007.321.014.48a13.852 13.852 0 002.39 7.37 14.011 14.011 0 0015.429 5.62l.052-.015a13.7 13.7 0 002.267-.874 14.086 14.086 0 005.443-4.731 13.843 13.843 0 002.391-7.379c.007-.158.014-.314.014-.47 0-.416-.015-.801-.045-1.177zm-1.33.286l-3.048-2.222 1.161-3.588c.115.179.221.358.325.542l.232.441c.073.146.147.294.214.435l.041.091c.038.084.076.167.112.252.084.195.155.389.228.591l.025.062c.031.084.063.168.091.252.085.253.157.5.232.785.014.046.029.094.041.141.07.277.133.587.2.948.01.05.017.1.022.15s.01.09.017.132c.034.224.062.458.085.683zm-7.287-.146l3.336-1.086 3.955 2.883a12.537 12.537 0 01-1.953 6.048h-4.9l-2.065-2.839zm-7.97 5.792h5.264l2.057 2.836-1.509 4.665a12.911 12.911 0 01-6.362 0l-1.506-4.663zm-6.042-6.876l3.335 1.084 1.628 5.011-2.061 2.834h-4.9a12.573 12.573 0 01-1.954-6.047zm8.005-3.28l-4.257 3.094-3.334-1.082-1.513-4.662a12.672 12.672 0 015.139-3.737l3.965 2.88zm2.706-7.1l.293.055c.245.045.483.1.727.155l-3.057 2.222-3.059-2.223c.239-.055.48-.109.72-.155l.291-.053c.259-.041.518-.071.774-.1l.245-.025a12.826 12.826 0 012.048 0l.241.025q.397.04.777.099zm2.89 10.2l-4.259-3.1V9.072l3.966-2.881a12.675 12.675 0 015.138 3.737l-1.512 4.663zm-7.415 5.72l-1.539-4.729 4.027-2.926 4.026 2.926-1.538 4.729zm-7.09-6.532l-3.05 2.219c0-.1.011-.195.022-.294.021-.234.052-.465.083-.683l.039-.288c.059-.343.123-.652.2-.949.008-.034.02-.071.031-.106l.017-.055q.1-.384.22-.76c.036-.1.076-.206.119-.316.071-.2.143-.4.23-.6.042-.1.09-.2.153-.336.084-.185.175-.368.283-.578.052-.1.1-.2.164-.3.085-.154.178-.3.269-.455l.057-.1zm3.664 11.255l1.166 3.6-.035-.015a11.512 11.512 0 01-.634-.28c-.1-.049-.211-.1-.316-.154-.209-.108-.412-.223-.615-.336l-.09-.05a1.976 1.976 0 01-.175-.105 12.76 12.76 0 01-.875-.581 12.045 12.045 0 01-.741-.6l-.241-.213a14.2 14.2 0 01-.5-.477l-.249-.256a13.748 13.748 0 01-.462-.522l-.011-.011zm13.363 2.1c-.276.2-.547.377-.836.553-.05.031-.1.062-.151.088l-.112.067a10.656 10.656 0 01-.935.492c-.207.1-.416.189-.624.273l-.039.018 1.165-3.594h3.779l-.008.008c-.153.182-.309.356-.466.525l-.251.255c-.16.165-.33.322-.5.476l-.241.214c-.287.245-.514.426-.738.588l.12.167z"></path>
    </g>
  </g>
</svg>