<?xml version="1.0" encoding="utf-8"?>
<!-- Generator: Adobe Illustrator 24.2.3, SVG Export Plug-In . SVG Version: 6.00 Build 0)  -->
<svg xmlns="http://www.w3.org/2000/svg" width="36" height="36">
  <defs>
    <clipPath id="a">
      <path d="M0 0h36v36H0z"></path>
    </clipPath>
  </defs>
  <g clip-path="url(#a)">
    <path fill="none" d="M0 0h36v36H0z"></path>
    <path d="M31.979 17.979a14 14 0 00-23.9-9.9 14 14 0 1019.8 19.8 13.92 13.92 0 004.1-9.9zm-26.6-.84a12.649 12.649 0 013.251-7.64l.105-.115.105.115a12.444 12.444 0 013.244 7.64l.01.151H5.372zm3.356 9.435l-.105-.115a12.65 12.65 0 01-3.251-7.641l-.01-.151h6.724l-.01.151a12.454 12.454 0 01-3.24 7.641zm8.554 4.012l-.151-.01a12.515 12.515 0 01-7.3-2.954l-.112-.1.1-.108a14.046 14.046 0 002.514-3.879 13.918 13.918 0 001.123-4.74l.007-.133h3.821zm0-13.3h-3.818l-.007-.133a13.934 13.934 0 00-1.123-4.74 14 14 0 00-2.516-3.874l-.091-.1.1-.1a12.517 12.517 0 017.306-2.96l.151-.01zm1.375-11.92l.151.01a12.514 12.514 0 017.3 2.954l.113.1-.1.109a13.941 13.941 0 00-3.637 8.618l-.007.133h-3.818zm7.415 22.29a12.5 12.5 0 01-7.26 2.92l-.151.01V18.665h3.821l.007.133a13.941 13.941 0 003.639 8.62l.217.237zm4.5-8.838a12.668 12.668 0 01-3.252 7.641l-.105.115-.105-.115a12.444 12.444 0 01-3.244-7.641l-.01-.151h6.726zm-6.716-1.527l.01-.151a12.43 12.43 0 013.244-7.64l.105-.115.105.115a12.664 12.664 0 013.252 7.639l.01.151z"></path>
  </g>
</svg>