<?xml version="1.0" encoding="utf-8"?>
<!-- Generator: Adobe Illustrator 24.2.3, SVG Export Plug-In . SVG Version: 6.00 Build 0)  -->
<svg version="1.1" id="圖層_1" xmlns="http://www.w3.org/2000/svg" xmlns:xlink="http://www.w3.org/1999/xlink" x="0px" y="0px"
	 viewBox="0 0 24 24" style="enable-background:new 0 0 24 24;" xml:space="preserve">
<style type="text/css">
	.st0{fill-rule:evenodd;clip-rule:evenodd;}
</style>
<path id="Combined-Shape" class="st0" d="M12,3c5,0,9,4,9,9s-4,9-9,9s-9-4-9-9S7,3,12,3z M10.4,8.3c-0.2,0-0.4,0.2-0.4,0.4l0,0v6.5
	c0,0.1,0,0.2,0.1,0.2c0.1,0.2,0.4,0.2,0.6,0.1l0,0l4.9-3.3l0.1-0.1c0.1-0.2,0.1-0.4-0.1-0.6l0,0l-5-3.1C10.6,8.4,10.5,8.3,10.4,8.3z
	"/>
</svg>
