<?xml version="1.0" encoding="utf-8"?>
<!-- Generator: Adobe Illustrator 24.3.0, SVG Export Plug-In . SVG Version: 6.00 Build 0)  -->
<svg version="1.1" id="圖層_1" xmlns="http://www.w3.org/2000/svg" xmlns:xlink="http://www.w3.org/1999/xlink" x="0px" y="0px"
	 viewBox="0 0 24 24" style="enable-background:new 0 0 24 24;" xml:space="preserve">
<path d="M2,20h2c0.6,0,1-0.5,1-1v-9c0-0.6-0.4-1-1-1H2V20z M21.8,12.9c0.1-0.2,0.2-0.5,0.2-0.8V11c0-1.1-0.9-2-2-2h-5.5l0.9-4.7
	c0.1-0.2,0-0.5-0.1-0.7c-0.2-0.5-0.5-0.9-0.9-1.2L14,2L7.6,8.4C7.2,8.8,7,9.3,7,9.8v7.8C7,19,8.1,20,9.3,20h8.1c0.7,0,1.4-0.4,1.7-1
	C19.2,19,21.8,12.9,21.8,12.9z"/>
</svg>
