<?xml version="1.0" encoding="utf-8"?>
<svg version="1.1" xmlns="http://www.w3.org/2000/svg"
          xmlns:xlink="http://www.w3.org/1999/xlink" x="0px" y="0px" viewBox="0 0 24 24" xml:space="preserve">
          <path class="st0" d="M12.1,23H1l3.3-3.3C2.2,17.7,1,14.8,1,11.9C1,9,2.2,6.1,4.3,4C6.3,2,9.2,0.8,12.1,0.8
 C15.1,0.8,17.9,2,20,4c2.1,2.1,3.3,4.9,3.2,7.9c0,2.9-1.2,5.8-3.3,7.9C17.9,21.8,15.1,23,12.1,23z M10.9,18c-0.5,0-0.9,0.4-0.9,0.9
 v0.4c0,0.5,0.4,0.9,0.9,0.9h2.5c0.4,0,0.8-0.3,0.9-0.8c2.5,0,4.8-1.8,5.4-4.2c0.9-0.1,1.7-0.8,1.8-1.7l0.1-2.3
 c0-0.9-0.6-1.7-1.5-1.9c-1.1-3.4-4.3-5.6-7.8-5.6c-3.6,0-6.7,2.3-7.8,5.7C3.4,9.4,2.8,10.2,2.8,11v2.3c0.1,1.1,1,1.9,2.1,1.9h0.3
 c0.6,0,1-0.4,1.1-0.9v-4.2c0-0.5-0.4-0.8-0.8-0.9C6,7.9,6.9,6.8,8.1,6c1.2-0.8,2.6-1.3,4-1.3c2.9,0,5.5,1.8,6.6,4.5
 C18.3,9.3,18,9.6,18,10l-0.2,4.2c0,0.2,0.1,0.5,0.2,0.6c0.2,0.2,0.5,0.3,0.8,0.4l0.1,0c-0.6,2.1-2.5,3.6-4.7,3.6
 c-0.1-0.4-0.4-0.7-0.9-0.7L10.9,18z M9.5,10.6c0.2,0,0.3,0.1,0.4,0.2c0.1,0.1,0.2,0.3,0.1,0.4c0,0.2-0.1,0.4-0.2,0.5
 c-0.2,0.3-0.5,0.5-0.7,0.7c-0.4,0.3-0.6,0.5-0.8,0.6l-0.6,0.4c-0.2,0.1-0.3,0.4-0.3,0.6v0.6c0,0.2,0.1,0.3,0.3,0.3c0,0,0,0,0,0h3.6
 c0.2,0,0.3-0.2,0.3-0.3l0-0.7c0-0.1,0-0.2-0.1-0.2c-0.1-0.1-0.1-0.1-0.2-0.1H9.6c0.7-0.4,1.3-0.9,1.8-1.5c0.2-0.3,0.3-0.7,0.3-1
 c0-0.5-0.2-1-0.6-1.3c-0.4-0.3-1-0.5-1.5-0.5c-0.5,0-1,0.2-1.5,0.5c-0.4,0.3-0.6,0.7-0.7,1.1c0,0.1,0,0.2,0,0.2
 c0,0.1,0.1,0.1,0.2,0.2l0.8,0.1c0,0,0,0,0.1,0c0.2,0,0.3-0.1,0.3-0.3C9,10.8,9.2,10.6,9.5,10.6L9.5,10.6z M14.4,9.3L14.4,9.3
 l-2.1,3.2v0.9c0,0.2,0.1,0.3,0.3,0.3h2v0.9c0,0.2,0.1,0.3,0.3,0.3c0,0,0,0,0,0h0.9c0.2,0,0.3-0.1,0.3-0.3c0,0,0,0,0,0v-0.9h0.5
 c0.2,0,0.3-0.1,0.3-0.3c0,0,0,0,0,0v-0.6c0-0.2-0.1-0.3-0.3-0.3c0,0,0,0,0,0h-0.5V9.6c0-0.2-0.1-0.3-0.3-0.3c0,0,0,0,0,0L14.4,9.3
 L14.4,9.3z M14.6,12.6h-1.1l1.1-1.7V12.6L14.6,12.6z"></path>
          <path class="st1" d="M12.1,23H1l3.3-3.3C2.2,17.7,1,14.8,1,11.9C1,9,2.2,6.1,4.3,4C6.3,2,9.2,0.8,12.1,0.8C15.1,0.8,17.9,2,20,4
 c2.1,2.1,3.3,4.9,3.2,7.9c0,2.9-1.2,5.8-3.3,7.9C17.9,21.8,15.1,23,12.1,23z M10.9,18c-0.5,0-0.9,0.4-0.9,0.9v0.4
 c0,0.5,0.4,0.9,0.9,0.9h2.5c0.4,0,0.8-0.3,0.9-0.8c2.5,0,4.8-1.8,5.4-4.2c0.9-0.1,1.7-0.8,1.8-1.7l0.1-2.3c0-0.9-0.6-1.7-1.5-1.9
 c-1.1-3.4-4.3-5.6-7.8-5.6c-3.6,0-6.7,2.3-7.8,5.7C3.4,9.4,2.8,10.2,2.8,11v2.3c0.1,1.1,1,1.9,2.1,1.9h0.3c0.6,0,1-0.4,1.1-0.9v-4.2
 c0-0.5-0.4-0.8-0.8-0.9C6,7.9,6.9,6.8,8.1,6c1.2-0.8,2.6-1.3,4-1.3c2.9,0,5.5,1.8,6.6,4.5C18.3,9.3,18,9.6,18,10l-0.2,4.2
 c0,0.2,0.1,0.5,0.2,0.6c0.2,0.2,0.5,0.3,0.8,0.4l0.1,0c-0.6,2.1-2.5,3.6-4.7,3.6c-0.1-0.4-0.4-0.7-0.9-0.7L10.9,18z M9.5,10.6
 c0.2,0,0.3,0.1,0.4,0.2c0.1,0.1,0.2,0.3,0.1,0.4c0,0.2-0.1,0.4-0.2,0.5c-0.2,0.3-0.5,0.5-0.7,0.7c-0.4,0.3-0.6,0.5-0.8,0.6l-0.6,0.4
 c-0.2,0.1-0.3,0.4-0.3,0.6v0.6c0,0.2,0.1,0.3,0.3,0.3c0,0,0,0,0,0h3.6c0.2,0,0.3-0.2,0.3-0.3l0-0.7c0-0.1,0-0.2-0.1-0.2
 c-0.1-0.1-0.1-0.1-0.2-0.1H9.6c0.7-0.4,1.3-0.9,1.8-1.5c0.2-0.3,0.3-0.7,0.3-1c0-0.5-0.2-1-0.6-1.3c-0.4-0.3-1-0.5-1.5-0.5
 c-0.5,0-1,0.2-1.5,0.5c-0.4,0.3-0.6,0.7-0.7,1.1c0,0.1,0,0.2,0,0.2c0,0.1,0.1,0.1,0.2,0.2l0.8,0.1c0,0,0,0,0.1,0
 c0.2,0,0.3-0.1,0.3-0.3C9,10.8,9.2,10.6,9.5,10.6L9.5,10.6z M14.4,9.3L14.4,9.3l-2.1,3.2v0.9c0,0.2,0.1,0.3,0.3,0.3h2v0.9
 c0,0.2,0.1,0.3,0.3,0.3c0,0,0,0,0,0h0.9c0.2,0,0.3-0.1,0.3-0.3c0,0,0,0,0,0v-0.9h0.5c0.2,0,0.3-0.1,0.3-0.3c0,0,0,0,0,0v-0.6
 c0-0.2-0.1-0.3-0.3-0.3c0,0,0,0,0,0h-0.5V9.6c0-0.2-0.1-0.3-0.3-0.3c0,0,0,0,0,0L14.4,9.3L14.4,9.3z M14.6,12.6h-1.1l1.1-1.7V12.6
 L14.6,12.6z"></path>
          <g>
            <path class="st1" d="M18.7,9.2C18.3,9.3,18,9.6,18,10l-0.2,4.2c0,0.2,0.1,0.5,0.2,0.6c0.2,0.2,0.5,0.3,0.8,0.4l0.1,0
 c-0.6,2.1-2.5,3.6-4.7,3.6c-0.1-0.4-0.4-0.7-0.9-0.7l-2.5,0c-0.5,0-0.9,0.4-0.9,0.9v0.4c0,0.5,0.4,0.9,0.9,0.9h2.5
 c0.4,0,0.8-0.3,0.9-0.8c2.5,0,4.8-1.8,5.4-4.2c0.9-0.1,1.7-0.8,1.8-1.7l0.1-2.3c0-0.9-0.6-1.7-1.5-1.9c-0.6-1.7-1.6-3.1-3-4.1
 c-1.4-1-3-1.6-4.8-1.6c-3.6,0-6.7,2.3-7.8,5.7C3.4,9.4,2.8,10.2,2.8,11v2.3c0.1,1.1,1,1.9,2.1,1.9h0.3c0.6,0,1-0.4,1.1-0.9v-4.2
 c0-0.5-0.4-0.8-0.8-0.9C6,7.9,6.9,6.8,8.1,6c1.2-0.8,2.6-1.3,4-1.3c1.3,0,2.6,0.4,3.7,1.1C17.1,6.6,18.2,7.7,18.7,9.2z">
            </path>
            <path class="st1" d="M11.7,14.7l0-0.7c0-0.1,0-0.2-0.1-0.2c-0.1-0.1-0.1-0.1-0.2-0.1H9.6c0.7-0.4,1.3-0.9,1.8-1.5
 c0.2-0.3,0.3-0.7,0.3-1c0-0.4-0.1-0.8-0.4-1.1c-0.1-0.1-0.1-0.1-0.2-0.2c-0.4-0.3-1-0.5-1.5-0.5c-0.5,0-1,0.2-1.5,0.5
 c-0.4,0.3-0.6,0.7-0.7,1.1c0,0.1,0,0.2,0,0.2c0,0.1,0.1,0.1,0.2,0.2l0.8,0.1c0,0,0,0,0.1,0c0.2,0,0.3-0.1,0.3-0.3
 c0.1-0.4,0.3-0.6,0.6-0.6l0,0c0.2,0,0.3,0.1,0.4,0.2c0.1,0.1,0.2,0.3,0.1,0.4c0,0.2-0.1,0.4-0.2,0.5c-0.2,0.3-0.5,0.5-0.7,0.7
 c-0.4,0.3-0.6,0.5-0.8,0.6l-0.6,0.4c-0.2,0.1-0.3,0.4-0.3,0.6v0.6c0,0.2,0.1,0.3,0.3,0.3c0,0,0,0,0,0h1.4h2.3
 C11.6,15,11.7,14.9,11.7,14.7z"></path>
            <path class="st1" d="M12.6,13.8h2v0.9c0,0.2,0.1,0.3,0.3,0.3c0,0,0,0,0,0h0.9c0.2,0,0.3-0.1,0.3-0.3c0,0,0,0,0,0v-0.9h0.5
 c0.2,0,0.3-0.1,0.3-0.3c0,0,0,0,0,0v-0.6c0-0.2-0.1-0.3-0.3-0.3c0,0,0,0,0,0h-0.5V9.6c0-0.2-0.1-0.3-0.3-0.3c0,0,0,0,0,0h-1.4l0,0
 l-2.1,3.2v0.9C12.3,13.7,12.4,13.8,12.6,13.8z M14.6,10.9v1.7v0h-1.1L14.6,10.9z"></path>
            <path class="st1" d="M9.3,23c-0.4-1.4-0.6-2.8-0.6-4.4c0-1.2,0.2-2.4,0.4-3.6H7.8c0,0,0,0,0,0c-0.2,0-0.3-0.1-0.3-0.3v-0.6
 c0-0.2,0.1-0.5,0.3-0.6l0.6-0.4c0.1-0.1,0.4-0.3,0.8-0.6c0.3-0.2,0.5-0.5,0.7-0.7c0.1-0.2,0.2-0.3,0.2-0.5c0-0.2,0-0.3-0.1-0.4
 c-0.1-0.1-0.2-0.2-0.4-0.2l0,0c-0.3,0-0.6,0.2-0.6,0.6c0,0.2-0.2,0.3-0.3,0.3c0,0,0,0-0.1,0l-0.8-0.1c-0.1,0-0.2-0.1-0.2-0.2
 c0-0.1-0.1-0.2,0-0.2c0.1-0.4,0.3-0.8,0.7-1.1c0.4-0.3,0.9-0.5,1.5-0.5c0.5,0,1.1,0.2,1.5,0.5c0.1,0.1,0.1,0.1,0.2,0.2
 c1.2-1.7,2.7-3.2,4.5-4.3c-1.1-0.7-2.4-1.1-3.7-1.1c-1.4,0-2.9,0.4-4,1.3C6.9,6.8,6,7.9,5.5,9.2c0.4,0.1,0.8,0.4,0.8,0.9v4.2
 c0,0.5-0.5,1-1.1,0.9H4.9c-1.1,0.1-2-0.8-2.1-1.9V11c0-0.9,0.7-1.6,1.5-1.8c1.1-3.4,4.3-5.7,7.8-5.7c1.8,0,3.5,0.6,4.8,1.6
 c1-0.5,2-0.9,3-1.1c-2.1-2.1-4.9-3.3-7.8-3.2C9.2,0.8,6.3,2,4.3,4C2.2,6.1,1,9,1,11.9c0,2.9,1.2,5.8,3.3,7.8L1,23H9.3z">
            </path>
            <linearGradient id="LCSVGID_1_" gradientUnits="userSpaceOnUse" x1="-41.3888" y1="40.3799" x2="-41.2858"
              y2="40.0839" gradientTransform="matrix(29.43 0 0 -30.098 1231.1969 1222.6119)">
              <stop offset="0" style="stop-color: rgb(250, 250, 250); stop-opacity: 0.408;"></stop>
              <stop offset="1" style="stop-color: rgb(255, 255, 255); stop-opacity: 0;"></stop>
            </linearGradient>
            <path class="st2" d="M20,9.2c0.9,0.2,1.5,1,1.5,1.9l-0.1,2.3c-0.1,0.9-0.8,1.7-1.8,1.7c-0.6,2.5-2.8,4.2-5.4,4.2
 c-0.1,0.4-0.4,0.8-0.9,0.8h-2.5c-0.5,0-0.9-0.4-0.9-0.9v-0.4c0-0.5,0.4-0.9,0.9-0.9l2.5,0c0.4,0,0.8,0.3,0.9,0.7
 c2.2,0,4.1-1.5,4.7-3.6l-0.1,0c-0.3,0-0.6-0.1-0.8-0.4c-0.2-0.2-0.2-0.4-0.2-0.6L18,10c0-0.4,0.3-0.8,0.7-0.8
 c-0.6-1.5-1.6-2.6-2.9-3.4c-1.8,1.1-3.3,2.5-4.5,4.3c0.3,0.3,0.4,0.7,0.4,1.1c0,0.4-0.1,0.7-0.3,1c-0.5,0.6-1.2,1.1-1.8,1.5h1.8
 c0.1,0,0.2,0,0.2,0.1c0.1,0.1,0.1,0.1,0.1,0.2l0,0.7c0,0.2-0.1,0.3-0.3,0.3H9.1c-0.3,1.2-0.4,2.4-0.4,3.6c0,1.5,0.2,3,0.6,4.4h2.8
 c2.9,0,5.8-1.2,7.8-3.2c2.1-2.1,3.3-4.9,3.3-7.9C23.2,9,22.1,6.1,20,4c0,0,0,0,0,0c-1.1,0.3-2.1,0.6-3,1.1
 C18.3,6.1,19.4,7.6,20,9.2z M12.3,12.6l2.1-3.2l0,0h1.4c0,0,0,0,0,0c0.2,0,0.3,0.1,0.3,0.3v2.9h0.5c0,0,0,0,0,0
 c0.2,0,0.3,0.1,0.3,0.3v0.6c0,0,0,0,0,0c0,0.2-0.1,0.3-0.3,0.3h-0.5v0.9c0,0,0,0,0,0c0,0.2-0.1,0.3-0.3,0.3h-0.9c0,0,0,0,0,0
 c-0.2,0-0.3-0.1-0.3-0.3v-0.9h-2c-0.2,0-0.3-0.1-0.3-0.3V12.6z"></path>
            <linearGradient id="LCSVGID_2_" gradientUnits="userSpaceOnUse" x1="-41.4067" y1="40.3736" x2="-41.3037"
              y2="40.0776" gradientTransform="matrix(29.43 0 0 -30.098 1231.1969 1222.6119)">
              <stop offset="0" style="stop-color: rgb(250, 250, 250); stop-opacity: 0.408;"></stop>
              <stop offset="1" style="stop-color: rgb(255, 255, 255); stop-opacity: 0;"></stop>
            </linearGradient>
            <polygon class="st3" points="14.6,12.6 14.6,10.9 13.5,12.6 14.6,12.6 	"></polygon>
          </g>
        </svg>