<?xml version="1.0" encoding="utf-8"?>
<!-- Generator: Adobe Illustrator 24.2.3, SVG Export Plug-In . SVG Version: 6.00 Build 0)  -->
<svg version="1.1" id="ico_contactus"
            xmlns="http://www.w3.org/2000/svg" xmlns:xlink="http://www.w3.org/1999/xlink" x="0px" y="0px"
            viewBox="0 0 28 28" enable-background="new 0 0 28 28;" xml:space="preserve">
            <g>
              <linearGradient id="PathContactus_17_2_" gradientUnits="userSpaceOnUse" x1="-38.6335" y1="42.3743"
                x2="-38.6335" y2="41.3743" gradientTransform="matrix(19.8291 0 0 -19.8399 780.0682 844.7829)">
                <stop className="c-icon-gradient" offset="0"></stop>
                <stop className="c-icon-gradient c-icon-gradient--dark" offset="1"></stop>
              </linearGradient>
              <path id="PathContactus_17" className="st0" d="M4.1,4.7c0-0.3,0.3-0.6,0.6-0.6h4.1c0.3,0,0.6,0.3,0.6,0.6C9.3,6.1,9.6,7.6,10,9
c0.1,0.2,0,0.4-0.1,0.6L7,12.5l0.2,0.4c1.7,3.4,4.5,6.2,7.9,7.9l0.4,0.2l2.9-2.9c0.2-0.2,0.4-0.2,0.6-0.2c1.4,0.5,2.9,0.7,4.3,0.7
c0.3,0,0.6,0.3,0.6,0.6v4.1c0,0.3-0.3,0.6-0.6,0.6C12.7,23.9,4.1,15.3,4.1,4.7z M22.7,13.4C22.4,9,19,5.6,14.6,5.3V4.1
c5,0.3,9,4.3,9.3,9.3L22.7,13.4z M18,13.4c-0.3-1.8-1.7-3.2-3.5-3.5V8.8c2.4,0.3,4.4,2.2,4.6,4.6L18,13.4z"></path>
              <g>
                <defs>
                  <path id="PathContactus_17_1_" d="M4.1,4.7c0-0.3,0.3-0.6,0.6-0.6h4.1c0.3,0,0.6,0.3,0.6,0.6C9.3,6.1,9.6,7.6,10,9
c0.1,0.2,0,0.4-0.1,0.6L7,12.5l0.2,0.4c1.7,3.4,4.5,6.2,7.9,7.9l0.4,0.2l2.9-2.9c0.2-0.2,0.4-0.2,0.6-0.2
c1.4,0.5,2.9,0.7,4.3,0.7c0.3,0,0.6,0.3,0.6,0.6v4.1c0,0.3-0.3,0.6-0.6,0.6C12.7,23.9,4.1,15.3,4.1,4.7z M22.7,13.4
C22.4,9,19,5.6,14.6,5.3V4.1c5,0.3,9,4.3,9.3,9.3L22.7,13.4z M18,13.4c-0.3-1.8-1.7-3.2-3.5-3.5V8.8c2.4,0.3,4.4,2.2,4.6,4.6
L18,13.4z"></path>
                </defs>
                <clipPath id="PathContactus_17_3_">
                  <use xlink:href="#PathContactus_17_1_" overflow="visible"></use>
                </clipPath>
                <linearGradient id="PathContactus_9_1_" gradientUnits="userSpaceOnUse" x1="-38.8654" y1="42.4449"
                  x2="-38.8654" y2="41.4449" gradientTransform="matrix(22.3611 0 0 -22.361 885.6708 954.525)">
                  <stop offset="0" stop-color="#FFFFFF"></stop>
                  <stop offset="1" stop-color="#FFFFFF" stop-opacity="0"></stop>
                </linearGradient>
                <path id="PathContactus_9" className="st1" d="M5.4,27.8c0-12.3,10-22.4,22.4-22.4l0,0v22.4H5.4z"></path>
              </g>
            </g>
          </svg>