<?xml version="1.0" encoding="utf-8"?>
<svg version="1.1" id="ico_saba" xmlns="http://www.w3.org/2000/svg"
          xmlns:xlink="http://www.w3.org/1999/xlink" x="0px" y="0px" viewBox="0 0 28 28" xml:space="preserve">
          <g id="path_27" transform="translate(2.333 2.333)" class="st0">
            <linearGradient id="path_4980_1_" gradientUnits="userSpaceOnUse" x1="3.872" y1="15.605" x2="17.404"
              y2="15.605">
              <stop class="icon-gradient" offset="0"></stop>
              <stop class="icon-gradient icon-gradient--dark" offset="1"></stop>
            </linearGradient>
            <path id="path_4980" class="st1" d="M11.4,19.8c0.7,0.1,1.4,0.2,2.1,0.2c1.4-0.3,2.7-0.9,3.9-1.7C12,18.3,7,15.6,3.9,11.2
 c0,0.5-0.1,1-0.1,1.5c0,1.3,0.2,2.7,0.5,4C6.4,18.3,8.8,19.4,11.4,19.8z"></path>
            <linearGradient id="path_4981_1_" gradientUnits="userSpaceOnUse" x1="3.212" y1="17.385" x2="4.6"
              y2="17.385">
              <stop offset="0" style="stop-color: rgb(95, 134, 197);"></stop>
              <stop offset="1" style="stop-color: rgb(49, 96, 172);"></stop>
            </linearGradient>
            <path id="path_4981" class="st2" d="M3.2,16.1c0.3,0.7,0.7,1.5,1.2,2.1c0.1,0.1,0.1,0.2,0.2,0.3c-0.2-0.6-0.4-1.2-0.6-1.8
 C3.8,16.6,3.5,16.4,3.2,16.1z"></path>
            <linearGradient id="path_4982_1_" gradientUnits="userSpaceOnUse" x1="4.519" y1="18.849" x2="12.097"
              y2="18.849">
              <stop offset="0" style="stop-color: rgb(95, 134, 197);"></stop>
              <stop offset="1" style="stop-color: rgb(49, 96, 172);"></stop>
            </linearGradient>
            <path id="path_4982" class="st3" d="M12.1,20.3c-0.3,0-0.5-0.1-0.8-0.1c-2.5-0.4-4.8-1.4-6.8-2.9c0.2,0.8,0.5,1.6,0.9,2.3
 c1.4,0.5,2.8,0.8,4.3,0.8C10.5,20.5,11.3,20.4,12.1,20.3z"></path>
            <linearGradient id="path_4983_1_" gradientUnits="userSpaceOnUse" x1="1.6387" y1="11.4925" x2="3.899"
              y2="11.4925">
              <stop offset="0" style="stop-color: rgb(95, 134, 197);"></stop>
              <stop offset="1" style="stop-color: rgb(49, 96, 172);"></stop>
            </linearGradient>
            <path id="path_4983" class="st4" d="M3.9,16.3c-0.4-1.8-0.5-3.7-0.3-5.6c-0.8-1.2-1.4-2.6-1.9-4c-0.3,2.9,0,5.8,1.1,8.6
 C3.2,15.6,3.5,16,3.9,16.3z"></path>
            <linearGradient id="path_4984_1_" gradientUnits="userSpaceOnUse" x1="9.693" y1="12.5265" x2="11.4075"
              y2="12.5265">
              <stop offset="0" style="stop-color: rgb(95, 134, 197);"></stop>
              <stop offset="1" style="stop-color: rgb(49, 96, 172);"></stop>
            </linearGradient>
            <path id="path_4984" class="st5" d="M10.9,12H9.7v1.1h1.2c0.3,0,0.5-0.2,0.5-0.5S11.2,12,10.9,12z"></path>
            <linearGradient id="path_4985_1_" gradientUnits="userSpaceOnUse" x1="-9.766611e-04" y1="11.669" x2="23.333"
              y2="11.669">
              <stop offset="0" style="stop-color: rgb(95, 134, 197);"></stop>
              <stop offset="1" style="stop-color: rgb(49, 96, 172);"></stop>
            </linearGradient>
            <path id="path_4985" class="st6" d="M11.7,0C5.2,0,0,5.2,0,11.7s5.2,11.7,11.7,11.7c6.4,0,11.7-5.2,11.7-11.7c0,0,0,0,0,0
 C23.3,5.2,18.1,0,11.7,0z M12.7,12.5c0,1-0.8,1.8-1.8,1.8c0,0,0,0,0,0l-2.5,0l0-4.6h0h1.3v1h1.2c0.3,0,0.5-0.2,0.5-0.5c0,0,0,0,0,0
 c0-0.2-0.1-0.3-0.2-0.4c0.4-0.1,0.8-0.3,1.1-0.6c0.2,0.3,0.3,0.7,0.3,1.1c0,0.4-0.1,0.9-0.4,1.2C12.6,11.7,12.7,12.1,12.7,12.5
 L12.7,12.5z M9.4,5.1c0.1,0.1,0.2,0.2,0.4,0.2h0.7c1,0,1.9,0.8,1.9,1.9c0,1-0.8,1.9-1.9,1.9H8.4V7.7h2.1c0.3,0,0.5-0.2,0.5-0.6
 s-0.2-0.6-0.5-0.6H9.8C8.8,6.5,8,5.7,8,4.7c0-1,0.8-1.9,1.9-1.9h2.1v1.3H9.8c-0.3,0-0.5,0.2-0.5,0.6C9.3,4.8,9.3,5,9.4,5.1L9.4,5.1
 z M13.9,6.9l2.3-4.1l3.2,5.8h-1.4l-1.4-2.6L13.9,6.9z M15.2,7.3l-0.8,1.4h-1.4l0.5-0.9L15.2,7.3z M13.3,13.5l1.8-0.6l-0.8,1.4h-1.4
 L13.3,13.5z M13.8,12.6l1.1-2.1l1.6-2.8l3.7,6.7l-1.4,0l-1.6-3L13.8,12.6z M2,17.7c0.8,0.6,1.7,1.1,2.6,1.5
 c-0.2-0.2-0.4-0.5-0.5-0.8c-0.6-1-1.1-2-1.5-3c-0.6-0.7-1.2-1.4-1.7-2.1c-0.2-0.3-0.4-0.6-0.6-0.9c0-0.2,0-0.5,0-0.8
 c0-2.1,0.6-4.1,1.6-5.8c0.4,1.5,1,3,1.8,4.3c0.6-3.6,2.3-7,5-9.5c0.2-0.1,0.5-0.1,0.7-0.2C6.4,3.1,4.5,6.7,4,10.6
 c3,4.6,8.1,7.4,13.6,7.4c0.1,0,0.2,0,0.3,0c2.7-1.9,4.5-4.8,5-8.1c0.1,0.6,0.1,1.1,0.1,1.7c0,2.3-0.7,4.5-1.9,6.3
 c-1,0.2-2,0.3-3.1,0.4c-1,0.7-2,1.2-3.1,1.6c2.2-0.2,4.3-0.8,6.1-1.9c-0.2,0.2-0.3,0.5-0.5,0.7c-2.1,1.1-4.5,1.6-6.8,1.6h-0.2
 c-1.1,0.3-2.2,0.4-3.4,0.4c-0.2,0-0.3,0-0.5,0c-1.4,0-2.7-0.3-4-0.7c0.8,1,1.8,1.8,2.8,2.5c-0.4-0.1-0.7-0.2-1.1-0.4
 c-0.4-0.3-0.7-0.6-1.1-1c0.1,0.2,0.3,0.5,0.5,0.7C4.8,21,3.2,19.6,2,17.7z"></path>
          </g>
          <rect id="path_58" class="st7" width="28" height="28"></rect>
          <g class="st0">
            <linearGradient id="SVGID_1_" gradientUnits="userSpaceOnUse" x1="6.1871" y1="17.9934" x2="19.7191"
              y2="17.9934">
              <stop offset="0" style="stop-color: rgb(255, 255, 255);"></stop>
              <stop offset="1" style="stop-color: rgb(255, 255, 255); stop-opacity: 0;"></stop>
            </linearGradient>
            <path class="st8" d="M13.7,22.2c0.7,0.1,1.4,0.2,2.1,0.2c1.4-0.3,2.7-0.9,3.9-1.7C14.3,20.7,9.3,18,6.3,13.6c0,0.5-0.1,1-0.1,1.5
 c0,1.3,0.2,2.7,0.5,4C8.7,20.7,11.1,21.8,13.7,22.2z"></path>
            <linearGradient id="SVGID_2_" gradientUnits="userSpaceOnUse" x1="5.5271" y1="19.7733" x2="6.9151"
              y2="19.7733">
              <stop offset="0" style="stop-color: rgb(255, 255, 255);"></stop>
              <stop offset="1" style="stop-color: rgb(255, 255, 255); stop-opacity: 0;"></stop>
            </linearGradient>
            <path class="st9" d="M5.5,18.5c0.3,0.7,0.7,1.5,1.2,2.1c0.1,0.1,0.1,0.2,0.2,0.3c-0.2-0.6-0.4-1.2-0.6-1.8
 C6.1,19,5.8,18.8,5.5,18.5z"></path>
            <linearGradient id="SVGID_3_" gradientUnits="userSpaceOnUse" x1="6.8341" y1="21.2373" x2="14.4121"
              y2="21.2373">
              <stop offset="0" style="stop-color: rgb(255, 255, 255);"></stop>
              <stop offset="1" style="stop-color: rgb(255, 255, 255); stop-opacity: 0;"></stop>
            </linearGradient>
            <path class="st10" d="M12,22.8c0.8,0,1.6,0,2.4-0.1c-0.3,0-0.5-0.1-0.8-0.1c-2.5-0.4-4.8-1.4-6.8-2.9c0.2,0.8,0.5,1.6,0.9,2.3
 C9.1,22.5,10.5,22.8,12,22.8z"></path>
            <linearGradient id="SVGID_4_" gradientUnits="userSpaceOnUse" x1="4.73" y1="16.3688" x2="6.2141"
              y2="16.3688">
              <stop offset="0" style="stop-color: rgb(255, 255, 255);"></stop>
              <stop offset="1" style="stop-color: rgb(255, 255, 255); stop-opacity: 0;"></stop>
            </linearGradient>
            <path class="st11" d="M6.2,18.7c-0.3-1.5-0.4-3.1-0.3-4.6c-0.4,0.7-0.8,1.5-1.1,2.3c0.1,0.4,0.3,0.9,0.4,1.3
 C5.5,18,5.8,18.3,6.2,18.7z"></path>
            <linearGradient id="SVGID_5_" gradientUnits="userSpaceOnUse" x1="12.0081" y1="14.9148" x2="13.7226"
              y2="14.9148">
              <stop offset="0" style="stop-color: rgb(255, 255, 255);"></stop>
              <stop offset="1" style="stop-color: rgb(255, 255, 255); stop-opacity: 0;"></stop>
            </linearGradient>
            <path class="st12" d="M13.2,14.4H12v1.1h1.2c0.3,0,0.5-0.2,0.5-0.5S13.5,14.4,13.2,14.4z"></path>
            <linearGradient id="SVGID_6_" gradientUnits="userSpaceOnUse" x1="3.6742" y1="19.9438" x2="25.3432"
              y2="19.9438">
              <stop offset="0" style="stop-color: rgb(255, 255, 255);"></stop>
              <stop offset="1" style="stop-color: rgb(255, 255, 255); stop-opacity: 0;"></stop>
            </linearGradient>
            <path class="st13" d="M20.4,20.8c-1,0.7-2,1.2-3.1,1.6c2.2-0.2,4.3-0.8,6.1-1.9c-0.2,0.2-0.3,0.5-0.5,0.7c-2.1,1.1-4.5,1.6-6.8,1.6
 h-0.2c-1.1,0.3-2.2,0.4-3.4,0.4c-0.2,0-0.3,0-0.5,0c-1.4,0-2.7-0.3-4-0.7c0.8,1,1.8,1.8,2.8,2.5c-0.4-0.1-0.7-0.2-1.1-0.4
 c-0.4-0.3-0.7-0.6-1.1-1c0.1,0.2,0.3,0.5,0.5,0.7c-1.9-0.9-3.6-2.4-4.7-4.2c0.8,0.6,1.7,1.1,2.6,1.5c-0.2-0.2-0.4-0.5-0.5-0.8
 c-0.6-1-1.1-2-1.5-3c-0.2-0.2-0.3-0.4-0.5-0.6c-0.3,0.7-0.5,1.5-0.7,2.2c1.4,2.6,3.7,4.6,6.4,5.5h7.7c3.7-1.3,6.6-4.5,7.5-8.4v-1.8
 c-0.1,2-0.8,3.9-1.9,5.6C22.4,20.6,21.4,20.7,20.4,20.8z"></path>
            <linearGradient id="SVGID_7_" gradientUnits="userSpaceOnUse" x1="6.4152" y1="11.9965" x2="25.3432"
              y2="11.9965">
              <stop offset="0" style="stop-color: rgb(255, 255, 255);"></stop>
              <stop offset="1" style="stop-color: rgb(255, 255, 255); stop-opacity: 0;"></stop>
            </linearGradient>
            <path class="st14" d="M19.1,3.6c-1.7,0.5-3.3,1.2-4.9,2.1v0.9h-1.4c-0.4,0.3-0.8,0.5-1.1,0.8c0,0,0,0.1,0.1,0.1l0,0
 c0.1,0.1,0.2,0.2,0.4,0.2h0.7c1,0,1.9,0.8,1.9,1.9c0,1-0.8,1.9-1.9,1.9h-2.1V10h2.1c0.3,0,0.5-0.2,0.5-0.6c0-0.3-0.2-0.5-0.5-0.5
 h-0.7c-0.6,0-1.1-0.3-1.5-0.7c-1.6,1.4-3.1,3.1-4.3,5c3,4.5,8.1,7.2,13.5,7.3c0.1,0,0.2,0,0.3,0c2.7-1.9,4.5-4.8,5-8.1
 c0,0.3,0.1,0.7,0.1,1v-1.9C24.5,8,22.2,5.1,19.1,3.6z M18.4,5.3l3.2,5.8h-1.4l-1.4-2.6l-2.6,0.8L18.4,5.3z M15.7,10.2l1.8-0.6
 l-0.8,1.4h-1.4L15.7,10.2z M15,14.9c0,1-0.8,1.8-1.8,1.8c0,0,0,0,0,0l-2.5,0l0-4.6h0H12v1h1.2c0.3,0,0.5-0.2,0.5-0.5c0,0,0,0,0,0
 c0-0.2-0.1-0.3-0.2-0.4c0.4-0.1,0.8-0.3,1.1-0.6c0.2,0.3,0.3,0.7,0.3,1.1c0,0.4-0.1,0.9-0.4,1.2C14.9,14.1,15,14.5,15,14.9L15,14.9
 z M16.6,16.7h-1.4l0.5-0.9l1.8-0.6L16.6,16.7z M21.1,16.8l-1.6-3L16.1,15l1.1-2.1l1.6-2.8l3.7,6.7L21.1,16.8z"></path>
          </g>
        </svg>