<?xml version="1.0" encoding="utf-8"?>
<!-- Generator: Adobe Illustrator 24.2.3, SVG Export Plug-In . SVG Version: 6.00 Build 0)  -->
<svg version="1.1" id="ico_balance"
            xmlns="http://www.w3.org/2000/svg" xmlns:xlink="http://www.w3.org/1999/xlink" x="0px" y="0px"
            viewBox="0 0 28 28" xml:space="preserve">
            <g>
              <linearGradient id="path_14_1_" gradientUnits="userSpaceOnUse" x1="-25.1852" y1="36.9017"
                x2="-25.1852" y2="37.9017" gradientTransform="matrix(22.1753 0 0 21.0004 572.4904 -771.4498)">
                <stop className="c-icon-gradient" offset="0"></stop>
                <stop className="c-icon-gradient c-icon-gradient--dark" offset="1"></stop>
              </linearGradient>
              <path id="path_14" className="st0" d="M22.8,24.5H6.4c-0.6,0-1.2-0.2-1.8-0.4c-1.2-0.6-1.8-1.8-1.8-3.1V7C2.8,5.7,3.5,4.5,4.7,3.9
c0.5-0.3,1.1-0.4,1.8-0.4h12.8c0.6,0,1.2,0.5,1.2,1.1c0,0,0,0,0,0h-14c-0.8,0-1.6,0.5-2.1,1.2h18.4c0.6,0,1.2,0.5,1.2,1.1
c0,0,0,0,0,0v5.8c0.6,0,1.2,0.5,1.2,1.2v2.3c0,0.6-0.5,1.2-1.2,1.2v5.8C23.9,24,23.4,24.5,22.8,24.5C22.8,24.5,22.8,24.5,22.8,24.5
z M9.9,18.7v1.2h1.2v-1.2h1.2l0,0h0c1.3,0,2.3-1,2.3-2.3c0,0,0-0.1,0-0.1c0-1.3-1-2.3-2.3-2.3c0,0,0,0-0.1,0H8.8
c-0.6,0-1.2-0.5-1.2-1.1c0,0,0,0,0,0c0-0.6,0.5-1.2,1.1-1.2c0,0,0,0,0,0h5.8v-1.2h-3.5V9.3H9.9v1.2H8.8v0c-1.3,0-2.3,1-2.3,2.3
c0,0,0,0.1,0,0.1c0,1.3,1,2.3,2.3,2.3c0,0,0.1,0,0.1,0h3.5c0.6,0,1.2,0.5,1.2,1.2c0,0,0,0,0,0c0,0.6-0.5,1.2-1.1,1.2
c0,0-0.1,0-0.1,0H6.4v1.2C6.4,18.7,9.9,18.7,9.9,18.7z M18.1,14v2.3h5.8V14H18.1z"></path>
              <g>
                <linearGradient id="SVGID_1_" gradientUnits="userSpaceOnUse" x1="10.1473" y1="8.8719" x2="10.1473"
                  y2="6.4979" gradientTransform="matrix(1 0 0 -1 0 24)">
                  <stop offset="0" style="stop-color: rgb(255, 255, 255);"></stop>
                  <stop offset="1" style="stop-color: rgb(255, 255, 255); stop-opacity: 0;"></stop>
                </linearGradient>
                <path className="st1" d="M12.2,17.5C12.2,17.5,12.3,17.5,12.2,17.5c0.7,0,1.2-0.5,1.2-1.2c0,0,0,0,0,0c0-0.6-0.5-1.2-1.2-1.2H8.8
c0,0-0.1,0-0.1,0c-0.1,0-0.2,0-0.3,0c-0.6,0.8-1.1,1.5-1.5,2.4H12.2z"></path>
                <linearGradient id="SVGID_2_" gradientUnits="userSpaceOnUse" x1="14.7907" y1="17.8139" x2="14.7907"
                  y2="-0.5001" gradientTransform="matrix(1 0 0 -1 0 24)">
                  <stop offset="0" style="stop-color: rgb(255, 255, 255);"></stop>
                  <stop offset="1" style="stop-color: rgb(255, 255, 255); stop-opacity: 0;"></stop>
                </linearGradient>
                <path className="st2" d="M14.6,10.5v1.2h-3c-0.8,0.7-1.6,1.5-2.3,2.3h3c0,0,0,0,0.1,0c1.3,0,2.3,1.1,2.3,2.3c0,0,0,0.1,0,0.1
c0,1.3-1.1,2.3-2.3,2.3h0h-1.2v1.2H9.9v-1.2H6.4v-0.3C5.5,20.1,4.9,22,4.5,24c0.1,0,0.1,0.1,0.2,0.1c0.5,0.3,1.1,0.4,1.8,0.4h16.3
c0,0,0,0,0,0c0.6,0,1.1-0.5,1.1-1.2v-5.8c0.6,0,1.2-0.5,1.2-1.2V14c0-0.6-0.5-1.2-1.2-1.2V7c0,0,0,0,0,0c0-0.3-0.1-0.6-0.3-0.8
c-4,0.5-7.6,2-10.6,4.3H14.6z M18.1,14h5.8v2.3h-5.8L18.1,14L18.1,14z"></path>
              </g>
            </g>
          </svg>