<?xml version="1.0" encoding="utf-8"?>
<svg version="1.1" id="ico_all_sports" xmlns="http://www.w3.org/2000/svg"
          xmlns:xlink="http://www.w3.org/1999/xlink" x="0px" y="0px" viewBox="0 0 36 36" xml:space="preserve">
          <g>
            <g id="PathSports" transform="translate(3 2.975)" class="st0">
              <path id="PathSports_7" class="st1"
                d="M13.5,29.6c-2.5-0.7-4.6-2.3-6.1-4.4c-1.2-1.7-1.8-3.7-1.9-5.8c0-0.1,0-0.2,0-0.4 c0-4.6,2.9-8.7,7.2-10.3c2.4-0.9,5.1-0.9,7.5,0c3.6,1.3,6.3,4.5,7,8.3c0.1,0.3,0.1,0.7,0.2,1.1c0,0.3,0,0.6,0,0.9 c0,0.1,0,0.2,0,0.4c-0.1,2.1-0.7,4.1-1.9,5.8c-1.1,1.6-2.5,2.9-4.3,3.7c-0.6,0.3-1.2,0.5-1.8,0.7l0,0 C17.5,30.1,15.4,30.1,13.5,29.6L13.5,29.6z M2,15.6C-0.7,13-0.8,8.8,1.8,6.1s6.9-2.8,9.5-0.2C11.4,6,11.4,6,11.5,6.1 C11.8,6.4,12,6.7,12.2,7c1.1-4.8,5.9-7.9,10.7-6.8s7.9,5.9,6.8,10.7c-0.3,1.5-1,2.9-2.1,4c-1.2-3.4-3.8-6-7.2-7.2 c-2.6-0.9-5.3-1-7.9-0.1v0c-0.1,0-0.2,0-0.3,0.1c-0.1,0-0.2,0.1-0.3,0.1c0,0,0,0,0,0c-4,1.6-6.8,5.1-7.5,9.4 C3.6,16.9,2.7,16.4,2,15.6z">
              </path>
              <linearGradient id="PathSports_5_2_" gradientUnits="userSpaceOnUse" x1="-38.269" y1="43.725" x2="-38.269"
                y2="42.725" gradientTransform="matrix(30.0575 0 0 -30.0024 1165.2463 1311.8439)">
                <stop class="icon-gradient" offset="0"></stop>
                <stop class="icon-gradient icon-gradient--dark" offset="1"></stop>
              </linearGradient>
              <path id="PathSports_5" class="st2"
                d="M13.5,29.6c-2.5-0.7-4.6-2.3-6.1-4.4c-1.2-1.7-1.8-3.7-1.9-5.8c0-0.1,0-0.2,0-0.4 c0-4.6,2.9-8.7,7.2-10.3c2.4-0.9,5.1-0.9,7.5,0c3.6,1.3,6.3,4.5,7,8.3c0.1,0.3,0.1,0.7,0.2,1.1c0,0.3,0,0.6,0,0.9 c0,0.1,0,0.2,0,0.4c-0.1,2.1-0.7,4.1-1.9,5.8c-1.1,1.6-2.5,2.9-4.3,3.7c-0.6,0.3-1.2,0.5-1.8,0.7l0,0 C17.5,30.1,15.4,30.1,13.5,29.6L13.5,29.6z M12.8,25l1.2,3.7c1.6,0.4,3.3,0.4,5,0l1.2-3.7l-1.6-2.2h-4.1L12.8,25z M20.7,18.2 l-1.3,3.9l1.6,2.2h3.8c0.9-1.4,1.4-3.1,1.5-4.7l-3.1-2.3L20.7,18.2z M6.6,19.6c0.1,1.7,0.6,3.3,1.5,4.7H12l1.6-2.2l-1.3-3.9 l-2.6-0.8L6.6,19.6z M17,12v2.7l3.3,2.4l2.6-0.9l1.2-3.7c-1.1-1.3-2.5-2.3-4-2.9L17,12z M8.8,12.7l1.2,3.7l2.6,0.8l3.3-2.4V12 l-3.1-2.3C11.3,10.4,9.9,11.4,8.8,12.7z M2,15.6C-0.7,13-0.7,8.8,1.9,6.1S8.7,3.4,11.4,6c0,0,0.1,0.1,0.1,0.1 C11.8,6.4,12,6.7,12.2,7c1.1-4.8,5.9-7.9,10.7-6.8s7.9,5.9,6.8,10.7c-0.3,1.5-1,2.9-2.1,4c-0.4-1.2-1-2.3-1.8-3.3 c-0.7-0.8-1.4-1.6-2.3-2.2H29c0-0.1,0-0.3,0-0.4s0-0.3,0-0.4h-6.7c-0.3-0.2-0.6-0.3-0.8-0.4v-2l0.1,0c1-0.1,2.1-0.3,3-0.7 c0.9-0.4,1.7-0.9,2.5-1.6c-0.1-0.1-0.3-0.3-0.4-0.4c-0.1-0.1-0.1-0.1-0.2-0.2c-1.3,1.2-3.1,2-4.9,2.1l-0.1,0V1c-0.1,0-0.3,0-0.4,0 s-0.3,0-0.4,0v4.2l-0.1,0c-1.8-0.1-3.6-0.8-4.9-2.1c-0.1,0.1-0.2,0.1-0.2,0.2c-0.1,0.1-0.3,0.3-0.4,0.4c0.7,0.7,1.6,1.2,2.5,1.6 c1,0.4,2,0.7,3,0.7l0.1,0v1.6c0,0,0,0,0,0c-2.6-0.9-5.3-0.9-7.9-0.1v0c-0.1,0-0.2,0-0.2,0.1l0,0c-0.1,0-0.2,0.1-0.3,0.1v0 c-0.9,0.4-1.8,0.9-2.6,1.5c0.3-1,0.8-1.9,1.5-2.7l0,0c-0.2-0.2-0.4-0.3-0.5-0.5l0,0c-1,1.1-1.7,2.4-1.8,3.9 c-2.1,1.9-3.5,4.4-4,7.2C3.6,16.9,2.7,16.4,2,15.6z M2.5,6.6L2.5,6.6c1.1,1.1,1.7,2.7,1.8,4.2c0,1.6-0.6,3.1-1.7,4.2l0,0 c0.2,0.2,0.4,0.3,0.5,0.5l0,0C4.3,14.3,5,12.6,5,10.9c0-1.8-0.7-3.4-1.9-4.7l0,0C2.9,6.3,2.7,6.5,2.5,6.6z">
              </path>
            </g>
            <g>
              <defs>
                <path id="PathSports_7_1_"
                  d="M16.5,32.5c-2.5-0.7-4.6-2.3-6.1-4.4c-1.2-1.7-1.8-3.7-1.9-5.8c0-0.1,0-0.2,0-0.4 c0-4.6,2.9-8.7,7.2-10.3c2.4-0.9,5.1-0.9,7.5,0c3.6,1.3,6.3,4.5,7,8.3c0.1,0.3,0.1,0.7,0.2,1.1c0,0.3,0,0.6,0,0.9 c0,0.1,0,0.2,0,0.4c-0.1,2.1-0.7,4.1-1.9,5.8c-1.1,1.6-2.5,2.9-4.3,3.7c-0.6,0.3-1.2,0.5-1.8,0.7l0,0 C20.5,33.1,18.4,33.1,16.5,32.5L16.5,32.5z M5,18.6C2.3,16,2.2,11.8,4.8,9.1s6.9-2.8,9.5-0.2C14.4,9,14.4,9,14.5,9.1 c0.3,0.3,0.5,0.6,0.7,0.9c1.1-4.8,5.9-7.9,10.7-6.8s7.9,5.9,6.8,10.7c-0.3,1.5-1,2.9-2.1,4c-1.2-3.4-3.8-6-7.2-7.2 c-2.6-0.9-5.3-1-7.9-0.1v0c-0.1,0-0.2,0-0.3,0.1c-0.1,0-0.2,0.1-0.3,0.1c0,0,0,0,0,0c-4,1.6-6.8,5.1-7.5,9.4 C6.6,19.9,5.7,19.3,5,18.6z">
                </path>
              </defs>
              <defs>
                <path id="PathSports_5_1_"
                  d="M16.5,32.5c-2.5-0.7-4.6-2.3-6.1-4.4c-1.2-1.7-1.8-3.7-1.9-5.8c0-0.1,0-0.2,0-0.4 c0-4.6,2.9-8.7,7.2-10.3c2.4-0.9,5.1-0.9,7.5,0c3.6,1.3,6.3,4.5,7,8.3c0.1,0.3,0.1,0.7,0.2,1.1c0,0.3,0,0.6,0,0.9 c0,0.1,0,0.2,0,0.4c-0.1,2.1-0.7,4.1-1.9,5.8c-1.1,1.6-2.5,2.9-4.3,3.7c-0.6,0.3-1.2,0.5-1.8,0.7l0,0 C20.5,33.1,18.4,33.1,16.5,32.5L16.5,32.5z M15.8,27.9l1.2,3.7c1.6,0.4,3.3,0.4,5,0l1.2-3.7l-1.6-2.2h-4.1L15.8,27.9z M23.7,21.2 l-1.3,3.9l1.6,2.2h3.8c0.9-1.4,1.4-3.1,1.5-4.7l-3.1-2.3L23.7,21.2z M9.6,22.6c0.1,1.7,0.6,3.3,1.5,4.7H15l1.6-2.2l-1.3-3.9 l-2.6-0.8L9.6,22.6z M20,15v2.7l3.3,2.4l2.6-0.9l1.2-3.7c-1.1-1.3-2.5-2.3-4-2.9L20,15z M11.8,15.7l1.2,3.7l2.6,0.8l3.3-2.4V15 l-3.1-2.3C14.3,13.4,12.9,14.4,11.8,15.7z M5,18.6C2.3,16,2.3,11.7,4.9,9.1s6.9-2.7,9.5-0.1c0,0,0.1,0.1,0.1,0.1 c0.3,0.3,0.5,0.6,0.7,0.9c1.1-4.8,5.9-7.9,10.7-6.8s7.9,5.9,6.8,10.7c-0.3,1.5-1,2.9-2.1,4c-0.4-1.2-1-2.3-1.8-3.3 c-0.7-0.8-1.4-1.6-2.3-2.2H32c0-0.1,0-0.3,0-0.4s0-0.3,0-0.4h-6.7c-0.3-0.2-0.6-0.3-0.8-0.4v-2l0.1,0c1-0.1,2.1-0.3,3-0.7 c0.9-0.4,1.7-0.9,2.5-1.6c-0.1-0.1-0.3-0.3-0.4-0.4c-0.1-0.1-0.1-0.1-0.2-0.2c-1.3,1.2-3.1,2-4.9,2.1l-0.1,0V4 c-0.1,0-0.3,0-0.4,0s-0.3,0-0.4,0v4.2l-0.1,0c-1.8-0.1-3.6-0.8-4.9-2.1c-0.1,0.1-0.2,0.1-0.2,0.2c-0.1,0.1-0.3,0.3-0.4,0.4 c0.7,0.7,1.6,1.2,2.5,1.6c1,0.4,2,0.7,3,0.7l0.1,0v1.6c0,0,0,0,0,0c-2.6-0.9-5.3-0.9-7.9-0.1v0c-0.1,0-0.2,0-0.2,0.1l0,0 c-0.1,0-0.2,0.1-0.3,0.1v0c-0.9,0.4-1.8,0.9-2.6,1.5c0.3-1,0.8-1.9,1.5-2.7l0,0c-0.2-0.2-0.4-0.3-0.5-0.5l0,0 c-1,1.1-1.7,2.4-1.8,3.9c-2.1,1.9-3.5,4.4-4,7.2C6.6,19.9,5.7,19.3,5,18.6z M5.5,9.6L5.5,9.6c1.1,1.1,1.7,2.7,1.8,4.2 c0,1.6-0.6,3.1-1.7,4.2l0,0c0.2,0.2,0.4,0.3,0.5,0.5l0,0C7.3,17.3,8,15.6,8,13.8c0-1.8-0.7-3.4-1.9-4.7l0,0 C5.9,9.3,5.7,9.4,5.5,9.6z">
                </path>
              </defs>
              <clipPath id="PathSports_7_3_">
                <use xlink:href="#PathSports_7_1_" style="overflow: visible;"></use>
              </clipPath>
              <clipPath id="PathSports_5_3_" class="st3">
                <use xlink:href="#PathSports_5_1_" style="overflow: visible;"></use>
              </clipPath>
              <linearGradient id="PathSports_7_1_" gradientUnits="userSpaceOnUse" x1="-34.544" y1="46.5242" x2="-34.544"
                y2="45.5242" gradientTransform="matrix(18.916 0 0 -18.916 674.2756 897.1367)">
                <stop offset="0" style="stop-color: rgb(255, 255, 255);"></stop>
                <stop offset="1" style="stop-color: rgb(255, 255, 255); stop-opacity: 0;"></stop>
              </linearGradient>
              <path id="PathSports_7" class="st4" d="M11.4,36c0-10.4,8.5-18.9,18.9-18.9l0,0l0,0V36H11.4z"></path>
            </g>
          </g>
        </svg>