<?xml version="1.0" encoding="utf-8"?>
<!-- Generator: Adobe Illustrator 24.2.3, SVG Export Plug-In . SVG Version: 6.00 Build 0)  -->
<svg version="1.1" id="圖層_1" xmlns="http://www.w3.org/2000/svg" xmlns:xlink="http://www.w3.org/1999/xlink" x="0px" y="0px"
	 viewBox="0 0 24 24" style="enable-background:new 0 0 24 24;" xml:space="preserve">
<g id="icon_sound_on">
	<g id="speaker-2" transform="translate(10.000000, 3.000000)">
		<g id="speaker" transform="translate(0.000000, 0.875000)">
			<path id="Path" d="M6,4.7c-0.2-0.2-0.5-0.2-0.7,0c-0.2,0.2-0.2,0.5,0,0.7C6.1,6,6.5,7,6.5,8s-0.4,1.9-1.2,2.6
				c-0.2,0.1-0.2,0.4,0,0.6c0.1,0.1,0.2,0.1,0.4,0.1c0.1,0,0.3,0,0.4-0.1C7,10.4,7.5,9.2,7.5,8S7,5.6,6,4.7z"/>
			<path id="Path_1_" d="M7.4,3.4c-0.2-0.2-0.5-0.2-0.7,0C6.5,3.6,6.5,3.9,6.7,4c1.2,1.1,1.8,2.5,1.8,4s-0.6,2.8-1.8,3.9
				c-0.2,0.1-0.2,0.4,0,0.6c0.1,0.1,0.2,0.1,0.4,0.1c0.1,0,0.3,0,0.4-0.1c1.3-1.2,2-2.8,2-4.5S8.8,4.6,7.4,3.4z"/>
		</g>
	</g>
	<g id="speaker_1_" transform="translate(0.000000, 3.000000)">
		<path id="Path_2_" d="M13.2,3c-0.2,0-0.4,0-0.5,0.1L7.8,6.4H5.5c-0.6,0-1,0.4-1,0.9v3.4c0,0.5,0.4,0.9,1,0.9h2.3l4.9,3.3
			C12.8,15,12.9,15,13,15s0.1,0,0.2,0c0.2-0.1,0.3-0.3,0.3-0.4V3.4C13.5,3.3,13.4,3.1,13.2,3z"/>
	</g>
</g>
</svg>
