<?xml version="1.0" encoding="utf-8"?>
<!-- Generator: Adobe Illustrator 24.2.3, SVG Export Plug-In . SVG Version: 6.00 Build 0)  -->
<svg version="1.1" id="圖層_1" xmlns="http://www.w3.org/2000/svg" xmlns:xlink="http://www.w3.org/1999/xlink" x="0px" y="0px"
	 viewBox="0 0 24 24" style="enable-background:new 0 0 24 24;" xml:space="preserve">
<g id="Clip-2">
</g>
<path d="M17.3,14.8c-0.8,0-1.6,0.4-2.1,1l-6-3.1c0.1-0.2,0.1-0.4,0.1-0.7c0-0.2,0-0.4-0.1-0.6l6-3c0.5,0.6,1.2,0.9,2,0.9
	C18.8,9.2,20,8,20,6.6s-1.2-2.7-2.7-2.7s-2.7,1.2-2.7,2.7c0,0.2,0,0.5,0.1,0.7l-5.9,3c-0.5-0.6-1.2-1-2.1-1C5.2,9.2,4,10.4,4,11.9
	c0,1.5,1.2,2.7,2.7,2.7c0.8,0,1.5-0.4,2-0.9l6,3.1c-0.1,0.2-0.1,0.4-0.1,0.6c0,1.5,1.2,2.7,2.7,2.7s2.7-1.2,2.7-2.7
	C20,16,18.8,14.8,17.3,14.8z"/>
</svg>
