<?xml version="1.0" encoding="utf-8"?>
<!-- Generator: Adobe Illustrator 24.2.3, SVG Export Plug-In . SVG Version: 6.00 Build 0)  -->
<svg version="1.1" id="圖層_1" xmlns="http://www.w3.org/2000/svg" xmlns:xlink="http://www.w3.org/1999/xlink" x="0px" y="0px"
	 viewBox="0 0 24 24" style="enable-background:new 0 0 24 24;" xml:space="preserve">
<style type="text/css">
	.st0{fill-rule:evenodd;clip-rule:evenodd;}
</style>
<g id="icon_sound_off">
	<g id="speaker" transform="translate(0.000000, 3.000000)">
		<path id="Path" d="M12.1,3c-0.2,0-0.4,0-0.5,0.1L6.7,6.4H4.4c-0.6,0-1,0.4-1,0.9v3.4c0,0.5,0.4,0.9,1,0.9h2.3l4.9,3.3
			c0.1,0.1,0.2,0.1,0.3,0.1s0.1,0,0.2,0c0.2-0.1,0.3-0.3,0.3-0.4V3.4C12.4,3.3,12.3,3.1,12.1,3z"/>
	</g>
	<g id="Group" transform="translate(10.232488, 5.661060)">
		<path id="Rectangle" class="st0" d="M5.4,3.7l4.8,4.8c0.2,0.2,0.2,0.6,0,0.8l0,0C10,9.6,9.6,9.6,9.4,9.4L4.6,4.6
			C4.3,4.3,4.3,4,4.6,3.7l0,0C4.8,3.5,5.2,3.5,5.4,3.7z"/>
		<path id="Rectangle_1_" class="st0" d="M9.4,3.7L4.6,8.6c-0.2,0.2-0.2,0.6,0,0.8l0,0c0.2,0.2,0.6,0.2,0.8,0l4.8-4.8
			c0.2-0.2,0.2-0.6,0-0.8l0,0C10,3.5,9.6,3.5,9.4,3.7z"/>
	</g>
</g>
</svg>
