<?xml version="1.0" encoding="utf-8"?>
<!-- Generator: Adobe Illustrator 16.0.0, SVG Export Plug-In . SVG Version: 6.00 Build 0)  -->
<!DOCTYPE svg PUBLIC "-//W3C//DTD SVG 1.1//EN" "http://www.w3.org/Graphics/SVG/1.1/DTD/svg11.dtd">
<svg version="1.1" id="圖層_1" xmlns="http://www.w3.org/2000/svg" xmlns:xlink="http://www.w3.org/1999/xlink" x="0px" y="0px"
	 width="200px" height="200px" viewBox="0 0 200 200" enable-background="new 0 0 200 200" xml:space="preserve">
<g>
	<path fill="#F4F4F4" d="M200,100c0,55.224-44.776,100-100,100C44.776,200,0,155.224,0,100C0,44.776,44.776,0,100,0
		C155.224,0,200,44.776,200,100"/>
	<path opacity="0.54" d="M99.909,120.538l-10.215,10.215v5.441h20.614v-5.441l-10.215-10.215l-0.093-0.09L99.909,120.538z
		 M134.403,67.887c0-4.178,0-18.512,0-18.512s0.014-4.709-4.716-4.709H70.314c-4.729,0-4.716,4.709-4.716,4.709s0,14.333,0,18.512
		s4.729,8.668,4.729,8.668l22.777,22.777l-22.777,22.777c0,0-4.729,4.169-4.729,8.669s0,18.492,0,18.492S65.604,154,70.314,154
		h59.375c4.709,0,4.715-4.729,4.715-4.729s0-13.992,0-18.492s-4.728-8.669-4.728-8.669l-22.778-22.777l22.778-22.777
		C129.676,76.555,134.403,72.065,134.403,67.887z M124.946,130.757v13.783H75.055v-13.783L100,105.805h0.001L124.946,130.757z
		 M124.946,67.91l-24.945,24.945h-0.002L75.055,67.91V54.121h49.892V67.91z"/>
</g>
</svg>
