<?xml version="1.0" encoding="utf-8"?>
<!-- Generator: Adobe Illustrator 16.0.0, SVG Export Plug-In . SVG Version: 6.00 Build 0)  -->
<!DOCTYPE svg PUBLIC "-//W3C//DTD SVG 1.1//EN" "http://www.w3.org/Graphics/SVG/1.1/DTD/svg11.dtd">
<svg version="1.1" id="圖層_1" xmlns="http://www.w3.org/2000/svg" xmlns:xlink="http://www.w3.org/1999/xlink" x="0px" y="0px"
	 width="200px" height="200px" viewBox="0 0 200 200" enable-background="new 0 0 200 200" xml:space="preserve">
<g>
	<path fill="#F4F4F4" d="M200,100c0,55.225-44.776,100-100,100C44.775,200,0,155.225,0,100C0,44.776,44.775,0,100,0
		C155.224,0,200,44.776,200,100"/>
	<path opacity="0.54" d="M100,44.001c-30.876,0-56,25.124-56,55.999c0,30.883,25.124,56.002,56,56.002c30.883,0,56-25.119,56-56.002
		C156,69.125,130.883,44.001,100,44.001z M63.01,128.725c-6.477-8.25-9.904-18.184-9.904-28.725
		c0-25.856,21.038-46.894,46.895-46.894c10.543,0,20.474,3.426,28.725,9.906l1.039,0.813l-65.939,65.938L63.01,128.725z
		 M100,146.889c-10.536,0-20.476-3.414-28.732-9.896l-1.031-0.816l65.938-65.937l0.816,1.031c6.483,8.254,9.898,18.193,9.898,28.73
		C146.889,125.863,125.863,146.889,100,146.889z"/>
</g>
</svg>
