<?xml version="1.0" encoding="utf-8"?>
<!-- Generator: Adobe Illustrator 16.0.0, SVG Export Plug-In . SVG Version: 6.00 Build 0)  -->
<!DOCTYPE svg PUBLIC "-//W3C//DTD SVG 1.1//EN" "http://www.w3.org/Graphics/SVG/1.1/DTD/svg11.dtd">
<svg version="1.1" id="圖層_1" xmlns="http://www.w3.org/2000/svg" xmlns:xlink="http://www.w3.org/1999/xlink" x="0px" y="0px"
	 width="200px" height="200px" viewBox="0 0 200 200" enable-background="new 0 0 200 200" xml:space="preserve">
<g>
	<path fill="#F4F4F4" d="M200,100c0,55.224-44.776,100-100,100C44.776,200,0,155.224,0,100S44.776,0,100,0
		C155.224,0,200,44.776,200,100"/>
	<g opacity="0.54">
		<path d="M165.282,98.215c-0.006-0.014-0.006-0.027-0.006-0.031c-0.05-0.315-0.116-0.631-0.249-0.933
			c-0.348-0.815-0.958-1.477-1.716-1.92L147.36,80.029c-1.705-1.631-4.48-1.631-6.188,0c-1.708,1.645-1.708,4.297,0,5.92
			l9.085,8.714h-45.252c-2.42,0-4.371,1.882-4.371,4.194c0,0.024,0.02,0.051,0.02,0.075c0,0.026-0.02,0.059-0.02,0.078
			c0,2.325,1.951,4.198,4.371,4.198h45.252l-9.085,8.707c-1.708,1.632-1.708,4.283,0,5.929c0.859,0.815,1.979,1.226,3.094,1.226
			c1.119,0,2.236-0.41,3.094-1.226l15.951-15.304c0.758-0.441,1.368-1.104,1.716-1.926c0.133-0.294,0.199-0.615,0.249-0.924
			c0-0.014,0-0.014,0.006-0.039c0.033-0.23,0.039-0.476,0.033-0.72C165.321,98.689,165.315,98.451,165.282,98.215z M121.006,143.167
			H60.763V54.712h60.364v27.386h9.464l-0.115-31.938c0-2.518-2.127-4.554-4.738-4.554H56.031c-2.619,0-4.739,2.036-4.739,4.554
			v97.563c0,2.516,2.12,4.551,4.739,4.551h69.707c2.611,0,4.738-2.035,4.738-4.551v-31.936h-9.47V143.167z"/>
	</g>
</g>
</svg>
