<?xml version="1.0" encoding="utf-8"?>
<!-- Generator: Adobe Illustrator 16.0.0, SVG Export Plug-In . SVG Version: 6.00 Build 0)  -->
<!DOCTYPE svg PUBLIC "-//W3C//DTD SVG 1.1//EN" "http://www.w3.org/Graphics/SVG/1.1/DTD/svg11.dtd">
<svg version="1.1" id="圖層_1" xmlns="http://www.w3.org/2000/svg" xmlns:xlink="http://www.w3.org/1999/xlink" x="0px" y="0px"
	 width="200px" height="200px" viewBox="0 0 200 200" enable-background="new 0 0 200 200" xml:space="preserve">
<g>
	<path fill="#F4F4F4" d="M200,100c0,55.224-44.776,100-100,100C44.776,200,0,155.224,0,100C0,44.776,44.776,0,100,0
		C155.224,0,200,44.776,200,100"/>
	<path opacity="0.54" d="M125.848,107.25c-10.365,0-38.816,5.166-38.816,21.801v18.71h77.636v-18.71
		C164.668,112.416,136.214,107.25,125.848,107.25z M155.093,138.185H96.606v-9.134c0-6.512,18.226-12.225,29.242-12.225
		c11.019,0,29.245,5.713,29.245,12.225V138.185z M70.767,85.021c9.961,0,18.064-8.125,18.064-18.11
		c0-9.989-8.104-18.116-18.064-18.116c-9.986,0-18.111,8.127-18.111,18.116C52.656,76.897,60.781,85.021,70.767,85.021z
		 M70.767,58.371c4.681,0,8.489,3.831,8.489,8.541c0,4.706-3.808,8.534-8.489,8.534c-4.707,0-8.535-3.829-8.535-8.534
		C62.232,62.202,66.061,58.371,70.767,58.371z M60.275,116.615H46.243v-7.203c0-4.766,14.394-9.869,24.524-9.869
		c1.913,0,3.977,0.183,6.068,0.509l8.028-8.029c-5.486-1.455-10.82-2.056-14.097-2.056c-9.105,0-34.1,4.607-34.1,19.444v16.778
		h14.031L60.275,116.615z M45.895,142.82c-2.728,0-4.939,2.211-4.939,4.938c0,2.729,2.211,4.94,4.939,4.94s4.939-2.211,4.939-4.94
		C50.834,145.031,48.623,142.82,45.895,142.82z M126.687,99.78c10.729,0,19.455-8.75,19.455-19.505
		c0-10.758-8.727-19.511-19.455-19.511c-10.755,0-19.507,8.753-19.507,19.511C107.18,91.03,115.932,99.78,126.687,99.78z
		 M126.687,71.077c5.04,0,9.143,4.126,9.143,9.198c0,5.068-4.103,9.192-9.143,9.192c-5.069,0-9.194-4.124-9.194-9.192
		C117.492,75.203,121.617,71.077,126.687,71.077z M147.887,52.516c1.823-1.823,1.823-4.777,0-6.6c-1.823-1.822-4.776-1.822-6.599,0
		l-8.285,8.285c3.306,0.805,6.373,2.214,9.075,4.124L147.887,52.516z M100.623,86.58l-46.307,46.308c-1.822,1.822-1.822,4.777,0,6.6
		c0.911,0.911,2.106,1.367,3.3,1.367c1.194,0,2.389-0.456,3.3-1.367l43.816-43.815C102.828,92.964,101.424,89.891,100.623,86.58z"/>
</g>
</svg>
