<?xml version="1.0" encoding="utf-8"?>
<!-- Generator: Adobe Illustrator 15.1.0, SVG Export Plug-In  -->
<!DOCTYPE svg PUBLIC "-//W3C//DTD SVG 1.1//EN" "http://www.w3.org/Graphics/SVG/1.1/DTD/svg11.dtd" [
	<!ENTITY ns_flows "http://ns.adobe.com/Flows/1.0/">
]>
<svg version="1.1"
	 xmlns="http://www.w3.org/2000/svg" xmlns:xlink="http://www.w3.org/1999/xlink" xmlns:a="http://ns.adobe.com/AdobeSVGViewerExtensions/3.0/"
	 x="0px" y="0px" width="200px" height="200px" viewBox="0 0 200 200" enable-background="new 0 0 200 200" xml:space="preserve">
<defs>
</defs>
<path fill="#F4F4F4" d="M200,100c0,55.224-44.776,100-100,100S0,155.224,0,100S44.776,0,100,0S200,44.776,200,100"/>
<path opacity="0.54" d="M83.101,61.407c2.209,0,4.001-1.79,4.001-4V44.271c0-2.207-1.792-3.998-4.001-4.001
	c-2.209,0.003-3.999,1.792-4,4.001v13.137C79.101,59.617,80.891,61.407,83.101,61.407z"/>
<path opacity="0.54" d="M65.351,51.07c-1.561-1.563-4.094-1.563-5.656,0s-1.562,4.094,0.001,5.656l8.507,8.507
	c0.781,0.781,1.805,1.172,2.829,1.172c1.022,0,2.046-0.391,2.827-1.172c1.563-1.562,1.563-4.096,0.001-5.656L65.351,51.07z"/>
<path opacity="0.54" d="M66.03,70.476H52.896c-2.209,0-4.001,1.791-4.001,4c0,2.211,1.79,4,4,4h13.138c2.207,0,3.998-1.792,3.999-4
	C70.031,72.267,68.241,70.476,66.03,70.476z"/>
<circle opacity="0.54" cx="83.01" cy="33.14" r="3.79"/>
<path opacity="0.54" d="M117.204,149.687c1.663,0,5.031-0.344,10.121-1.033c3.827-0.505,6.686-1.34,8.582-2.481
	c3.025-1.805,5.518-4.37,7.229-7.445c1.751-3.129,2.638-6.653,2.638-10.586c0-4.828-1.235-8.828-3.712-12.013
	c-2.483-3.191-6.347-5.434-11.598-6.748c3.458-1.235,6.086-2.92,7.88-5.059c2.69-3.201,4.035-7.049,4.035-11.528
	c0-5.34-1.883-9.819-5.657-13.438c-3.77-3.618-9.178-5.423-16.227-5.423h-4.359V58.53h-17.01v15.402H82.722v75.754h16.404v15.633
	h17.01v-15.633H117.204z M99.126,88.101h16.347c3.415,0,5.824,0.673,7.212,2.018c1.371,1.34,2.065,3.202,2.065,5.58
	c0,2.575-0.694,4.536-2.065,5.902c-1.388,1.365-3.828,2.044-7.363,2.044H99.126V88.101z M99.126,118.067h17.843
	c3.953,0,6.722,0.74,8.313,2.199c1.563,1.465,2.367,3.405,2.367,5.799c0,2.603-0.804,4.672-2.398,6.205
	c-1.591,1.543-4.339,2.311-8.223,2.311H99.126V118.067z"/>
</svg>
