<?xml version="1.0" encoding="utf-8"?>
<!-- Generator: Adobe Illustrator 16.0.0, SVG Export Plug-In . SVG Version: 6.00 Build 0)  -->
<!DOCTYPE svg PUBLIC "-//W3C//DTD SVG 1.1//EN" "http://www.w3.org/Graphics/SVG/1.1/DTD/svg11.dtd">
<svg version="1.1" id="圖層_1" xmlns="http://www.w3.org/2000/svg" xmlns:xlink="http://www.w3.org/1999/xlink" x="0px" y="0px"
	 width="200px" height="200px" viewBox="0 0 200 200" enable-background="new 0 0 200 200" xml:space="preserve">
<g>
	<path fill="#F4F4F4" d="M200,100c0,55.224-44.776,100-100,100C44.776,200,0,155.224,0,100C0,44.776,44.776,0,100,0
		C155.224,0,200,44.776,200,100"/>
	<path opacity="0.54" d="M165.914,34.664c-6.751-8.006-16.216-12.905-26.651-13.792l-0.33-0.025c-1.12-0.096-2.253-0.145-3.37-0.145
		c-15.946,0-29.993,9.862-36.025,23.939c1.618-0.154,3.254-0.24,4.911-0.24c0.449,0,0.892,0.022,1.337,0.034
		c2.009-3.892,4.758-7.379,8.118-10.224c0.378-0.323,0.787-0.652,1.238-0.998l14.12,9.912c3.585,2.523,6.983,5.34,10.121,8.388
		c-1.767,1.16-3.866,1.78-5.983,1.824c1.963,1.341,3.831,2.81,5.584,4.402c1.506-0.549,2.941-1.294,4.228-2.258
		c0.704,0.781,1.399,1.581,2.078,2.392c-1.093,0.955-2.224,1.873-3.374,2.771c1.249,1.331,2.432,2.723,3.533,4.178
		c0.912-0.713,1.813-1.438,2.688-2.184c0.177-0.15,0.353-0.301,0.527-0.452c0.762,1.039,1.46,2.032,2.108,2.999
		c-1.042,1.072-1.908,2.288-2.623,3.584c1.297,2.094,2.447,4.289,3.437,6.569c0.263-1.966,1.032-3.824,2.254-5.394l7.608,11.905
		c-1.842,2.148-3.971,4.06-6.291,5.692c0.323,2.011,0.529,4.06,0.612,6.141c10.609-6.293,18.133-17.448,19.235-30.424
		C175.895,52.827,172.665,42.67,165.914,34.664z M143.065,47.496c-3.312-3.205-6.894-6.168-10.672-8.827l-12.311-8.642
		c3.246-1.715,6.726-2.87,10.378-3.443l9.152,6.355C144.337,36.221,145.758,42.506,143.065,47.496z M149.294,54.163
		c-0.759-0.902-1.532-1.786-2.313-2.645c4.857-7.105,3.488-16.895-3.332-22.36c-0.302-0.241-0.609-0.47-0.927-0.693l-2.976-2.066
		c8.4,0.982,16.266,5.182,21.737,11.647c0.109,0.13,0.218,0.261,0.325,0.392l-3.552,5.056
		C155.593,47.293,152.582,50.876,149.294,54.163z M164.86,77.08l-6.721-10.52c3.353-1.499,7.454-1.193,10.561,0.802
		C167.937,70.802,166.648,74.059,164.86,77.08z M169.497,61.605c-4.502-2.037-9.918-1.914-14.334,0.338
		c-0.775-1.153-1.598-2.32-2.463-3.485c3.686-3.63,7.053-7.605,10.023-11.831l2.39-3.405
		C168.289,48.78,169.825,55.201,169.497,61.605z M137.562,65.168c-4.812-5.102-10.809-9.065-17.28-11.436
		c-0.171-0.076-0.345-0.137-0.438-0.156c-10.285-3.666-21.852-3.412-31.784,0.582c-0.207,0.063-0.402,0.141-0.5,0.198
		C81.288,56.941,75.57,61,71.12,66c-0.216,0.189-0.405,0.401-0.484,0.533c-7.138,8.213-11.069,18.719-11.069,29.583
		c0,1.679,0.095,3.366,0.287,5.077c0.307,2.727,0.866,5.433,1.663,8.055l-23.232,23.232c-1.289,1.291-1.289,3.396,0.001,4.688
		c1.25,1.25,3.439,1.25,4.689,0l21.196-21.196c0.453,0.919,0.93,1.809,1.41,2.629c0.099,0.223,0.226,0.438,0.314,0.547
		c5.52,9.267,14.053,16.2,24.162,19.674l-14.659,14.656c-1.29,1.293-1.29,3.396,0.003,4.69c0.627,0.626,1.459,0.972,2.344,0.972
		c0.885,0,1.719-0.346,2.345-0.973l17.468-17.468c2.375,0.378,4.781,0.569,7.162,0.569c15.771,0,30.623-8.437,38.689-21.916
		c0.164-0.213,0.303-0.445,0.359-0.588c3.117-5.357,5.065-11.189,5.796-17.4c0.204-1.763,0.308-3.528,0.308-5.249
		c0-11.272-4.194-22.07-11.812-30.413C137.914,65.506,137.746,65.327,137.562,65.168z M131.926,68.877l-1.851,15.905l-11.502,2.581
		l-10.498-7.627V68.615l11.32-8.112C124.095,62.447,128.306,65.262,131.926,68.877z M113.855,92.193l-3.505,10.792H99.004
		l-3.508-10.792l9.18-6.668L113.855,92.193z M111.282,58.158l-6.707,4.806l-7.519-4.599
		C101.715,57.42,106.599,57.349,111.282,58.158z M88.76,61.063l12.6,7.709v10.964l-10.496,7.627l-11.605-2.604l-2.43-15.184
		C80.255,65.977,84.264,63.116,88.76,61.063z M71.299,76.978l1.501,9.383l-6.463,6.521C66.806,87.267,68.495,81.853,71.299,76.978z
		 M76.31,122.106l8.737,1.679l4.455,7.719C84.492,129.345,80.008,126.149,76.31,122.106z M85.599,117.138l-14.837-2.849
		c-2.069-3.852-3.452-7.985-4.115-12.304l10.754-10.849l11.628,2.611l3.923,12.074L85.599,117.138z M110.743,134.164
		c-3.98,0.629-8.067,0.629-12.05,0l-7.645-13.249l7.345-11.298h12.649l7.344,11.298L110.743,134.164z M119.934,131.504l4.45-7.712
		l8.694-1.635C129.39,126.177,124.919,129.355,119.934,131.504z M138.63,114.368l-14.787,2.779l-7.358-11.326l3.922-12.074
		l11.608-2.605l10.744,11.034C142.083,106.453,140.695,110.551,138.63,114.368z M136.571,86.318l1.167-10.021
		c3.073,5.098,4.903,10.798,5.374,16.74L136.571,86.318z M68.355,132.477c-1.252-1.25-3.432-1.251-4.69,0.001l-30.394,30.395
		c-1.288,1.295-1.288,3.397,0.003,4.691c0.626,0.625,1.458,0.969,2.342,0.969c0.887,0,1.72-0.345,2.345-0.97l30.396-30.396
		C69.645,135.874,69.645,133.772,68.355,132.477z M68.48,160.397c-0.616,0.619-0.97,1.474-0.97,2.344
		c0,0.872,0.354,1.727,0.973,2.344c0.617,0.618,1.472,0.973,2.344,0.973c0.87,0,1.724-0.354,2.344-0.973
		c0.619-0.617,0.973-1.472,0.973-2.344c0-0.87-0.354-1.725-0.975-2.35C71.928,159.157,69.723,159.159,68.48,160.397z M55.991,78.701
		c0.693-1.968,1.5-3.878,2.418-5.726c-2.249-0.813-4.364-1.978-6.252-3.478c8.387-10.218,8.634-24.81,0.599-35.302
		c3.803-2.815,8.473-4.358,13.238-4.358c5.045,0,9.93,1.706,13.844,4.816c-4.776,5.816-6.902,13.053-6.373,20.147
		c1.977-1.498,4.064-2.854,6.25-4.057c0.354-4.107,1.831-8.129,4.431-11.543c0.203,0.286,0.398,0.575,0.582,0.863
		c0.061,0.095,0.116,0.191,0.17,0.286l0.134,0.23c0.255,0.422,0.504,0.848,0.729,1.287c0.08,0.151,0.151,0.306,0.223,0.459
		l0.107,0.224c0.184,0.393,0.362,0.787,0.524,1.188c0.102,0.25,0.194,0.502,0.285,0.755c0.141,0.393,0.27,0.786,0.39,1.182
		c0.077,0.258,0.152,0.516,0.22,0.78c0.064,0.244,0.116,0.505,0.171,0.759c1.948-0.672,3.945-1.234,5.989-1.672
		c-1.155-4.945-3.591-9.512-7.207-13.252c-5.403-5.591-12.674-8.669-20.471-8.669c-7.427,0-14.452,2.836-19.779,7.986
		c-5.459,5.277-8.536,12.374-8.667,19.984c-0.129,7.61,2.706,14.809,7.983,20.268C48.517,74.951,52.087,77.241,55.991,78.701z
		 M45.092,59.656c-0.141-0.392-0.272-0.785-0.391-1.18c-0.077-0.262-0.152-0.523-0.22-0.781c-0.105-0.408-0.197-0.818-0.277-1.229
		l-0.037-0.177c-0.039-0.194-0.078-0.388-0.111-0.58c-0.074-0.45-0.125-0.905-0.17-1.353l-0.034-0.305
		c-0.015-0.113-0.029-0.227-0.037-0.344c-0.098-1.331-0.074-2.683,0.068-4.025c0.012-0.115,0.03-0.227,0.048-0.34l0.044-0.297
		c0.06-0.452,0.129-0.904,0.219-1.35c0.041-0.203,0.088-0.404,0.137-0.604l0.035-0.147c0.094-0.408,0.198-0.816,0.313-1.207
		c0.081-0.26,0.162-0.521,0.25-0.781c0.133-0.393,0.279-0.783,0.461-1.24c0.091-0.225,0.182-0.453,0.279-0.673
		c0.174-0.392,0.367-0.78,0.569-1.171l0.073-0.145c0.089-0.177,0.177-0.354,0.277-0.531c0.238-0.426,0.503-0.842,0.776-1.262
		l0.131-0.212c0.06-0.098,0.12-0.195,0.184-0.289c0.195-0.284,0.401-0.566,0.613-0.845c5.592,7.887,5.41,18.666-0.447,26.359
		c-0.203-0.287-0.398-0.576-0.583-0.862c-0.059-0.094-0.113-0.189-0.168-0.284l-0.136-0.231c-0.252-0.423-0.504-0.851-0.73-1.292
		c-0.078-0.148-0.148-0.299-0.219-0.45l-0.11-0.236c-0.185-0.392-0.361-0.785-0.523-1.18C45.285,60.184,45.201,59.952,45.092,59.656
		z"/>
</g>
</svg>
