<?xml version="1.0" encoding="utf-8"?>
<!-- Generator: Adobe Illustrator 16.0.0, SVG Export Plug-In . SVG Version: 6.00 Build 0)  -->
<!DOCTYPE svg PUBLIC "-//W3C//DTD SVG 1.1//EN" "http://www.w3.org/Graphics/SVG/1.1/DTD/svg11.dtd">
<svg version="1.1" id="圖層_1" xmlns="http://www.w3.org/2000/svg" xmlns:xlink="http://www.w3.org/1999/xlink" x="0px" y="0px"
	 width="200px" height="200px" viewBox="0 0 200 200" enable-background="new 0 0 200 200" xml:space="preserve">
<g>
	<path fill="#F4F4F4" d="M200,100c0,55.224-44.776,100-100,100C44.776,200,0,155.224,0,100C0,44.776,44.776,0,100,0
		C155.224,0,200,44.776,200,100"/>
	<path opacity="0.54" d="M169.816,85.784c-0.468-9.493-4.825-18.17-12.27-24.426c-5.759-4.849-13.219-7.518-21.004-7.518
		c-7.816,0-15.505,2.663-21.735,7.426c-6.23-4.772-13.92-7.44-21.737-7.44c-7.783,0-15.245,2.676-21.01,7.532
		c-7.451,6.273-11.804,14.961-12.259,24.462c-0.466,9.705,3.211,19.535,9.838,26.301l34.059,34.692
		c2.961,3.026,6.904,4.693,11.106,4.693c4.191,0,8.13-1.644,11.113-4.648l34.074-34.715
		C166.621,105.358,170.293,95.505,169.816,85.784z M153.808,106.073l-34.041,34.68c-1.355,1.365-3.071,2.087-4.962,2.087
		c-1.878,0-3.575-0.722-4.922-2.098l-34.052-34.687c-4.97-5.072-7.725-12.481-7.374-19.82c0.34-7.066,3.602-13.546,9.186-18.25
		c4.206-3.543,9.685-5.494,15.427-5.494c5.859,0,11.707,2.008,16.468,5.654l5.264,4.032l5.269-4.027
		c4.762-3.64,10.612-5.645,16.473-5.645c5.747,0,11.224,1.947,15.429,5.487c5.578,4.687,8.841,11.156,9.188,18.215
		C161.521,93.565,158.767,100.996,153.808,106.073z M40.297,61.194c-1.561-1.561-4.095-1.561-5.658,0
		c-1.561,1.563-1.561,4.095,0,5.658l9.289,9.289c1.563,1.563,4.095,1.563,5.658,0c1.561-1.563,1.563-4.095,0-5.658L40.297,61.194z
		 M44.584,88.208c0.724-0.723,1.171-1.723,1.171-2.828c0.001-2.208-1.791-4-3.999-4l-12.031,0.001c-2.208-0.001-4,1.791-4,4
		c0,2.21,1.791,3.999,4,3.999h12.031C42.861,89.38,43.861,88.932,44.584,88.208z M43.927,94.623l-9.288,9.288
		c-1.563,1.563-1.563,4.095,0,5.657s4.094,1.563,5.656,0l9.289-9.289c1.562-1.561,1.562-4.093,0-5.656
		C48.022,93.06,45.49,93.06,43.927,94.623z M29.533,60.006c2.094,0,3.79-1.696,3.79-3.79s-1.696-3.791-3.79-3.791
		s-3.791,1.697-3.791,3.791S27.439,60.006,29.533,60.006z"/>
</g>
</svg>
