<?xml version="1.0" encoding="utf-8"?>
<!-- Generator: Adobe Illustrator 15.1.0, SVG Export Plug-In  -->
<!DOCTYPE svg PUBLIC "-//W3C//DTD SVG 1.1//EN" "http://www.w3.org/Graphics/SVG/1.1/DTD/svg11.dtd" [
	<!ENTITY ns_flows "http://ns.adobe.com/Flows/1.0/">
]>
<svg version="1.1"
	 xmlns="http://www.w3.org/2000/svg" xmlns:xlink="http://www.w3.org/1999/xlink" xmlns:a="http://ns.adobe.com/AdobeSVGViewerExtensions/3.0/"
	 x="0px" y="0px" width="150px" height="150px" viewBox="0 0 150 150" enable-background="new 0 0 150 150" xml:space="preserve">
<defs>
</defs>
<path fill="#F4F4F4" d="M150,75c0,41.418-33.582,75-75,75S0,116.418,0,75S33.582,0,75,0S150,33.582,150,75"/>
<path opacity="0.54" d="M44.583,45.937c1.657,0,3.001-1.343,3.001-3v-9.853c0-1.655-1.344-2.999-3.001-3.001
	c-1.656,0.002-2.999,1.344-3,3.001v9.853C41.583,44.594,42.926,45.937,44.583,45.937z"/>
<path opacity="0.54" d="M31.271,38.184c-1.17-1.172-3.07-1.172-4.242,0s-1.171,3.07,0.001,4.242l6.38,6.38
	c0.586,0.586,1.354,0.879,2.122,0.879c0.767,0,1.534-0.293,2.12-0.879c1.172-1.171,1.172-3.071,0.001-4.242L31.271,38.184z"/>
<path opacity="0.54" d="M31.78,52.737H21.93c-1.657,0-3.001,1.344-3.001,3c0,1.658,1.343,3,3,3h9.854c1.655,0,2.998-1.344,2.999-3
	C34.781,54.081,33.438,52.737,31.78,52.737z"/>
<circle opacity="0.54" cx="44.515" cy="24.735" r="2.843"/>
<path opacity="0.54" d="M113.043,52.61c-0.523-1.208-1.678-1.988-2.939-1.988H43.897c-1.262,0-2.416,0.78-2.94,1.99
	c-0.511,1.183-0.352,2.548,0.425,3.574l22.773,29.276v28.901c0,2.016,1.335,5.014,5.015,5.014h15.661
	c3.68,0,5.015-2.998,5.015-5.014l-0.022-1.061l0.022-27.841l22.778-29.289C113.394,55.158,113.554,53.793,113.043,52.61z
	 M84.611,82.244l-0.88,1.283v29.737H70.27V83.526l-0.923-1.34l-20-25.451h55.302L84.611,82.244z"/>
</svg>
