<?xml version="1.0" encoding="utf-8"?>
<!-- Generator: Adobe Illustrator 16.0.0, SVG Export Plug-In . SVG Version: 6.00 Build 0)  -->
<!DOCTYPE svg PUBLIC "-//W3C//DTD SVG 1.1//EN" "http://www.w3.org/Graphics/SVG/1.1/DTD/svg11.dtd">
<svg version="1.1" id="圖層_1" xmlns="http://www.w3.org/2000/svg" xmlns:xlink="http://www.w3.org/1999/xlink" x="0px" y="0px"
	 width="200px" height="200px" viewBox="0 0 200 200" enable-background="new 0 0 200 200" xml:space="preserve">
<g>
	<path fill="#F4F4F4" d="M200,100c0,55.224-44.776,100-100,100C44.776,200,0,155.224,0,100C0,44.776,44.776,0,100,0
		C155.224,0,200,44.776,200,100"/>
	<path opacity="0.54" d="M165.823,72.214c-19.734,0-91.655,0-99.446,0c-8.958,0-8.952,8.958-8.952,8.958v69.778
		c0,0,0.006,8.938,8.936,8.938c8.331,0,87.814,0,99.461,0c8.938,0,8.938-8.961,8.938-8.961V81.134
		C174.761,81.134,174.802,72.214,165.823,72.214z M156.271,81.15l-40.177,31.811L75.912,81.15H156.271z M165.823,150.95H66.362
		V84.988l49.732,39.372l49.729-39.372V150.95z M63.445,57.249V44.112c0-2.208-1.792-3.999-4.001-4c-2.208,0.001-3.999,1.792-4,4
		v13.137c0,2.21,1.791,4.001,4,4.001C61.654,61.248,63.445,59.458,63.445,57.249z M41.695,50.912c-1.561-1.563-4.095-1.563-5.656,0
		c-1.563,1.563-1.563,4.094,0,5.656l8.508,8.507c0.781,0.781,1.805,1.171,2.828,1.171c1.023,0,2.045-0.391,2.827-1.172
		c1.563-1.561,1.563-4.095,0.001-5.656L41.695,50.912z M42.375,70.316H29.24c-2.21,0-4,1.791-4,4c0,2.21,1.789,4,4,4h13.135
		c2.208,0,3.999-1.791,4-4C46.375,72.107,44.583,70.316,42.375,70.316z M62.034,35.661c1.48-1.48,1.48-3.88,0-5.36
		s-3.88-1.48-5.36,0s-1.48,3.88,0,5.36S60.553,37.141,62.034,35.661z"/>
</g>
</svg>
