<?xml version="1.0" encoding="utf-8"?>
<!-- Generator: Adobe Illustrator 16.0.0, SVG Export Plug-In . SVG Version: 6.00 Build 0)  -->
<!DOCTYPE svg PUBLIC "-//W3C//DTD SVG 1.1//EN" "http://www.w3.org/Graphics/SVG/1.1/DTD/svg11.dtd">
<svg version="1.1" id="圖層_1" xmlns="http://www.w3.org/2000/svg" xmlns:xlink="http://www.w3.org/1999/xlink" x="0px" y="0px"
	 width="200px" height="200px" viewBox="0 0 200 200" enable-background="new 0 0 200 200" xml:space="preserve">
<path fill="#F4F4F4" d="M200,100c0,55.225-44.775,100-100,100C44.776,200,0,155.225,0,100C0,44.776,44.776,0,100,0
	C155.225,0,200,44.776,200,100"/>
<g opacity="0.54">
	<path d="M99.994,96.833H93.66v5.641v0.691h-3.457v0.031c-5.115,0.154-9.209,4.324-9.209,9.469c0,5.246,4.255,9.5,9.5,9.5h12.666
		c1.738,0,3.167,1.424,3.167,3.168s-1.429,3.166-3.167,3.166H80.994v6.334H93.66v6.333h6.334v-6.333h3.166
		c5.245,0,9.5-4.256,9.5-9.5c0-5.146-4.088-9.314-9.209-9.47v-0.03H90.494c-1.732,0-3.167-1.424-3.167-3.168
		s1.435-3.166,3.167-3.166h22.166v-6.334H99.994V96.833z"/>
	<path d="M145.496,123.59c-0.445-48.707-29.589-49.332-35.86-49.332l19.816-20.973c0.755-1.12,0.619-2.616-0.346-3.569
		C124.517,45.14,119.835,43,114.361,43c-4.28,0-8.684,1.24-14.367,3.253C94.328,44.24,89.9,43,85.633,43
		c-5.48,0-10.162,2.14-14.745,6.717c-0.959,0.953-1.101,2.449-0.334,3.569L90.37,74.258c-6.266,0-35.415,0.619-35.86,49.332
		c-0.024,2.361-5.177,10.6-5.177,17.948c0,12.221,10.255,15.462,22.829,15.462H100h27.845c12.567,0,22.822-3.253,22.822-15.462
		C150.66,134.178,145.521,125.951,145.496,123.59z M77.963,51.925c2.462-1.793,4.874-2.591,7.67-2.591
		c3.389,0,7.348,1.163,12.246,2.888l2.115,0.749l2.115-0.749c4.88-1.726,8.838-2.888,12.252-2.888c2.789,0,5.195,0.792,7.657,2.598
		l-16.996,17.979l-5.028,5.319l-5.028-5.319L77.963,51.925z M127.845,150.667H100H72.162c-16.495,0-16.495-5.938-16.495-9.129
		c0-3.452,1.824-7.812,3.154-11.022c1.156-2.77,1.985-4.787,2.01-6.877c0.26-28.147,10.478-43.047,29.539-43.047h14.683h4.571
		c19.062,0,29.279,14.899,29.539,43.059c0.024,2.078,0.854,4.096,2.004,6.865c1.329,3.211,3.154,7.57,3.154,11.022
		C144.327,144.729,144.327,150.667,127.845,150.667z"/>
</g>
</svg>
