<?xml version="1.0" encoding="utf-8"?>
<!-- Generator: Adobe Illustrator 16.0.0, SVG Export Plug-In . SVG Version: 6.00 Build 0)  -->
<!DOCTYPE svg PUBLIC "-//W3C//DTD SVG 1.1//EN" "http://www.w3.org/Graphics/SVG/1.1/DTD/svg11.dtd">
<svg version="1.1" id="圖層_1" xmlns="http://www.w3.org/2000/svg" xmlns:xlink="http://www.w3.org/1999/xlink" x="0px" y="0px"
	 width="200px" height="200px" viewBox="0 0 200 200" enable-background="new 0 0 200 200" xml:space="preserve">
<path fill="#F4F4F4" d="M200,100c0,55.225-44.775,100-100,100C44.776,200,0,155.225,0,100C0,44.776,44.776,0,100,0
	C155.225,0,200,44.776,200,100"/>
<g opacity="0.54">
	<rect x="96.832" y="137.989" width="6.336" height="19.011"/>
	<path d="M134.964,95.204c-3.119-1.367-6.201-1.51-7.377-1.51h-5.408v6.337h5.358c6.987,0,12.674,5.687,12.674,12.673
		c0,6.987-5.687,12.674-12.674,12.674h-24.369V74.622h-6.336v19.072H73.678c-6.996,0-12.673-5.688-12.673-12.674
		s5.678-12.674,12.673-12.674h58.005v12.612l19.011-15.78l-19.011-15.904v12.736h-28.516V43h-6.336v19.011H73.678
		c-10.483,0-19.01,8.533-19.01,19.01c0,7.271,4.245,13.998,10.802,17.154c0.065,0.024,2.775,1.466,5.417,1.664
		c0.953,0.13,1.872,0.192,2.785,0.192h23.16v25.347H68.316v-12.735l-19.011,15.903l19.011,15.78v-12.611h59.221
		c10.478,0,19.011-8.527,19.011-19.011C146.548,105.074,141.993,98.205,134.964,95.204z"/>
</g>
</svg>
