<?xml version="1.0" encoding="utf-8"?>
<!-- Generator: Adobe Illustrator 25.2.1, SVG Export Plug-In . SVG Version: 6.00 Build 0)  -->
<svg version="1.1" id="圖層_1" xmlns="http://www.w3.org/2000/svg" xmlns:xlink="http://www.w3.org/1999/xlink" x="0px" y="0px"
	 viewBox="0 0 112 56" style="enable-background:new 0 0 112 56;" xml:space="preserve">
<style type="text/css">
	.st0{fill:#FFFFFF;}
</style>
<g>
	<path class="st0" d="M53.423,92.453c-0.006-0.001-0.011-0.001-0.015-0.002h-0.005c-0.004,0-0.007,0-0.011-0.001h-0.006
		c-0.003,0-0.006,0-0.009-0.001H53.37c-0.003,0-0.005-0.001-0.008-0.001h-0.008c-0.002,0-0.005-0.001-0.007-0.001h-0.008
		c-0.002-0.001-0.005-0.001-0.007-0.001c-0.003,0-0.006,0-0.008-0.001h-0.007c-0.003,0-0.006,0-0.009-0.001h-0.006
		c-0.002,0-0.007-0.001-0.009-0.001h-0.006c-0.003,0-0.006-0.001-0.008-0.001h-0.006c-0.004-0.001-0.007-0.001-0.01-0.001h-0.004
		c-0.004-0.001-0.008-0.001-0.011-0.001h-0.004c-0.003-0.001-0.008-0.001-0.012-0.001H53.23c-0.005-0.001-0.009-0.001-0.014-0.001
		v-0.001c-0.264-0.017-0.525-0.039-0.788-0.063l0.137-1.487c0.316,0.028,0.637,0.052,0.954,0.072L53.423,92.453z M46.542,91.345
		c-0.07-0.019-0.139-0.038-0.21-0.057c-0.001,0,0,0-0.001-0.001l-0.013-0.003l-0.003-0.001l-0.01-0.003c-0.001,0-0.003,0-0.004,0
		l-0.011-0.004c-0.001,0-0.003-0.001-0.004-0.001l-0.01-0.003c-0.001,0-0.004-0.001-0.005-0.002c-0.003,0-0.007-0.001-0.01-0.002
		c-0.002-0.001-0.002-0.001-0.005-0.002c-0.002,0-0.005-0.001-0.008-0.002c-0.006-0.001-0.012-0.002-0.018-0.004
		c-0.001,0-0.001,0-0.002-0.001c-0.004-0.001-0.007-0.002-0.011-0.002c-0.001,0-0.002,0-0.003-0.001
		c-0.003,0-0.007-0.001-0.011-0.002c-0.001-0.001-0.002-0.001-0.003-0.002c-0.005-0.001-0.007-0.001-0.012-0.003h-0.002
		c-0.004-0.002-0.007-0.002-0.011-0.004h-0.003c-0.004-0.002-0.008-0.002-0.012-0.004h-0.001c-0.005-0.001-0.008-0.002-0.013-0.003
		h-0.001c-0.183-0.051-0.363-0.102-0.545-0.155c-0.002-0.001-0.007-0.002-0.01-0.003c-0.002,0-0.003-0.001-0.004-0.001
		s-0.002-0.001-0.003-0.001l0.418-1.436c0.304,0.088,0.614,0.174,0.921,0.254L46.542,91.345z M40.001,88.943
		c-0.221-0.105-0.439-0.215-0.658-0.323c-0.001,0-0.001,0-0.002-0.001c-0.003-0.001-0.007-0.003-0.01-0.005
		c-0.003-0.001-0.003-0.002-0.005-0.003c-0.003-0.001-0.006-0.002-0.008-0.004c-0.002-0.001-0.004-0.001-0.006-0.002
		c-0.002-0.002-0.004-0.003-0.007-0.004c-0.003-0.002-0.004-0.003-0.007-0.004c-0.001-0.001-0.002-0.002-0.004-0.002
		c-0.061-0.031-0.125-0.065-0.187-0.097l0.685-1.329c0.281,0.146,0.569,0.288,0.855,0.426L40.001,88.943z M34.04,85.333
		c-0.086-0.063-0.171-0.128-0.256-0.191c-0.004-0.003-0.007-0.005-0.011-0.008c0-0.001,0-0.001,0-0.001
		c-0.004-0.003-0.006-0.005-0.009-0.008c-0.001,0-0.001-0.001-0.002-0.001c-0.013-0.011-0.025-0.02-0.039-0.028
		c-0.001-0.002-0.003-0.004-0.004-0.004c-0.002-0.002-0.004-0.004-0.006-0.006c-0.002,0-0.004-0.002-0.006-0.004
		s-0.004-0.003-0.005-0.005c-0.003-0.001-0.005-0.003-0.007-0.005c-0.002-0.001-0.003-0.002-0.005-0.004
		c-0.003-0.002-0.006-0.004-0.008-0.006c-0.001-0.002-0.002-0.002-0.003-0.002c-0.003-0.004-0.007-0.006-0.01-0.008l-0.002-0.002
		c-0.14-0.105-0.279-0.214-0.418-0.324l0.926-1.173c0.249,0.196,0.504,0.392,0.759,0.581L34.04,85.333z M28.874,80.656
		c-0.163-0.18-0.323-0.359-0.483-0.54c-0.002-0.003-0.005-0.007-0.008-0.01l-0.001-0.001c-0.003-0.003-0.005-0.006-0.009-0.011l0,0
		c-0.007-0.008-0.013-0.014-0.021-0.023c-0.002-0.003-0.004-0.005-0.006-0.008c0-0.001-0.001-0.002-0.002-0.003
		c-0.002-0.003-0.005-0.007-0.007-0.009c-0.001,0-0.002-0.002-0.003-0.002c-0.002-0.002-0.005-0.006-0.007-0.01
		c-0.001,0-0.001,0-0.002-0.002c-0.003-0.003-0.006-0.007-0.009-0.01l-0.001-0.001c-0.034-0.039-0.068-0.078-0.103-0.117
		l1.132-0.977c0.208,0.237,0.421,0.48,0.636,0.714L28.874,80.656z M24.688,75.083c-0.021-0.033-0.043-0.069-0.064-0.104
		l-0.001-0.001c-0.003-0.004-0.005-0.009-0.008-0.013c-0.005-0.01-0.01-0.018-0.015-0.026c-0.002-0.002-0.003-0.004-0.004-0.006
		s-0.002-0.004-0.003-0.006c-0.002-0.003-0.003-0.005-0.005-0.009l-0.003-0.004c-0.002-0.002-0.003-0.006-0.005-0.008
		c-0.001-0.002-0.001-0.002-0.002-0.004c-0.002-0.002-0.004-0.006-0.006-0.009l-0.001-0.003c-0.002-0.003-0.004-0.008-0.006-0.011
		c-0.072-0.116-0.141-0.234-0.211-0.352c-0.002-0.005-0.004-0.007-0.006-0.011c-0.001-0.001-0.001-0.002-0.002-0.002
		c-0.002-0.004-0.003-0.006-0.004-0.01l-0.001-0.002c-0.003-0.004-0.004-0.006-0.006-0.01c-0.001,0-0.001-0.002-0.002-0.002
		c-0.001-0.002-0.004-0.008-0.006-0.011c0,0,0-0.001-0.001-0.001c-0.006-0.013-0.012-0.023-0.019-0.033v-0.002
		c-0.002-0.003-0.005-0.007-0.006-0.01c0-0.001-0.001-0.001-0.001-0.002c-0.002-0.003-0.004-0.006-0.006-0.009
		c0-0.003-0.001-0.003-0.002-0.005s-0.005-0.006-0.006-0.008s-0.002-0.002-0.002-0.004c-0.002-0.002-0.004-0.006-0.005-0.009
		c-0.001-0.001-0.001-0.002-0.002-0.003c-0.002-0.004-0.004-0.007-0.005-0.01c-0.001-0.001-0.001-0.001-0.001-0.002
		c-0.01-0.016-0.019-0.03-0.028-0.047c-0.003-0.004-0.004-0.006-0.007-0.01v-0.002c-0.002-0.004-0.004-0.007-0.006-0.011
		c-0.001,0-0.001-0.001-0.001-0.001c-0.002-0.004-0.004-0.008-0.007-0.012c-0.015-0.026-0.027-0.051-0.042-0.075l1.296-0.746
		c0.158,0.275,0.323,0.553,0.488,0.823L24.688,75.083z M21.637,68.819c-0.006-0.012-0.01-0.025-0.015-0.039l0,0
		c-0.002-0.004-0.003-0.008-0.004-0.012c0,0,0,0,0-0.002c-0.002-0.004-0.003-0.007-0.004-0.011
		c-0.001-0.001-0.001-0.002-0.001-0.003c-0.002-0.004-0.003-0.007-0.005-0.012v-0.002c-0.002-0.004-0.003-0.006-0.005-0.01v-0.002
		c-0.006-0.018-0.012-0.033-0.018-0.051c-0.001,0-0.001-0.001-0.001-0.001c-0.001-0.003-0.002-0.008-0.003-0.011
		c-0.001-0.001-0.001-0.002-0.001-0.003c-0.002-0.003-0.003-0.007-0.004-0.011c-0.001,0-0.001-0.002-0.001-0.002
		c-0.002-0.004-0.003-0.008-0.004-0.011c-0.001-0.001-0.001-0.003-0.002-0.004c-0.001-0.003-0.002-0.006-0.003-0.01
		c-0.001-0.001-0.001-0.003-0.002-0.004c-0.001-0.003-0.002-0.007-0.003-0.011l-0.001-0.002c-0.001-0.004-0.003-0.006-0.004-0.011
		c-0.004-0.013-0.009-0.026-0.014-0.036c0-0.002,0-0.002,0-0.002c-0.002-0.005-0.002-0.008-0.004-0.01
		c0-0.002-0.001-0.003-0.001-0.005c-0.001-0.003-0.002-0.006-0.004-0.01c0-0.002-0.001-0.002-0.001-0.004
		c-0.001-0.002-0.003-0.006-0.003-0.008c-0.001-0.002-0.002-0.004-0.002-0.006c-0.001-0.002-0.003-0.006-0.003-0.009
		c-0.001-0.001-0.002-0.003-0.002-0.005c-0.002-0.003-0.002-0.005-0.003-0.009c-0.001-0.001-0.001-0.003-0.002-0.005
		c-0.001-0.004-0.002-0.006-0.003-0.008c-0.005-0.014-0.009-0.026-0.014-0.037c0-0.002,0-0.002-0.001-0.004s-0.002-0.006-0.003-0.01
		c0-0.001-0.001-0.003-0.001-0.004c-0.001-0.003-0.002-0.006-0.004-0.01c0-0.001-0.001-0.003-0.001-0.004
		c-0.001-0.002-0.003-0.008-0.004-0.01c0-0.002-0.001-0.002-0.001-0.004c-0.001-0.002-0.003-0.006-0.004-0.008
		c0-0.003-0.001-0.005-0.001-0.006c-0.001-0.004-0.002-0.007-0.003-0.01c0-0.001,0-0.002,0-0.003
		c-0.001-0.003-0.003-0.009-0.004-0.011c-0.005-0.014-0.009-0.025-0.014-0.039c-0.001-0.004-0.002-0.006-0.004-0.01
		c0-0.002-0.001-0.004-0.001-0.004l-0.003-0.01c-0.001-0.002-0.001-0.003-0.002-0.005s-0.002-0.007-0.003-0.009
		s-0.001-0.004-0.002-0.006s-0.002-0.006-0.003-0.008s-0.001-0.004-0.002-0.004c-0.001-0.005-0.002-0.006-0.003-0.009
		c0-0.002-0.001-0.004-0.001-0.005c-0.001-0.003-0.002-0.006-0.004-0.01c0,0,0-0.001,0-0.003c-0.004-0.01-0.009-0.022-0.013-0.032
		c0-0.001-0.001-0.003-0.001-0.004l-0.003-0.01c0,0-0.001-0.002-0.002-0.004s-0.001-0.004-0.002-0.008
		c-0.001-0.002-0.002-0.004-0.003-0.007c0-0.002-0.003-0.005-0.003-0.008c-0.001-0.002-0.002-0.004-0.003-0.006
		c0-0.003-0.001-0.005-0.002-0.009c-0.001-0.002-0.002-0.002-0.003-0.004c-0.001-0.004-0.001-0.004-0.002-0.008
		c-0.001-0.003-0.001-0.006-0.002-0.008s-0.002-0.005-0.003-0.007c0-0.003-0.001-0.005-0.002-0.008s-0.002-0.005-0.003-0.007
		c-0.001-0.004-0.003-0.008-0.004-0.012c-0.001-0.002-0.001-0.004-0.002-0.005c-0.001-0.004-0.002-0.007-0.003-0.011
		c-0.001-0.002-0.001-0.002-0.002-0.004c-0.001-0.004-0.002-0.008-0.003-0.012l-0.001-0.002c-0.002-0.004-0.003-0.008-0.004-0.01
		c-0.001-0.003-0.001-0.004-0.002-0.006c-0.001-0.003-0.002-0.007-0.003-0.01c0-0.001-0.001-0.003-0.001-0.004
		c-0.002-0.004-0.003-0.008-0.004-0.012c-0.001,0-0.001-0.002-0.001-0.002l-0.004-0.013l-0.001-0.002
		c-0.005-0.015-0.01-0.028-0.015-0.043c-0.002-0.005-0.003-0.01-0.005-0.016l0,0c-0.002-0.006-0.003-0.008-0.005-0.014l0,0
		c-0.002-0.006-0.004-0.011-0.005-0.015V67.91c-0.006-0.016-0.01-0.029-0.015-0.044l1.415-0.485c0.102,0.299,0.211,0.604,0.322,0.9
		L21.637,68.819z M19.841,62.086c-0.005-0.033-0.01-0.068-0.017-0.1c0-0.002,0-0.003,0-0.004c-0.001-0.003-0.001-0.007-0.002-0.009
		c0-0.002,0-0.004-0.001-0.006c0-0.002-0.001-0.006-0.001-0.009c0-0.002-0.001-0.005-0.001-0.007
		c-0.001-0.002-0.001-0.005-0.001-0.008c-0.001-0.002-0.001-0.006-0.002-0.008c0-0.002,0-0.004-0.001-0.006
		c0-0.002-0.001-0.006-0.001-0.01c0,0,0-0.004-0.001-0.005l-0.001-0.012l-0.001-0.003c-0.003-0.02-0.006-0.04-0.01-0.061l0,0
		c-0.001-0.006-0.001-0.011-0.002-0.016v-0.001c-0.001-0.005-0.002-0.011-0.002-0.015c-0.001-0.002-0.001,0-0.001-0.002
		c0-0.004-0.001-0.008-0.002-0.012V61.79c-0.001-0.005-0.001-0.01-0.002-0.015c0-0.001,0,0,0-0.001
		c-0.001-0.005-0.002-0.01-0.002-0.014v-0.002l-0.012-0.075l-0.001-0.002c0-0.004-0.001-0.008-0.002-0.012c0-0.002,0-0.004,0-0.005
		c-0.001-0.004-0.001-0.007-0.002-0.011c0-0.001,0-0.004-0.001-0.005c0-0.004,0-0.007-0.001-0.011c0-0.002,0-0.002,0-0.004
		l-0.002-0.01c0-0.002,0-0.005-0.001-0.006l-0.001-0.009c0-0.002-0.001-0.006-0.001-0.007c0-0.002-0.001-0.006-0.001-0.008
		s-0.001-0.004-0.001-0.006c-0.001-0.002-0.001-0.004-0.001-0.006c-0.003-0.019-0.006-0.033-0.009-0.052v-0.001
		c-0.001-0.005-0.001-0.009-0.002-0.014c-0.001-0.006-0.001-0.01-0.002-0.014l0,0c-0.02-0.136-0.04-0.272-0.058-0.405l1.481-0.206
		c0.044,0.314,0.092,0.633,0.144,0.945L19.841,62.086z M19.368,55.134c0-0.054,0.002-0.107,0.004-0.162c0-0.005,0-0.009,0-0.015
		c0,0,0.001,0,0.001-0.002c0-0.004,0-0.006,0-0.012V54.94c0-0.004,0-0.008,0-0.012v-0.005c0-0.004,0-0.006,0-0.01v-0.008
		c0.001-0.004,0.001-0.005,0.001-0.007c0-0.004,0-0.008,0-0.013v-0.002c0.001-0.021,0.001-0.041,0.002-0.062l0,0
		c0-0.006,0.001-0.011,0.001-0.016v-0.001c0.008-0.223,0.018-0.446,0.031-0.67l1.493,0.083c-0.017,0.317-0.031,0.639-0.039,0.956
		L19.368,55.134z M21.674,48.538l-1.462-0.322c0.052-0.235,0.106-0.467,0.161-0.699h0.001c0.001-0.004,0.002-0.01,0.003-0.015
		l0.001-0.002l0.003-0.011c0-0.001,0-0.003,0.001-0.005c0-0.002,0.001-0.006,0.002-0.01c0.001,0,0.001-0.002,0.001-0.004
		c0.001-0.004,0.002-0.007,0.001-0.01c0.001-0.003,0.001-0.003,0.002-0.005c0-0.003,0.001-0.006,0.002-0.009
		c0-0.004,0.001-0.004,0.001-0.008c0.001,0,0.001-0.002,0.001-0.002c0.016-0.063,0.033-0.129,0.048-0.192l1.45,0.361
		C21.815,47.914,21.741,48.228,21.674,48.538 M23.733,42.182l-1.373-0.596c0.133-0.305,0.269-0.607,0.411-0.909l1.354,0.634
		C23.991,41.598,23.858,41.892,23.733,42.182 M26.971,36.338l-1.232-0.847c0.021-0.029,0.041-0.059,0.062-0.089
		c0.003-0.004,0.004-0.006,0.006-0.01c0.001,0,0-0.001,0-0.001c0.003-0.004,0.006-0.008,0.008-0.012
		c0.127-0.183,0.256-0.364,0.385-0.545c0.001-0.002,0.003-0.004,0.004-0.006c0.002-0.002,0.002-0.002,0.003-0.004
		c0.002-0.003,0.005-0.006,0.007-0.009c0-0.001,0.001-0.001,0.002-0.002c0.002-0.004,0.004-0.007,0.007-0.011l0.001-0.001
		c0.03-0.042,0.061-0.084,0.092-0.126l1.208,0.881C27.337,35.814,27.151,36.078,26.971,36.338 M31.266,31.217l-1.051-1.066
		c0.237-0.231,0.477-0.461,0.72-0.688l1.02,1.093C31.724,30.772,31.491,30.994,31.266,31.217 M36.453,27.002l-0.829-1.247
		c0.111-0.072,0.221-0.146,0.333-0.218c0.001,0,0.001-0.001,0.002-0.001c0.003-0.002,0.006-0.004,0.009-0.006
		c0.001-0.001,0.002-0.002,0.003-0.002c0.003-0.002,0.006-0.004,0.009-0.006c0.001-0.001,0.001-0.001,0.002-0.002
		c0.003-0.002,0.006-0.003,0.009-0.005c0.001-0.001,0.002-0.002,0.004-0.003c0.003-0.002,0.005-0.003,0.008-0.006
		c0.002-0.001,0.003-0.002,0.004-0.003l0.008-0.005l0.012-0.007c0.001-0.002,0.003-0.003,0.005-0.004
		c0.003-0.002,0.005-0.003,0.007-0.004c0.002-0.002,0.004-0.003,0.006-0.004l0.007-0.004c0.001-0.001,0.003-0.003,0.004-0.003
		c0.003-0.002,0.006-0.004,0.009-0.006c0.002-0.001,0.002-0.001,0.004-0.003c0.003-0.002,0.006-0.004,0.009-0.006l0.003-0.001
		c0.004-0.002,0.008-0.005,0.011-0.007l0.001-0.001c0.122-0.08,0.245-0.158,0.368-0.235l0.794,1.269
		C36.987,26.652,36.717,26.826,36.453,27.002 M42.344,23.849l-0.575-1.381c0.012-0.005,0.023-0.01,0.036-0.015v-0.001
		c0.004-0.001,0.007-0.003,0.011-0.004c0.001,0,0.002-0.001,0.002-0.001c0.005-0.002,0.007-0.003,0.012-0.005
		c0,0,0.001,0,0.001-0.001c0.004-0.001,0.008-0.003,0.011-0.004c0.001,0,0.003-0.001,0.004-0.001
		c0.009-0.004,0.021-0.009,0.03-0.013c0.002-0.001,0.004-0.001,0.006-0.002c0.002-0.001,0.004-0.002,0.006-0.003
		c0.003-0.001,0.005-0.002,0.008-0.003c0.001-0.001,0.004-0.002,0.005-0.002c0.003-0.001,0.006-0.003,0.009-0.004
		c0.001,0,0.004-0.002,0.005-0.002c0.003-0.001,0.006-0.002,0.009-0.003s0.002-0.001,0.005-0.002
		c0.003-0.002,0.006-0.003,0.01-0.004c0.001-0.001,0.002-0.001,0.003-0.002c0.004-0.002,0.008-0.003,0.012-0.005l0.002-0.001
		c0.014-0.005,0.028-0.011,0.043-0.018c0.005-0.002,0.009-0.004,0.014-0.006c0.001,0,0.001,0,0.002,0
		c0.003-0.002,0.008-0.003,0.012-0.005c0.001-0.001,0.001-0.001,0.002-0.001c0.004-0.002,0.009-0.003,0.012-0.005l0.002-0.001
		c0.004-0.002,0.009-0.003,0.013-0.005l0.001-0.001c0.023-0.009,0.047-0.019,0.071-0.028c0.005-0.002,0.01-0.004,0.014-0.005h0.001
		c0.005-0.002,0.009-0.004,0.014-0.006h0.001c0.004-0.002,0.009-0.004,0.013-0.006h0.001c0.019-0.008,0.038-0.017,0.058-0.023
		c0.005-0.002,0.01-0.004,0.014-0.006h0.001c0.004-0.002,0.009-0.004,0.013-0.005l0.002-0.001c0.004-0.002,0.008-0.004,0.013-0.005
		l0.001-0.001c0.005-0.001,0.009-0.003,0.014-0.005c0.135-0.055,0.271-0.107,0.406-0.16l0.537,1.396
		C42.936,23.606,42.637,23.726,42.344,23.849 M48.728,21.879l-0.301-1.465c0.036-0.007,0.071-0.015,0.106-0.022h0.001
		c0.005-0.001,0.009-0.001,0.014-0.002l0.002-0.001c0.004,0,0.009-0.001,0.014-0.002l0.001-0.001
		c0.004-0.001,0.009-0.001,0.013-0.002l0.002-0.001l0.045-0.01c0.002,0,0,0,0.001,0c0.005-0.001,0.009-0.002,0.014-0.003
		c0.001,0,0.003,0,0.004-0.001c0.004,0,0.007,0,0.011-0.001c0.001,0,0.003-0.001,0.004-0.001c0.003-0.001,0.007-0.001,0.01-0.002
		s0.003-0.001,0.006-0.001c0.003-0.001,0.006-0.001,0.009-0.002l0.005-0.001c0.004-0.001,0.007-0.001,0.01-0.002
		c0.001,0,0.004-0.001,0.005-0.001c0.004-0.001,0.007-0.001,0.011-0.002c0.001,0,0.002-0.001,0.003-0.001
		c0.005-0.001,0.009-0.002,0.013-0.002l0.002-0.001c0.015-0.003,0.03-0.005,0.045-0.008l0.015-0.003l0.002-0.001
		c0.004,0,0.008-0.001,0.013-0.002h0.001c0.005-0.001,0.01-0.002,0.014-0.003h0.001c0.194-0.036,0.388-0.073,0.583-0.108l0.26,1.473
		C49.354,21.755,49.039,21.815,48.728,21.879 M55.373,21.17l-0.016-1.496c0.331-0.003,0.664-0.002,0.997,0.003l-0.024,1.495
		C56.012,21.167,55.69,21.167,55.373,21.17 M62.974,21.913c-0.311-0.066-0.625-0.126-0.938-0.183l0.266-1.473
		c0.003,0.001,0.006,0.001,0.009,0.002c0.002,0,0.003,0,0.005,0c0.004,0.001,0.005,0.001,0.009,0.002
		c0.002,0.001,0.004,0.001,0.006,0.001c0.004,0.001,0.005,0.001,0.008,0.002c0.003,0,0.005,0.001,0.007,0.001
		c0.004,0.001,0.004,0.001,0.007,0.002c0.003,0,0.005,0,0.008,0.001c0.002,0,0.005,0.001,0.007,0.001
		c0.003,0.001,0.005,0.001,0.008,0.002c0.002,0,0.005,0.001,0.007,0.001c0.003,0.001,0.006,0.001,0.008,0.002
		c0.003,0,0.005,0.001,0.007,0.001l0.009,0.001l0.006,0.002l0.008,0.001c0.002,0.001,0.007,0.001,0.008,0.001
		c0.003,0.001,0.005,0.001,0.008,0.002c0.002,0,0.005,0.001,0.007,0.001c0.003,0.001,0.005,0.001,0.008,0.001
		c0.002,0.001,0.005,0.001,0.007,0.002c0.003,0,0.005,0.001,0.008,0.001c0.003,0.001,0.005,0.001,0.007,0.002
		c0.003,0,0.005,0,0.007,0c0.005,0.001,0.012,0.002,0.017,0.003c0.002,0.001,0.004,0.001,0.006,0.001
		c0.003,0.001,0.006,0.001,0.009,0.002c0.002,0,0.004,0.001,0.006,0.001l0.009,0.002l0.006,0.001
		c0.004,0.001,0.006,0.001,0.01,0.001c0.001,0.001,0.003,0.001,0.005,0.001c0.003,0.001,0.006,0.002,0.01,0.002
		c0.001,0.001,0.003,0.001,0.005,0.001c0.002,0.001,0.008,0.002,0.01,0.002c0.001,0,0.003,0.001,0.004,0.001
		c0.004,0.001,0.007,0.001,0.011,0.002c0.001,0,0.002,0.001,0.003,0.001c0.004,0,0.009,0.001,0.012,0.002h0.002
		c0.228,0.044,0.456,0.088,0.682,0.136L62.974,21.913z M69.353,23.901c-0.293-0.122-0.592-0.243-0.887-0.359l0.543-1.394
		c0.078,0.031,0.155,0.062,0.231,0.092l0.002,0.001c0.004,0.001,0.008,0.003,0.012,0.005c0.002,0,0.002,0,0.003,0.001l0.012,0.004
		l0.003,0.001c0.004,0.002,0.007,0.003,0.011,0.005c0.001,0,0.002,0,0.004,0.001c0.003,0.001,0.007,0.003,0.01,0.004
		c0.001,0.001,0.003,0.001,0.004,0.002c0.004,0.001,0.008,0.003,0.012,0.004l0.002,0.001c0.005,0.001,0.01,0.003,0.014,0.004h0.001
		c0.005,0.002,0.009,0.004,0.014,0.006c0.002,0.001,0.002,0.001,0.005,0.002s0.006,0.002,0.009,0.003
		c0.002,0.001,0.004,0.002,0.006,0.003c0.003,0.001,0.005,0.002,0.008,0.003c0.002,0,0.004,0.001,0.007,0.002
		c0.002,0.001,0.004,0.002,0.007,0.003c0.002,0.001,0.005,0.002,0.007,0.003c0.002,0.001,0.005,0.002,0.007,0.003
		s0.005,0.002,0.007,0.003s0.004,0.002,0.006,0.002c0.004,0.002,0.005,0.002,0.009,0.004c0.001,0,0.003,0.001,0.005,0.001
		c0.003,0.002,0.006,0.003,0.009,0.004c0.001,0,0.002,0.001,0.002,0.001c0.017,0.007,0.034,0.014,0.049,0.02h0.001
		c0.004,0.002,0.008,0.004,0.012,0.005c0,0.001,0.001,0.001,0.001,0.001c0.005,0.002,0.008,0.003,0.013,0.005
		s0.009,0.004,0.013,0.005h0.001c0.137,0.056,0.273,0.112,0.409,0.169L69.353,23.901z M75.23,27.076
		c-0.264-0.177-0.533-0.352-0.801-0.522l0.799-1.264c0.086,0.054,0.172,0.109,0.257,0.165h0.001
		c0.004,0.003,0.007,0.005,0.011,0.007c0,0.001,0.001,0.001,0.001,0.001c0.004,0.003,0.006,0.004,0.01,0.006l0.003,0.001
		c0.003,0.001,0.006,0.003,0.01,0.006c0,0.001,0.001,0.001,0.001,0.001c0.015,0.01,0.028,0.019,0.043,0.028
		c0.001,0.001,0.002,0.002,0.003,0.002c0.003,0.002,0.007,0.003,0.009,0.005c0.002,0.001,0.003,0.002,0.005,0.003
		c0.003,0.002,0.005,0.003,0.008,0.005c0.001,0.001,0.003,0.002,0.004,0.003c0.002,0.002,0.006,0.004,0.008,0.005
		c0.001,0.001,0.003,0.002,0.005,0.003s0.005,0.004,0.007,0.005s0.004,0.002,0.006,0.003c0.003,0.002,0.004,0.003,0.007,0.005
		c0.002,0.001,0.004,0.001,0.006,0.003l0.006,0.004c0.002,0.001,0.004,0.002,0.006,0.004c0.004,0.002,0.009,0.005,0.013,0.008
		c0.002,0.001,0.004,0.002,0.006,0.004c0.002,0.001,0.004,0.003,0.006,0.003c0.002,0.002,0.004,0.003,0.007,0.005
		c0.002,0.002,0.003,0.002,0.006,0.004c0.002,0.001,0.004,0.003,0.005,0.004c0.003,0.001,0.005,0.003,0.007,0.004
		c0.003,0.001,0.005,0.003,0.007,0.004s0.004,0.002,0.006,0.004c0.002,0.001,0.005,0.003,0.007,0.004
		c0.001,0.001,0.004,0.003,0.005,0.004c0.003,0.002,0.006,0.004,0.008,0.004c0.002,0.002,0.003,0.002,0.005,0.003
		c0.004,0.002,0.007,0.004,0.011,0.006c0.001,0.001,0,0,0.001,0.001c0.004,0.003,0.008,0.006,0.012,0.008
		c0.002,0.002,0.003,0.002,0.005,0.003c0.002,0.002,0.005,0.004,0.008,0.005c0.002,0.002,0.002,0.002,0.005,0.004
		c0.002,0.001,0.005,0.003,0.007,0.005c0.001,0,0.004,0.002,0.005,0.003c0.003,0.002,0.006,0.004,0.008,0.005
		c0.002,0.002,0.003,0.002,0.005,0.003c0.003,0.002,0.005,0.003,0.008,0.005c0.002,0.002,0.003,0.002,0.005,0.003
		c0.002,0.002,0.005,0.004,0.008,0.006c0.001,0.001,0.004,0.002,0.005,0.003c0.003,0.002,0.006,0.004,0.009,0.006
		c0.001,0,0.002,0.001,0.003,0.002c0.004,0.003,0.009,0.005,0.013,0.008s0.007,0.006,0.012,0.008
		c0.002,0.001,0.003,0.002,0.005,0.003c0.003,0.002,0.005,0.004,0.008,0.006c0.001,0,0.004,0.002,0.005,0.003
		c0.002,0.001,0.005,0.003,0.008,0.005c0.001,0.001,0.003,0.002,0.004,0.003c0.003,0.001,0.006,0.003,0.008,0.005
		c0.003,0.002,0.003,0.002,0.005,0.003c0.003,0.002,0.006,0.004,0.009,0.006l0.004,0.002c0.004,0.003,0.007,0.005,0.011,0.008h0.001
		c0.012,0.009,0.025,0.017,0.038,0.025l0.002,0.001c0.004,0.003,0.008,0.005,0.011,0.008l0.003,0.001
		c0.003,0.003,0.006,0.004,0.01,0.007c0.001,0,0.002,0.001,0.003,0.002c0.003,0.002,0.007,0.004,0.01,0.007
		c0.001,0,0.001,0.001,0.002,0.001l0.012,0.007l0.001,0.001c0.017,0.012,0.033,0.023,0.05,0.035h0.001L75.23,27.076z M80.396,31.314
		c-0.224-0.224-0.455-0.447-0.685-0.665l1.023-1.089c0.076,0.071,0.15,0.142,0.226,0.214c0.012,0.012,0.023,0.022,0.034,0.033
		c0.002,0.001,0.002,0.001,0.004,0.003s0.004,0.004,0.006,0.006c0.002,0.003,0.004,0.005,0.006,0.007
		c0.002,0,0.003,0.002,0.004,0.004c0.003,0.002,0.005,0.004,0.007,0.006c0.002,0,0.003,0.002,0.005,0.004
		c0.001,0.002,0.004,0.005,0.006,0.006c0.001,0.002,0.003,0.003,0.004,0.004c0.002,0.002,0.004,0.004,0.007,0.006
		c0.001,0.001,0.002,0.002,0.002,0.003c0.075,0.073,0.149,0.144,0.223,0.218c0.004,0.002,0.007,0.006,0.01,0.008h0.001
		c0.012,0.014,0.023,0.024,0.035,0.036c0.002,0.002,0.003,0.002,0.004,0.002c0.002,0.004,0.003,0.004,0.006,0.006
		c0.001,0.003,0.003,0.004,0.005,0.006c0.001,0.002,0.003,0.003,0.005,0.005l0.006,0.006l0.004,0.004l0.008,0.009l0.002,0.002
		c0.003,0.002,0.006,0.004,0.01,0.008l0.001,0.002l0.088,0.087L80.396,31.314z M84.669,36.456c-0.178-0.263-0.362-0.527-0.549-0.783
		l1.213-0.876l0.001,0.002c0.002,0.002,0.004,0.006,0.005,0.008c0.001,0.001,0.003,0.004,0.004,0.005
		c0.003,0.004,0.005,0.008,0.007,0.011c0.002,0.001,0.003,0.002,0.003,0.003c0.003,0.005,0.005,0.007,0.007,0.011
		c0.001,0,0.001,0.002,0.002,0.002c0.002,0.002,0.005,0.006,0.007,0.01l0.002,0.002c0.003,0.004,0.005,0.008,0.008,0.011
		l0.001,0.001c0.12,0.169,0.24,0.339,0.358,0.508v0.002c0.003,0.004,0.005,0.006,0.008,0.01l0.003,0.004
		c0.002,0.003,0.003,0.006,0.005,0.008s0.003,0.004,0.004,0.006c0.002,0.002,0.003,0.004,0.004,0.006
		c0.002,0.002,0.004,0.006,0.005,0.008c0,0.002,0.001,0.002,0.003,0.004s0.004,0.004,0.006,0.008c0.001,0,0.001,0.002,0.003,0.002
		c0.042,0.063,0.086,0.127,0.128,0.188L84.669,36.456z M87.888,42.313c-0.127-0.292-0.257-0.586-0.391-0.873l1.356-0.629
		c0.072,0.154,0.143,0.311,0.212,0.468l0.001,0.001c0,0.004,0.003,0.007,0.005,0.012c0.002,0,0.002,0.002,0.002,0.002
		c0.003,0.004,0.005,0.008,0.006,0.01s0.002,0.004,0.002,0.004c0.001,0.004,0.003,0.007,0.004,0.01
		c0.001,0.001,0.002,0.005,0.003,0.006c0.001,0.002,0.002,0.005,0.003,0.008l0.003,0.006c0.001,0.002,0.002,0.004,0.003,0.008
		c0.005,0.009,0.009,0.021,0.014,0.031l0,0c0.002,0.004,0.004,0.008,0.006,0.012l0,0c0.002,0.004,0.003,0.008,0.005,0.012
		c0,0.001,0.001,0.002,0.001,0.002c0.002,0.005,0.003,0.008,0.005,0.012c0,0,0,0.001,0.001,0.001
		c0.001,0.005,0.003,0.009,0.005,0.013l0,0c0.025,0.058,0.05,0.117,0.075,0.173c0,0.002,0.001,0.003,0.001,0.004
		c0.002,0.003,0.003,0.007,0.004,0.01c0.001,0.001,0.002,0.003,0.002,0.004l0.004,0.008c0.001,0.004,0.002,0.006,0.003,0.008
		c0,0.002,0.001,0.002,0.002,0.006c0.002,0.002,0.003,0.006,0.004,0.009c0.001,0.001,0.002,0.003,0.002,0.004
		c0.002,0.004,0.004,0.008,0.005,0.013v0.002c0.009,0.018,0.018,0.037,0.025,0.055L87.888,42.313z M89.926,48.675
		c-0.067-0.312-0.14-0.624-0.215-0.931l1.452-0.358c0.032,0.137,0.063,0.269,0.096,0.404c0,0.001,0,0.001,0.001,0.001
		c0,0.004,0.001,0.009,0.002,0.012c0.001,0.001,0.001,0.002,0.001,0.004c0.001,0.004,0.002,0.006,0.002,0.01
		c0.001,0,0.001,0.002,0.002,0.004c0,0.002,0.001,0.006,0.002,0.009c0,0.002,0.001,0.004,0.001,0.006
		c0.001,0.002,0.001,0.006,0.002,0.008c0.001,0.004,0.001,0.006,0.002,0.01l0.001,0.004c0.001,0.004,0.002,0.008,0.003,0.014v0.001
		c0.027,0.116,0.054,0.233,0.08,0.35l0.001,0.002c0.001,0.004,0.002,0.008,0.002,0.012c0.001,0,0.001,0.002,0.001,0.004
		c0.001,0.003,0.002,0.007,0.003,0.011c0,0.001,0,0.003,0.001,0.004c0,0.003,0.001,0.007,0.002,0.011
		c0,0.002,0.001,0.004,0.001,0.006s0.001,0.004,0.001,0.004c0.007,0.031,0.013,0.057,0.019,0.084L89.926,48.675z M90.707,55.31
		c-0.006-0.316-0.018-0.64-0.033-0.955l1.494-0.071l0.009,0.2v0.001c0,0.005,0,0.009,0.001,0.015l0,0v0.013v0.004
		c0,0.003,0,0.005,0.001,0.007c0.007,0.161,0.013,0.323,0.018,0.483v0.001c0.001,0.005,0.001,0.008,0.001,0.013v0.003v0.012v0.004
		c0,0.002,0,0.006,0.001,0.01v0.007v0.008v0.011v0.004c0.002,0.066,0.003,0.135,0.005,0.202L90.707,55.31z M91.694,62.229
		l-1.476-0.25c0.054-0.313,0.103-0.631,0.148-0.945l1.479,0.21c-0.001,0.001-0.001,0.001-0.001,0.002
		c0,0.004-0.001,0.008-0.001,0.012c-0.001,0.002-0.001,0.002-0.001,0.004c0,0.004-0.001,0.006-0.002,0.01v0.005
		c-0.001,0.004-0.002,0.009-0.002,0.014v0.001C91.796,61.604,91.747,61.918,91.694,62.229 M89.876,68.956l-1.398-0.528
		c0.11-0.296,0.221-0.598,0.324-0.897l1.413,0.488c-0.008,0.021-0.016,0.043-0.023,0.064l0,0c-0.002,0.006-0.003,0.009-0.004,0.014
		c-0.001,0.001-0.001,0.001-0.001,0.003c-0.002,0.004-0.002,0.006-0.004,0.011c0,0.001-0.001,0.002-0.001,0.005
		c-0.001,0.002-0.003,0.006-0.004,0.01h-0.001c-0.003,0.012-0.006,0.021-0.01,0.033c-0.001,0.002-0.002,0.004-0.003,0.008
		l-0.002,0.004l-0.003,0.01c0,0.001-0.003,0.004-0.003,0.005c0,0.003-0.001,0.006-0.002,0.01c-0.001,0.001-0.002,0.005-0.002,0.005
		c-0.001,0.004-0.002,0.006-0.003,0.01l-0.001,0.002c-0.001,0.004-0.003,0.009-0.004,0.013c-0.001,0.001-0.001,0.002-0.001,0.003
		c-0.002,0.004-0.003,0.009-0.005,0.014l0,0c-0.002,0.006-0.004,0.01-0.005,0.014h-0.001C90.05,68.489,89.965,68.724,89.876,68.956
		 M86.804,75.21l-1.272-0.784c0.166-0.27,0.332-0.546,0.491-0.821l1.293,0.75c-0.062,0.108-0.125,0.217-0.188,0.323l-0.001,0.001
		c-0.002,0.004-0.005,0.009-0.007,0.013l-0.001,0.002c-0.002,0.004-0.005,0.006-0.008,0.012c-0.001,0.002-0.002,0.003-0.004,0.005
		c0,0.002-0.002,0.005-0.003,0.007c-0.002,0.003-0.003,0.006-0.005,0.009c-0.001,0.001-0.002,0.003-0.003,0.005
		c-0.002,0.002-0.004,0.006-0.005,0.008c-0.001,0-0.002,0.002-0.002,0.002c-0.003,0.004-0.004,0.007-0.006,0.011
		c-0.001,0.001-0.001,0.002-0.002,0.002C86.991,74.905,86.898,75.06,86.804,75.21 M82.594,80.764l-1.101-1.014
		c0.215-0.233,0.43-0.473,0.639-0.713l1.127,0.984c-0.025,0.028-0.052,0.059-0.078,0.088l-0.004,0.004
		c-0.001,0.002-0.001,0.003-0.003,0.005s-0.005,0.005-0.007,0.008c-0.001,0-0.002,0.001-0.002,0.002
		c-0.003,0.003-0.006,0.006-0.009,0.011h-0.001c-0.096,0.11-0.191,0.219-0.289,0.326l-0.001,0.001
		c-0.003,0.003-0.006,0.008-0.009,0.01c-0.001,0.002-0.002,0.002-0.003,0.002c-0.002,0.004-0.005,0.006-0.008,0.008
		c0,0.002-0.002,0.004-0.003,0.004c-0.002,0.003-0.004,0.006-0.007,0.008c-0.001,0.001-0.002,0.003-0.003,0.004l-0.007,0.007
		c-0.001,0.002-0.002,0.003-0.004,0.004c-0.002,0.003-0.004,0.007-0.007,0.009c-0.006,0.006-0.013,0.014-0.019,0.021l-0.003,0.003
		c-0.002,0.002-0.005,0.005-0.007,0.008l-0.003,0.004l-0.007,0.006l-0.003,0.004c-0.002,0.002-0.005,0.004-0.007,0.008
		c-0.002,0-0.002,0-0.002,0c-0.044,0.051-0.089,0.1-0.136,0.151h-0.001c-0.003,0.004-0.006,0.006-0.009,0.01
		c-0.004,0.004-0.006,0.006-0.009,0.01c-0.001,0-0.001,0-0.001,0.001C82.604,80.752,82.6,80.757,82.594,80.764 M77.406,85.417
		l-0.889-1.202c0.256-0.188,0.512-0.384,0.763-0.579l0.92,1.179c-0.098,0.078-0.196,0.152-0.294,0.229
		c-0.001,0-0.002,0.001-0.003,0.002c-0.003,0.002-0.006,0.005-0.01,0.007l-0.003,0.003l-0.009,0.006l-0.003,0.003l-0.009,0.006
		c-0.001,0.001-0.003,0.003-0.004,0.003c-0.002,0.002-0.005,0.004-0.007,0.006s-0.004,0.003-0.005,0.004
		c-0.003,0.002-0.005,0.003-0.007,0.005c-0.002,0.001-0.004,0.003-0.007,0.004c-0.002,0.003-0.006,0.006-0.01,0.009
		c-0.002,0.001-0.005,0.003-0.007,0.005c-0.001,0.001-0.003,0.002-0.005,0.005c-0.003,0.002-0.004,0.003-0.007,0.005
		c-0.002,0.001-0.003,0.002-0.004,0.003c-0.003,0.003-0.005,0.004-0.009,0.006c-0.001,0.001-0.002,0.002-0.003,0.003
		c-0.002,0.002-0.006,0.005-0.008,0.006c-0.001,0.001-0.003,0.002-0.004,0.003c-0.003,0.002-0.005,0.004-0.008,0.006
		c-0.001,0.001-0.002,0.001-0.003,0.001c-0.003,0.003-0.006,0.005-0.009,0.007c0,0.002-0.001,0.002-0.001,0.002
		c-0.015,0.01-0.027,0.02-0.042,0.03c0,0.001-0.001,0.001-0.001,0.001c-0.005,0.003-0.007,0.005-0.011,0.008
		c0,0,0,0.002-0.001,0.002c-0.004,0.002-0.006,0.003-0.01,0.006c0,0.001-0.001,0.001-0.002,0.002
		c-0.003,0.003-0.006,0.004-0.009,0.007c-0.001,0-0.001,0.001-0.002,0.001c-0.018,0.014-0.034,0.027-0.052,0.04
		c0,0-0.002,0-0.002,0.001c-0.002,0.002-0.006,0.005-0.009,0.007c-0.001,0-0.001,0.001-0.002,0.001
		c-0.003,0.003-0.006,0.005-0.009,0.007c-0.001,0.001-0.002,0.002-0.003,0.002c-0.003,0.002-0.006,0.005-0.009,0.007
		c-0.001,0.001-0.002,0.001-0.003,0.002c-0.002,0.003-0.007,0.004-0.009,0.007c0,0-0.001,0.001-0.002,0.001
		c-0.009,0.007-0.02,0.015-0.029,0.021c-0.001,0.001-0.001,0.002-0.001,0.002c-0.002,0.002-0.005,0.004-0.007,0.005
		c-0.002,0.002-0.004,0.003-0.006,0.004c-0.001,0.003-0.003,0.004-0.005,0.005s-0.005,0.003-0.007,0.004l-0.005,0.005
		c-0.003,0.001-0.005,0.003-0.007,0.005c-0.002,0.001-0.003,0.002-0.005,0.003c-0.003,0.002-0.005,0.004-0.008,0.006
		c-0.001,0-0.004,0.003-0.005,0.003c-0.003,0.003-0.005,0.005-0.008,0.007l-0.004,0.002c-0.012,0.01-0.025,0.019-0.036,0.027
		l-0.001,0.001C77.439,85.393,77.423,85.405,77.406,85.417 M71.431,89.003l-0.643-1.35c0.287-0.137,0.574-0.277,0.856-0.423
		l0.681,1.332c-0.162,0.083-0.323,0.164-0.486,0.245c-0.001,0-0.001,0-0.002,0.001c-0.004,0.001-0.008,0.003-0.012,0.005
		c-0.001,0.001-0.002,0.001-0.003,0.002c-0.004,0.001-0.007,0.003-0.01,0.004c-0.002,0.002-0.003,0.002-0.005,0.003
		c-0.003,0.001-0.005,0.004-0.008,0.005l-0.006,0.002l-0.006,0.003c-0.003,0.001-0.006,0.003-0.008,0.004
		c-0.001,0-0.002,0-0.002,0.001L71.431,89.003z M64.882,91.385l-0.374-1.448c0.308-0.08,0.618-0.165,0.924-0.251l0.412,1.438
		c-0.119,0.034-0.239,0.066-0.36,0.101c-0.005,0.001-0.01,0.002-0.015,0.004h-0.001c-0.004,0.001-0.009,0.002-0.014,0.004h-0.002
		c-0.004,0.001-0.009,0.003-0.012,0.004l-0.002,0.001c-0.005,0.002-0.009,0.003-0.014,0.004h-0.001
		c-0.015,0.005-0.029,0.009-0.045,0.013h-0.001c-0.005,0.001-0.009,0.004-0.013,0.005c-0.002,0-0.003,0-0.005,0
		c-0.003,0.001-0.007,0.002-0.01,0.003c-0.001,0-0.004,0.001-0.005,0.001c-0.003,0.001-0.007,0.002-0.01,0.003
		c-0.002,0-0.003,0.001-0.005,0.001c-0.003,0.001-0.007,0.002-0.01,0.003c-0.002,0-0.003,0.001-0.005,0.001l-0.009,0.003
		c-0.001,0-0.005,0.001-0.006,0.001c-0.003,0.001-0.006,0.002-0.009,0.002c-0.002,0.001-0.004,0.002-0.006,0.002
		c-0.003,0.001-0.007,0.002-0.008,0.002c-0.003,0.001-0.005,0.001-0.007,0.002c-0.003,0.001-0.006,0.002-0.01,0.003
		s-0.01,0.002-0.015,0.004c-0.001,0-0.002,0-0.003,0.001c-0.004,0-0.007,0.001-0.01,0.002c-0.002,0.001-0.003,0.001-0.005,0.001
		l-0.009,0.003c-0.002,0-0.004,0.001-0.005,0.001c-0.004,0.002-0.006,0.003-0.01,0.003c0,0-0.002,0.001-0.004,0.001
		c-0.003,0.001-0.006,0.002-0.01,0.003c-0.001,0-0.002,0-0.003,0.001c-0.004,0.001-0.008,0.002-0.011,0.003h-0.003
		C65.079,91.333,64.981,91.359,64.882,91.385 M57.997,92.465l-0.088-1.492c0.317-0.02,0.638-0.043,0.954-0.071l0.128,1.491
		c-0.102,0.008-0.203,0.018-0.306,0.025c-0.005,0-0.009,0-0.014,0.001H58.67c-0.005,0-0.009,0-0.014,0.001h-0.001
		c-0.005,0-0.008,0-0.013,0.001H58.64c-0.005,0-0.008,0.001-0.013,0.001h-0.001C58.418,92.438,58.209,92.452,57.997,92.465"/>
</g>
</svg>
