<?xml version="1.0" encoding="utf-8"?>
<!-- Generator: Adobe Illustrator 15.1.0, SVG Export Plug-In  -->
<!DOCTYPE svg PUBLIC "-//W3C//DTD SVG 1.1//EN" "http://www.w3.org/Graphics/SVG/1.1/DTD/svg11.dtd" [
	<!ENTITY ns_flows "http://ns.adobe.com/Flows/1.0/">
]>
<svg version="1.1"
	 xmlns="http://www.w3.org/2000/svg" xmlns:xlink="http://www.w3.org/1999/xlink" xmlns:a="http://ns.adobe.com/AdobeSVGViewerExtensions/3.0/"
	 x="0px" y="0px" width="24px" height="24px" viewBox="0.25 0.25 24 24" enable-background="new 0.25 0.25 24 24"
	 xml:space="preserve">
<defs>
</defs>
<g display="none" opacity="0.1">
	<path display="inline" fill="#FF0000" d="M22.25,2.25v19.998h-20V2.25H22.25 M24.25,0.25h-24v23.998h24V0.25L24.25,0.25z"/>
</g>
<path display="none" fill="none" d="M0.25,0.25h24v24h-24V0.25z"/>
<path display="none" fill="none" d="M0.25,0.25h24v24h-24V0.25z"/>
<polygon points="19.039,9.194 18.314,8.463 12.25,14.574 6.186,8.463 5.461,9.194 12.25,16.037 "/>
<path fill="none" d="M0.25,0.25h24v23.998h-24V0.25z"/>
<path fill="none" d="M0.25,0.25h24v23.998h-24V0.25z"/>
<path fill="none" d="M0.25,0.25h24v23.998h-24V0.25z"/>
<path display="none" fill="none" stroke="#E6E6E4" stroke-width="0.5" stroke-miterlimit="10" d="M0.25,0.25h24v23.998h-24V0.25z"/>
<path display="none" fill="none" stroke="#E6E6E4" stroke-width="0.5" stroke-miterlimit="10" d="M0.25,0.25h24v23.998h-24V0.25z"/>
<path display="none" fill="none" stroke="#E6E6E4" stroke-width="0.5" stroke-miterlimit="10" d="M0.25,0.25h24v23.998h-24V0.25z"/>
</svg>
