<?xml version="1.0" encoding="utf-8"?>
<!-- Generator: Adobe Illustrator 16.0.0, SVG Export Plug-In . SVG Version: 6.00 Build 0)  -->
<!DOCTYPE svg PUBLIC "-//W3C//DTD SVG 1.1//EN" "http://www.w3.org/Graphics/SVG/1.1/DTD/svg11.dtd">
<svg version="1.1" id="圖層_1" xmlns="http://www.w3.org/2000/svg" xmlns:xlink="http://www.w3.org/1999/xlink" x="0px" y="0px"
	 width="200px" height="200px" viewBox="0 0 200 200" enable-background="new 0 0 200 200" xml:space="preserve">
<g>
	<path fill="#F4F4F4" d="M200,100c0,55.224-44.776,100-100,100C44.776,200,0,155.224,0,100C0,44.776,44.776,0,100,0
		C155.224,0,200,44.776,200,100"/>
	<g opacity="0.54">
		<path d="M82.301,54.676c7.357,0,14.274,2.865,19.476,8.066c6.874,6.875,9.622,17.007,7.172,26.441l-1.343,5.169l3.776,3.776
			l33.365,33.366c-1.941,1.939-3.517,3.467-5.041,4.944c-2.658,2.577-4.978,4.824-8.155,8.213l-0.079-0.079l-33.268-33.267
			l-3.777-3.777l-5.169,1.344c-2.272,0.59-4.617,0.89-6.971,0.89c-7.355,0-14.269-2.863-19.467-8.062
			c-6.781-6.781-9.338-16.486-7.396-25.43l10.153,10.152l6.6,6.599l6.6-6.599l7.726-7.725l6.6-6.599L86.5,65.5L76.321,55.32
			C78.264,54.893,80.265,54.675,82.301,54.676L82.301,54.676 M82.301,45.342c-7.719,0-15.437,2.408-21.933,7.224L79.9,72.099
			l-7.726,7.725L52.642,60.293c-10.703,14.438-9.515,34.917,3.577,48.008c7.199,7.199,16.633,10.795,26.067,10.795
			c3.134,0,6.267-0.396,9.318-1.189l33.268,33.267c0,0,3,3.484,6.95,3.484c1.83,0,3.864-0.748,5.899-2.938
			c5.24-5.639,8.031-8.031,13.748-13.747c6.807-6.806,0.324-12.63,0.324-12.63L117.981,91.53c3.18-12.242-0.017-25.797-9.605-35.387
			C101.176,48.943,91.738,45.343,82.301,45.342L82.301,45.342z"/>
	</g>
</g>
</svg>
