<?xml version="1.0" encoding="utf-8" ?>
<!-- Generator: Adobe Illustrator 19.2.0, SVG Export Plug-In . SVG Version: 6.00 Build 0)  -->
<svg version="1.1" id="Layer_1" xmlns="http://www.w3.org/2000/svg" xmlns:xlink="http://www.w3.org/1999/xlink" x="0px" y="0px"
     viewBox="0 0 32 36" style="enable-background:new 0 0 32 36;" xml:space="preserve">
<style type="text/css">
	.st0{fill:#966674;}
	.st1{display:none;fill:#C48A8A;}
	.st2{fill:#EFEFEF;}
	.st3{fill:#AD1F23;}
	.st4{fill:#C8202C;}
	.st5{fill:#F4EB33;}
	.st6{fill:#FFFFFF;}
	.st7{fill:#BD1F38;}
	.st8{fill:#2C3077;}
	.st9{fill:#CB2127;}
	.st10{fill:#F7DE28;}
	.st11{fill:#CB202B;}
	.st12{fill:#B51E3B;}
	.st13{fill:#010101;}
	.st14{fill:#273775;}
</style>
<rect x="0" class="st0" width="32" height="27.8" />
<rect x="-3.6" y="-2.3" class="st1" width="88" height="88" />
<rect class="st2" width="16" height="12" />
<path class="st3" d="M8,2.5c1.9,0,3.5,1.6,3.5,3.5c0,1.9-1.6,3.5-3.5,3.5S4.5,7.9,4.5,6C4.5,4.1,6.1,2.5,8,2.5" />
<rect y="24" class="st4" width="16" height="12" />
<polygon class="st5" points="9.7,30.9 10.7,33.8 8,32 5.3,33.8 6.3,30.9 3.6,29.1 7,29.1 8,26.1 9,29.1 12.4,29.1 " />
<g>
<rect x="16" y="24" class="st6" width="16" height="12" />
<polygon class="st7" points="26.7,28.3 32,24.5 32,24 31.6,24 25.6,28.3 	" />
<polygon class="st7" points="26.5,31.9 32,35.9 32,35.1 27.6,31.9 	" />
<polygon class="st7" points="16,24.9 20.7,28.3 21.8,28.3 16,24.1 	" />
<polygon class="st7" points="21.6,31.9 16,35.9 16,36 17,36 22.7,31.9 	" />
<polygon class="st8" points="30.9,24 25.3,24 25.3,28 	" />
<polygon class="st8" points="22.8,24 17.3,24 22.8,28 	" />
<polygon class="st8" points="32,28.3 32,25.6 28.2,28.3 	" />
<polygon class="st8" points="32,34.6 32,31.9 28.2,31.9 	" />
<polygon class="st8" points="17.6,36 22.8,36 22.8,32.2 	" />
<polygon class="st8" points="25.3,36 30.6,36 25.3,32.2 	" />
<polygon class="st8" points="16,31.9 16,34.7 19.9,31.9 	" />
<polygon class="st8" points="16,28.3 19.9,28.3 16,25.5 	" />
<polygon class="st7" points="23.3,24 23.3,29.1 16,29.1 16,31.2 23.3,31.2 23.3,36 24.8,36 24.8,31.2 32,31.2 32,29.1 24.8,29.1
		24.8,24 	" />
</g>
<rect y="12" class="st9" width="16" height="12" />
<g>
<polygon class="st10" points="1.9,17.8 2.4,16.2 1.1,15.3 2.7,15.3 3.2,13.7 3.7,15.3 5.4,15.3 4,16.2 4.5,17.8 3.2,16.8 	" />
<polygon class="st10" points="6.4,18.6 7,18.8 7.3,18.4 7.3,19 7.9,19.2 7.3,19.3 7.2,19.9 6.9,19.4 6.4,19.6 6.7,19.1 	" />
<polygon class="st10" points="9.4,15.6 8.8,15.5 8.5,16.1 8.4,15.5 7.9,15.4 8.4,15.1 8.3,14.5 8.7,14.9 9.2,14.7 9,15.2 	" />
<polygon class="st10" points="8.1,18.3 8.3,17.7 7.9,17.4 8.4,17.4 8.6,16.8 8.8,17.4 9.4,17.4 8.9,17.7 9.1,18.3 8.6,17.9 	" />
<polygon class="st10" points="6.5,13.1 7,13.4 7.4,13 7.3,13.5 7.8,13.8 7.3,13.9 7.2,14.5 6.9,14 6.3,14.1 6.7,13.7 	" />
</g>
<g>
<rect x="16" y="12" class="st11" width="16" height="12" />
<rect x="16" y="14.5" class="st6" width="16" height="7.1" />
<rect x="16" y="16.5" class="st8" width="16" height="2.9" />
</g>
<path class="st12" d="M48,3.4C48,3.4,48,3.4,48,3.4C48,3.4,48,3.4,48,3.4" />
<rect x="16" class="st2" width="16" height="12" />
<g>
<rect x="27.8" y="2" transform="matrix(0.8321 -0.5546 0.5546 0.8321 2.8732 16.1064)" class="st13" width="0.4" height="2.6" />
<g>
<rect x="26.9" y="2.5" transform="matrix(0.8325 -0.554 0.554 0.8325 2.8322 15.5245)" class="st13" width="0.4" height="1.2" />
<rect x="27.7" y="3.7" transform="matrix(0.8315 -0.5555 0.5555 0.8315 2.3257 16.2108)" class="st13" width="0.4" height="1.2" />
<rect x="28" y="1.7" transform="matrix(0.8325 -0.5541 0.5541 0.8325 3.425 16.0141)" class="st13" width="0.4" height="1.2" />
<polygon class="st13" points="28.8,2.9 29.5,3.9 29.1,4.2 28.5,3.2 		" />
<rect x="20.3" y="7" transform="matrix(0.8319 -0.555 0.555 0.8319 -1.1709 12.7833)" class="st13" width="0.4" height="2.6" />
<rect x="19.3" y="7.5" transform="matrix(0.832 -0.5548 0.5548 0.832 -1.2041 12.2138)" class="st13" width="0.4" height="1.2" />

		
<rect x="20.1" y="8.7" transform="matrix(0.8323 -0.5543 0.5543 0.8323 -1.7353 12.8429)" class="st13" width="0.4" height="1.2" />
<rect x="19.2" y="7.7" transform="matrix(0.832 -0.5547 0.5547 0.832 -1.7652 12.2888)" class="st13" width="0.4" height="2.6" />
<rect x="19.2" y="3.5" transform="matrix(0.5546 -0.8321 0.8321 0.5546 6.0783 18.705)" class="st13" width="2.6" height="0.4" />
<rect x="18.6" y="3.1" transform="matrix(0.5546 -0.8321 0.8321 0.5546 6.1386 18.0834)" class="st13" width="2.6" height="0.4" />
<rect x="18.1" y="2.7" transform="matrix(0.5543 -0.8323 0.8323 0.5543 6.2043 17.4672)" class="st13" width="2.6" height="0.4" />
<rect x="26.5" y="8.7" transform="matrix(0.5554 -0.8316 0.8316 0.5554 4.6265 26.4951)" class="st13" width="1.2" height="0.4" />
<rect x="27.3" y="7.5" transform="matrix(0.5541 -0.8325 0.8325 0.5541 6.001 26.6608)" class="st13" width="1.2" height="0.4" />
<rect x="27" y="9.1" transform="matrix(0.5546 -0.8321 0.8321 0.5546 4.5815 27.1387)" class="st13" width="1.2" height="0.4" />
<polygon class="st13" points="27.9,8.5 28.6,7.5 29,7.7 28.3,8.7 		" />
<rect x="27.6" y="9.4" transform="matrix(0.5557 -0.8314 0.8314 0.5557 4.4987 27.7292)" class="st13" width="1.2" height="0.4" />
<rect x="28.4" y="8.2" transform="matrix(0.5543 -0.8323 0.8323 0.5543 5.8759 27.899)" class="st13" width="1.2" height="0.4" />
<path class="st12" d="M25.5,3.8c-1.2-0.8-2.9-0.5-3.7,0.7c-0.4,0.6-0.2,1.4,0.4,1.8C22.8,6.8,23.6,6.6,24,6s1.2-0.8,1.8-0.4
			c0.6,0.4,0.8,1.2,0.4,1.8C27,6.3,26.7,4.6,25.5,3.8" />
<path class="st14" d="M21.8,4.5c-0.4,0.6-0.2,1.4,0.4,1.8C22.8,6.8,23.6,6.6,24,6s1.2-0.8,1.8-0.4c0.6,0.4,0.8,1.2,0.4,1.8
			c-0.8,1.2-2.5,1.5-3.7,0.7C21.3,7.4,21,5.7,21.8,4.5" />
	</g>
</g>
</svg>
